<svg xmlns="http://www.w3.org/2000/svg" viewBox="0 0 640 861.41"><defs><style>.cls-1{opacity:0.4;}.cls-10,.cls-11,.cls-12,.cls-13,.cls-2,.cls-7,.cls-8,.cls-9{fill:none;stroke-linecap:round;stroke-linejoin:round;}.cls-10,.cls-12,.cls-13,.cls-2,.cls-7,.cls-8,.cls-9{stroke:#002b49;}.cls-2{stroke-width:0.89px;stroke-dasharray:3.49 3.49;}.cls-3{fill:#092437;}.cls-4{fill:#002b49;}.cls-5{fill:#fff;}.cls-6{fill:#ed1459;}.cls-7{stroke-width:0.81px;}.cls-8{stroke-width:0.85px;}.cls-9{stroke-width:0.85px;}.cls-10{stroke-width:0.85px;}.cls-11{stroke:#478fcc;}.cls-12,.cls-13{stroke-width:1.12px;}.cls-12{fill-rule:evenodd;}</style></defs><title>VTN-31228_EngineApprovalJourney_DesignAid_Q419_OF</title><g id="Layer_1" data-name="Layer 1"><polyline class="cls-2" points="268.09 165.66 268.09 307.51 396.33 406.03 396.33 569.29"/><path class="cls-3" d="M55.88,65.05V52.52a.56.56,0,0,1,.26-.48,1.11,1.11,0,0,1,.63-.18h6.74a.56.56,0,0,1,.5.27,1.08,1.08,0,0,1,.17.6,1.13,1.13,0,0,1-.18.65.57.57,0,0,1-.49.26H57.89V58h2.92a.57.57,0,0,1,.48.24,1,1,0,0,1,0,1.12.59.59,0,0,1-.49.23H57.89v4.36h5.62a.56.56,0,0,1,.49.27,1.1,1.1,0,0,1,.18.64,1.14,1.14,0,0,1-.17.61.57.57,0,0,1-.5.26H56.77a1.11,1.11,0,0,1-.63-.18A.56.56,0,0,1,55.88,65.05Z"/><path class="cls-3" d="M65.58,65.05V57.37a.54.54,0,0,1,.27-.46,1.29,1.29,0,0,1,.71-.18,1.08,1.08,0,0,1,.64.18.56.56,0,0,1,.26.47v.69a2.51,2.51,0,0,1,1-1A2.89,2.89,0,0,1,70,56.62a3,3,0,0,1,2.32,1.1,3.78,3.78,0,0,1,1,2.63v4.7a.55.55,0,0,1-.29.48,1.36,1.36,0,0,1-.71.18,1.28,1.28,0,0,1-.68-.18.53.53,0,0,1-.31-.48V60.36A2,2,0,0,0,70.73,59a1.78,1.78,0,0,0-1.34-.6,1.75,1.75,0,0,0-1.27.54,1.88,1.88,0,0,0-.55,1.42v4.69a.57.57,0,0,1-.3.45,1.24,1.24,0,0,1-.71.21,1.16,1.16,0,0,1-.7-.21A.57.57,0,0,1,65.58,65.05Z"/><path class="cls-3" d="M74.62,67.4a2.23,2.23,0,0,1,1.48-2.05,1.29,1.29,0,0,1-.84-1.26,1.76,1.76,0,0,1,.89-1.45A2.85,2.85,0,0,1,75,60.25v-.53a2.85,2.85,0,0,1,1-2.23,3.69,3.69,0,0,1,2.55-.87,3.63,3.63,0,0,1,2.2.64C81.1,56.42,81.51,56,82,56a.82.82,0,0,1,.59.22.63.63,0,0,1,.22.46.53.53,0,0,1-.32.48,2.18,2.18,0,0,0-.95.76,2.77,2.77,0,0,1,.61,1.81v.53a2.89,2.89,0,0,1-1,2.26,3.74,3.74,0,0,1-2.57.89,3.56,3.56,0,0,1-1.31-.23.69.69,0,0,0-.36.54c0,.25.2.44.6.55a8.06,8.06,0,0,0,1.44.27,16.35,16.35,0,0,1,1.68.28,2.81,2.81,0,0,1,1.44.77,2.12,2.12,0,0,1,.6,1.57,2.33,2.33,0,0,1-1.13,2.11,5.19,5.19,0,0,1-2.85.71,5.53,5.53,0,0,1-2.88-.69A2.13,2.13,0,0,1,74.62,67.4Zm1.87-.21a1.27,1.27,0,0,0,.6,1.1,2.62,2.62,0,0,0,1.54.41,2.54,2.54,0,0,0,1.5-.4,1.27,1.27,0,0,0,.57-1.09,1.07,1.07,0,0,0-.27-.74,1.67,1.67,0,0,0-.78-.44,7.66,7.66,0,0,0-.89-.19l-1-.09C76.92,66.07,76.49,66.55,76.49,67.19ZM77,60.24a2.07,2.07,0,0,0,.43,1.36,1.48,1.48,0,0,0,1.2.53,1.44,1.44,0,0,0,1.17-.52,2.06,2.06,0,0,0,.44-1.36v-.53a2,2,0,0,0-.44-1.31,1.46,1.46,0,0,0-1.19-.52,1.44,1.44,0,0,0-1.18.52A2,2,0,0,0,77,59.72Z"/><path class="cls-3" d="M83.9,53.43a1,1,0,0,1,.34-.74,1.26,1.26,0,0,1,1.63,0,1,1,0,0,1,.34.74.94.94,0,0,1-.34.73,1.2,1.2,0,0,1-1.63,0A.94.94,0,0,1,83.9,53.43Zm.17,11.62V57.37a.53.53,0,0,1,.28-.46,1.27,1.27,0,0,1,.71-.18,1.33,1.33,0,0,1,.72.18.53.53,0,0,1,.28.46v7.68a.58.58,0,0,1-.29.45,1.21,1.21,0,0,1-.71.21,1.12,1.12,0,0,1-.7-.21A.58.58,0,0,1,84.07,65.05Z"/><path class="cls-3" d="M88.14,65.05V57.37a.56.56,0,0,1,.28-.46,1.27,1.27,0,0,1,.71-.18,1.07,1.07,0,0,1,.63.18.56.56,0,0,1,.26.47v.69a2.54,2.54,0,0,1,1-1,2.84,2.84,0,0,1,1.56-.42,3,3,0,0,1,2.32,1.1,3.83,3.83,0,0,1,1,2.63v4.7a.54.54,0,0,1-.3.48,1.43,1.43,0,0,1-1.39,0,.54.54,0,0,1-.3-.48V60.36A2,2,0,0,0,93.3,59,1.8,1.8,0,0,0,92,58.4a1.77,1.77,0,0,0-1.27.54,1.92,1.92,0,0,0-.55,1.42v4.69a.57.57,0,0,1-.3.45,1.18,1.18,0,0,1-.7.21,1.14,1.14,0,0,1-.7-.21A.58.58,0,0,1,88.14,65.05Z"/><path class="cls-3" d="M97.52,62.09v-1.8a3.42,3.42,0,0,1,1.16-2.58,4.09,4.09,0,0,1,5.44-.11,3.19,3.19,0,0,1,1.11,2.49,2.73,2.73,0,0,1-.13.94.92.92,0,0,1-.42.5,1.51,1.51,0,0,1-.53.18,3.75,3.75,0,0,1-.64,0h-4v.44a1.88,1.88,0,0,0,.68,1.52,2.75,2.75,0,0,0,1.78.56,3.13,3.13,0,0,0,1.47-.36,3,3,0,0,1,.85-.36.69.69,0,0,1,.55.3,1,1,0,0,1,.22.59c0,.31-.3.63-.91.94a5.38,5.38,0,0,1-5.4-.56A3.39,3.39,0,0,1,97.52,62.09Zm2-1.61h3.15a1,1,0,0,0,.56-.11.57.57,0,0,0,.14-.45,1.71,1.71,0,0,0-.55-1.27,2,2,0,0,0-1.37-.52,2,2,0,0,0-1.36.5,1.58,1.58,0,0,0-.57,1.25Z"/><path class="cls-3" d="M109.86,64.88a.65.65,0,0,1,0-.17l3.76-12.28c.16-.46.61-.68,1.35-.68s1.21.21,1.37.63l3.75,12.28a1,1,0,0,1,0,.18.73.73,0,0,1-.44.61,1.88,1.88,0,0,1-.94.26c-.4,0-.65-.14-.74-.41l-.79-2.72h-4.66l-.77,2.71a.64.64,0,0,1-.7.42,1.53,1.53,0,0,1-.85-.25A.68.68,0,0,1,109.86,64.88ZM113,61h3.76l-1.9-6.5Z"/><path class="cls-3" d="M121.3,69.31V57.37a.54.54,0,0,1,.27-.46,1.23,1.23,0,0,1,.68-.18,1.16,1.16,0,0,1,.66.18.55.55,0,0,1,.27.47v.69a2.76,2.76,0,0,1,1-1,2.83,2.83,0,0,1,1.52-.42,3.12,3.12,0,0,1,2.42,1.1,3.79,3.79,0,0,1,1,2.63v1.74a3.88,3.88,0,0,1-1,2.63,3,3,0,0,1-2.33,1.14,2.71,2.71,0,0,1-1.51-.44,2.6,2.6,0,0,1-1-1v4.94a.55.55,0,0,1-.3.46,1.26,1.26,0,0,1-.72.2,1.2,1.2,0,0,1-.7-.19A.59.59,0,0,1,121.3,69.31Zm2-6.79a1.56,1.56,0,0,0,.58,1,1.83,1.83,0,0,0,1.33.57,1.81,1.81,0,0,0,1.35-.61,2,2,0,0,0,.59-1.38V60.36a1.9,1.9,0,0,0-.59-1.36,1.88,1.88,0,0,0-3.26,1.36Z"/><path class="cls-3" d="M130.89,69.31V57.37a.54.54,0,0,1,.27-.46,1.2,1.2,0,0,1,.67-.18,1.17,1.17,0,0,1,.67.18.56.56,0,0,1,.26.47v.69a2.87,2.87,0,0,1,1-1,2.78,2.78,0,0,1,1.52-.42,3.13,3.13,0,0,1,2.42,1.1,3.79,3.79,0,0,1,1,2.63v1.74a3.88,3.88,0,0,1-1,2.63,3,3,0,0,1-2.33,1.14,2.69,2.69,0,0,1-1.51-.44,2.6,2.6,0,0,1-1-1v4.94a.56.56,0,0,1-.31.46,1.22,1.22,0,0,1-.72.2,1.15,1.15,0,0,1-.69-.19A.59.59,0,0,1,130.89,69.31Zm2-6.79a1.58,1.58,0,0,0,.57,1,1.83,1.83,0,0,0,2.69,0,2,2,0,0,0,.58-1.38V60.36a1.95,1.95,0,0,0-3.28-1.43,1.91,1.91,0,0,0-.56,1.43Z"/><path class="cls-3" d="M140.45,65.05V57.37a.56.56,0,0,1,.28-.46,1.22,1.22,0,0,1,.69-.18,1.1,1.1,0,0,1,.64.18.55.55,0,0,1,.27.47v.85a3,3,0,0,1,1-1.14,2.34,2.34,0,0,1,1.43-.47h.6a.69.69,0,0,1,.53.25.94.94,0,0,1,.23.63,1,1,0,0,1-.23.63.68.68,0,0,1-.53.27h-.6a2.1,2.1,0,0,0-1.6.77,2.88,2.88,0,0,0-.7,2v3.87a.57.57,0,0,1-.3.45,1.22,1.22,0,0,1-.72.21,1.09,1.09,0,0,1-.69-.21A.6.6,0,0,1,140.45,65.05Z"/><path class="cls-3" d="M146.69,62.09V60.35a3.54,3.54,0,0,1,1.15-2.62,3.87,3.87,0,0,1,2.77-1.11,3.92,3.92,0,0,1,2.75,1.1,3.51,3.51,0,0,1,1.17,2.63v1.74a3.56,3.56,0,0,1-1.18,2.63,3.89,3.89,0,0,1-5.49,0A3.58,3.58,0,0,1,146.69,62.09Zm2,0a2,2,0,0,0,.57,1.38,1.81,1.81,0,0,0,2.71,0,2,2,0,0,0,.58-1.38V60.36A1.89,1.89,0,0,0,152,59a1.83,1.83,0,0,0-2.71,0,1.92,1.92,0,0,0-.57,1.36Z"/><path class="cls-3" d="M155.33,57.51a.71.71,0,0,1,.43-.6,1.72,1.72,0,0,1,.87-.26.57.57,0,0,1,.61.36l2.26,6,2.25-6a.6.6,0,0,1,.61-.4,1.74,1.74,0,0,1,.83.27c.32.18.47.37.47.59a.88.88,0,0,1-.07.32L160.4,65.5c-.11.27-.41.4-.9.4s-.8-.13-.91-.4l-3.17-7.67A.78.78,0,0,1,155.33,57.51Z"/><path class="cls-3" d="M164.33,63.36a2.18,2.18,0,0,1,1.13-2.11,7.25,7.25,0,0,1,3.3-.6h.83V60.3a2.36,2.36,0,0,0-.46-1.47,1.66,1.66,0,0,0-1.41-.62,3.1,3.1,0,0,0-1.43.31,4.07,4.07,0,0,1-.68.31.6.6,0,0,1-.52-.31,1.28,1.28,0,0,1-.19-.69c0-.33.3-.61.91-.85a5.32,5.32,0,0,1,1.95-.36,3.69,3.69,0,0,1,2.89,1.05,3.8,3.8,0,0,1,.93,2.62v4.76a.57.57,0,0,1-.27.46,1.15,1.15,0,0,1-.69.2,1.07,1.07,0,0,1-.65-.2.58.58,0,0,1-.26-.46v-.67a3.71,3.71,0,0,1-2.86,1.48,2.57,2.57,0,0,1-1.81-.64A2.36,2.36,0,0,1,164.33,63.36Zm2-.24a1.15,1.15,0,0,0,.34.91,1.24,1.24,0,0,0,.89.32,2,2,0,0,0,1.37-.61,1.73,1.73,0,0,0,.65-1.29v-.7h-.47a10.31,10.31,0,0,0-1.39.08,2.12,2.12,0,0,0-1,.39A1.08,1.08,0,0,0,166.34,63.12Z"/><path class="cls-3" d="M173.78,65.05V52a.52.52,0,0,1,.28-.46,1.27,1.27,0,0,1,.71-.18,1.36,1.36,0,0,1,.71.18.53.53,0,0,1,.29.46v13a.57.57,0,0,1-.3.45,1.23,1.23,0,0,1-.7.21,1.17,1.17,0,0,1-.71-.21A.6.6,0,0,1,173.78,65.05Z"/><path class="cls-3" d="M181.09,62.21a1,1,0,0,1,.25-.76,1.17,1.17,0,0,1,.78-.21c.64,0,1,.22,1,.66a2.38,2.38,0,0,0,.59,1.54,2.14,2.14,0,0,0,1.65.6c1.51,0,2.27-.81,2.27-2.44v-8H185.4a.57.57,0,0,1-.49-.26,1.13,1.13,0,0,1-.18-.65,1.09,1.09,0,0,1,.17-.61.57.57,0,0,1,.5-.26h3.33a1.11,1.11,0,0,1,.63.18.56.56,0,0,1,.26.48V61.6a4.06,4.06,0,0,1-1.16,3.2,4.43,4.43,0,0,1-3.05,1,4.73,4.73,0,0,1-3.11-1A3.22,3.22,0,0,1,181.09,62.21Z"/><path class="cls-3" d="M191.4,62.09V60.35a3.55,3.55,0,0,1,1.16-2.62,3.84,3.84,0,0,1,2.76-1.11,3.9,3.9,0,0,1,2.75,1.1,3.51,3.51,0,0,1,1.17,2.63v1.74a3.56,3.56,0,0,1-1.18,2.63,3.89,3.89,0,0,1-5.49,0A3.58,3.58,0,0,1,191.4,62.09Zm2,0a2,2,0,0,0,.57,1.38,1.78,1.78,0,0,0,1.36.61,1.81,1.81,0,0,0,1.36-.61,2,2,0,0,0,.57-1.38V60.36a1.92,1.92,0,0,0-.57-1.36,1.84,1.84,0,0,0-1.36-.6A1.81,1.81,0,0,0,194,59a1.92,1.92,0,0,0-.57,1.36Z"/><path class="cls-3" d="M200.91,62.13V57.39a.55.55,0,0,1,.31-.46,1.31,1.31,0,0,1,1.39,0,.57.57,0,0,1,.29.46v4.73a1.92,1.92,0,0,0,.58,1.36,1.82,1.82,0,0,0,1.35.6,1.85,1.85,0,0,0,1.37-.59,1.94,1.94,0,0,0,.57-1.37V57.37a.53.53,0,0,1,.29-.45,1.26,1.26,0,0,1,.71-.19,1.15,1.15,0,0,1,.69.19.54.54,0,0,1,.28.45v4.76a3.55,3.55,0,0,1-1.16,2.62,4,4,0,0,1-5.5,0A3.52,3.52,0,0,1,200.91,62.13Z"/><path class="cls-3" d="M210.74,65.05V57.37a.56.56,0,0,1,.28-.46,1.22,1.22,0,0,1,.69-.18,1.15,1.15,0,0,1,.65.18.56.56,0,0,1,.26.47v.85a3,3,0,0,1,1-1.14,2.34,2.34,0,0,1,1.43-.47h.6a.69.69,0,0,1,.53.25.94.94,0,0,1,.23.63,1,1,0,0,1-.23.63.68.68,0,0,1-.53.27H215a2.1,2.1,0,0,0-1.6.77,2.88,2.88,0,0,0-.7,2v3.87a.57.57,0,0,1-.3.45,1.22,1.22,0,0,1-.72.21,1.09,1.09,0,0,1-.69-.21A.6.6,0,0,1,210.74,65.05Z"/><path class="cls-3" d="M217.56,65.05V57.37a.56.56,0,0,1,.28-.46,1.27,1.27,0,0,1,.71-.18,1.12,1.12,0,0,1,.64.18.55.55,0,0,1,.25.47v.69a2.54,2.54,0,0,1,1-1,2.87,2.87,0,0,1,1.56-.42,3,3,0,0,1,2.32,1.1,3.83,3.83,0,0,1,1,2.63v4.7a.54.54,0,0,1-.3.48,1.43,1.43,0,0,1-1.39,0,.54.54,0,0,1-.3-.48V60.36a2,2,0,0,0-.57-1.36,1.8,1.8,0,0,0-1.35-.6,1.77,1.77,0,0,0-1.27.54,1.92,1.92,0,0,0-.55,1.42v4.69a.57.57,0,0,1-.3.45,1.18,1.18,0,0,1-.7.21,1.14,1.14,0,0,1-.7-.21A.58.58,0,0,1,217.56,65.05Z"/><path class="cls-3" d="M226.94,62.09v-1.8a3.42,3.42,0,0,1,1.16-2.58,4.11,4.11,0,0,1,5.45-.11,3.19,3.19,0,0,1,1.1,2.49,2.73,2.73,0,0,1-.13.94.94.94,0,0,1-.41.5,1.56,1.56,0,0,1-.54.18,3.67,3.67,0,0,1-.64,0h-4v.44a1.88,1.88,0,0,0,.68,1.52,2.76,2.76,0,0,0,1.79.56,3.12,3.12,0,0,0,1.46-.36,3.26,3.26,0,0,1,.85-.36.68.68,0,0,1,.55.3,1,1,0,0,1,.22.59c0,.31-.3.63-.91.94a5.36,5.36,0,0,1-5.39-.56A3.37,3.37,0,0,1,226.94,62.09Zm2-1.61h3.15a1,1,0,0,0,.56-.11.57.57,0,0,0,.14-.45,1.67,1.67,0,0,0-.55-1.27,1.94,1.94,0,0,0-1.36-.52,2,2,0,0,0-1.37.5,1.58,1.58,0,0,0-.57,1.25Z"/><path class="cls-3" d="M235.41,69.12c0-.57.19-.85.55-.85a2.43,2.43,0,0,0,1.69-.82,3.73,3.73,0,0,0,1-2.29l-3.18-7.35a.41.41,0,0,1-.08-.27.84.84,0,0,1,.44-.65,1.59,1.59,0,0,1,.87-.29.57.57,0,0,1,.61.36l2.38,6.16,2-6.16a.58.58,0,0,1,.57-.36,1.69,1.69,0,0,1,.86.29.83.83,0,0,1,.46.69.56.56,0,0,1,0,.23l-2.81,7.41-.32.85-.35.82a7.12,7.12,0,0,1-.41.83l-.45.7a2.51,2.51,0,0,1-.57.65,8,8,0,0,1-.65.46,2.43,2.43,0,0,1-.79.34,4,4,0,0,1-.93.1C235.72,70,235.41,69.69,235.41,69.12Z"/><circle class="cls-4" cx="267.53" cy="166.38" r="11.14"/><path class="cls-5" d="M265.58,163.46a.71.71,0,0,1,.35-.65l1.62-1.24a.54.54,0,0,1,.38-.14,1,1,0,0,1,.55.16.5.5,0,0,1,.25.42v9a.46.46,0,0,1-.27.41,1.28,1.28,0,0,1-.63.15,1.22,1.22,0,0,1-.63-.15.46.46,0,0,1-.27-.41v-7.36l-.44.44a.48.48,0,0,1-.33.12.49.49,0,0,1-.41-.22A.81.81,0,0,1,265.58,163.46Z"/><circle class="cls-4" cx="267.53" cy="307.51" r="11.14"/><path class="cls-5" d="M264.51,312.09v-1.34a2.06,2.06,0,0,1,.42-1.2,5.15,5.15,0,0,1,1-1.08l1.32-1a6.53,6.53,0,0,0,1.11-1,1.65,1.65,0,0,0,.46-1.08,1.28,1.28,0,0,0-.33-.87,1.19,1.19,0,0,0-1-.37,1.27,1.27,0,0,0-.89.31,1.2,1.2,0,0,0-.34.94.6.6,0,0,1-.25.47,1,1,0,0,1-.68.21c-.53,0-.8-.32-.8-1a2.23,2.23,0,0,1,.88-1.83,3.18,3.18,0,0,1,2.07-.7,3.33,3.33,0,0,1,2.17.75,2.46,2.46,0,0,1,.92,2,2.89,2.89,0,0,1-.45,1.56,4.52,4.52,0,0,1-1.1,1.24c-.43.34-.86.65-1.29.94a7.27,7.27,0,0,0-1.09.86,1.2,1.2,0,0,0-.45.82v.33h3.84a.51.51,0,0,1,.4.23.89.89,0,0,1,.17.54,1,1,0,0,1-.17.56.47.47,0,0,1-.39.24h-4.81a.93.93,0,0,1-.51-.16A.49.49,0,0,1,264.51,312.09Z"/><circle class="cls-4" cx="395.7" cy="408.09" r="11.14"/><path class="cls-5" d="M392.38,410.82a.65.65,0,0,1,.19-.55,1.11,1.11,0,0,1,.66-.15,1.31,1.31,0,0,1,.74.14.6.6,0,0,1,.19.49.87.87,0,0,0,.38.74,1.82,1.82,0,0,0,1,.27,1.58,1.58,0,0,0,1.13-.35,1.6,1.6,0,0,0,.35-1.14V410c0-.88-.51-1.31-1.52-1.31-.35,0-.52-.24-.52-.71s.17-.7.53-.7a1.43,1.43,0,0,0,.93-.27,1.34,1.34,0,0,0,.33-1.07,1.07,1.07,0,0,0-1.21-1.21c-.82,0-1.23.31-1.23.92,0,.46-.29.68-.86.68a1.27,1.27,0,0,1-.75-.15.85.85,0,0,1-.17-.61,2.22,2.22,0,0,1,.15-.8,2.58,2.58,0,0,1,.48-.77,2.29,2.29,0,0,1,.94-.61,4.28,4.28,0,0,1,1.45-.23c1.95,0,2.92.83,2.92,2.48a3.38,3.38,0,0,1-.28,1.43,1.61,1.61,0,0,1-.8.84,2.07,2.07,0,0,1,1.4,2.09v.26a2.79,2.79,0,0,1-.92,2.31,3.66,3.66,0,0,1-2.39.75,3.29,3.29,0,0,1-2.36-.77A2.37,2.37,0,0,1,392.38,410.82Z"/><circle class="cls-4" cx="395.7" cy="564.72" r="11.14"/><path class="cls-5" d="M392.22,567a.67.67,0,0,1,.1-.35l3.27-6.37a.76.76,0,0,1,.75-.47,1.12,1.12,0,0,1,.59.2.57.57,0,0,1,.31.49.53.53,0,0,1-.07.24L394.52,566h1.62V564.5a.47.47,0,0,1,.26-.44,1.22,1.22,0,0,1,.63-.15,1.29,1.29,0,0,1,.64.15.49.49,0,0,1,.26.44V566h.65a.48.48,0,0,1,.41.23,1,1,0,0,1,.15.56.94.94,0,0,1-.17.54.5.5,0,0,1-.39.24h-.65v1.7a.5.5,0,0,1-.26.43,1.19,1.19,0,0,1-.64.16,1.12,1.12,0,0,1-.62-.16.49.49,0,0,1-.27-.43v-1.7h-3.31a.61.61,0,0,1-.44-.16A.6.6,0,0,1,392.22,567Z"/><path class="cls-4" d="M318.88,587.07v-7.8a.39.39,0,0,1,.21-.36.83.83,0,0,1,.48-.14h2.31c1.61,0,2.41.71,2.41,2.12a1.84,1.84,0,0,1-1,1.9,2,2,0,0,1,.93.68,2.18,2.18,0,0,1,.31,1.28V585a2.55,2.55,0,0,1-.65,1.94,2.47,2.47,0,0,1-1.75.61h-2.54a.8.8,0,0,1-.5-.15A.43.43,0,0,1,318.88,587.07Zm1.55-4.89h1.34a.93.93,0,0,0,.72-.27,1.14,1.14,0,0,0,.24-.76,1,1,0,0,0-.25-.74,1,1,0,0,0-.72-.27h-1.33Zm0,4h1.36c.77,0,1.16-.44,1.16-1.31v-.19a1.37,1.37,0,0,0-.29-1,1.18,1.18,0,0,0-.87-.3h-1.36Z"/><path class="cls-4" d="M325.45,585.22v-2.88a.42.42,0,0,1,.23-.34,1,1,0,0,1,.55-.15,1,1,0,0,1,.53.15.42.42,0,0,1,.23.34v2.87a1.06,1.06,0,0,0,.32.75,1,1,0,0,0,.74.33,1,1,0,0,0,.74-.33,1.08,1.08,0,0,0,.3-.75v-2.89a.4.4,0,0,1,.24-.33,1.15,1.15,0,0,1,1.1,0,.42.42,0,0,1,.21.34v2.89a2.25,2.25,0,0,1-.77,1.7,2.54,2.54,0,0,1-1.82.73,2.58,2.58,0,0,1-1.83-.73A2.25,2.25,0,0,1,325.45,585.22Z"/><path class="cls-4" d="M331.71,579.89a.57.57,0,0,1,.26-.48.91.91,0,0,1,.62-.2.8.8,0,0,1,.57.2.6.6,0,0,1,.24.48.63.63,0,0,1-.24.48.84.84,0,0,1-.57.2,1,1,0,0,1-.62-.2A.59.59,0,0,1,331.71,579.89Zm.14,7.16v-4.72a.4.4,0,0,1,.21-.35,1,1,0,0,1,.53-.13,1,1,0,0,1,.54.13.4.4,0,0,1,.21.35v4.72a.42.42,0,0,1-.22.34,1,1,0,0,1-.53.16.86.86,0,0,1-.52-.15A.45.45,0,0,1,331.85,587.05Z"/><path class="cls-4" d="M334.65,587.05v-8a.41.41,0,0,1,.21-.35,1.13,1.13,0,0,1,.56-.13,1.18,1.18,0,0,1,.55.13.41.41,0,0,1,.23.35v8a.43.43,0,0,1-.24.34,1,1,0,0,1-1.09,0A.42.42,0,0,1,334.65,587.05Z"/><path class="cls-4" d="M337.3,585.19v-1a2.54,2.54,0,0,1,.63-1.72,1.94,1.94,0,0,1,1.51-.72,1.64,1.64,0,0,1,.93.27,2,2,0,0,1,.62.65V579a.37.37,0,0,1,.22-.34,1.06,1.06,0,0,1,.56-.14,1,1,0,0,1,.55.14.38.38,0,0,1,.21.34v8a.42.42,0,0,1-.22.35,1,1,0,0,1-.54.15.82.82,0,0,1-.49-.16.45.45,0,0,1-.21-.34v-.35a1.73,1.73,0,0,1-.65.67,1.91,1.91,0,0,1-1,.28,1.86,1.86,0,0,1-1.46-.74A2.55,2.55,0,0,1,337.3,585.19Zm1.55,0a1.09,1.09,0,0,0,.31.76,1,1,0,0,0,.73.34,1.06,1.06,0,0,0,.76-.33.91.91,0,0,0,.34-.56v-1.19a1,1,0,0,0-.33-.77,1.08,1.08,0,0,0-.75-.3,1,1,0,0,0-.75.33,1,1,0,0,0-.31.74Z"/><path class="cls-4" d="M345.69,579.45a.83.83,0,0,1,.13-.47.39.39,0,0,1,.36-.21h5.08a.39.39,0,0,1,.36.21.83.83,0,0,1,.13.47.88.88,0,0,1-.13.49.42.42,0,0,1-.36.2h-1.75v6.91a.39.39,0,0,1-.24.36,1.06,1.06,0,0,1-.54.14,1.11,1.11,0,0,1-.56-.14.39.39,0,0,1-.22-.36v-6.91h-1.77a.4.4,0,0,1-.36-.2A.83.83,0,0,1,345.69,579.45Z"/><path class="cls-4" d="M351.17,585.19v-1a2.23,2.23,0,0,1,.77-1.69,2.65,2.65,0,0,1,1.86-.71,2.56,2.56,0,0,1,1.75.65,2.08,2.08,0,0,1,.72,1.62,1.66,1.66,0,0,1-.09.59.64.64,0,0,1-.27.33,1.11,1.11,0,0,1-.34.11,2.29,2.29,0,0,1-.41,0h-2.44v.18a1,1,0,0,0,.39.83,1.54,1.54,0,0,0,1,.32,2,2,0,0,0,.9-.23,1.8,1.8,0,0,1,.57-.23.49.49,0,0,1,.42.24.77.77,0,0,1,.17.45c0,.22-.2.44-.61.66a3.08,3.08,0,0,1-1.5.33A3.17,3.17,0,0,1,352,587,2.23,2.23,0,0,1,351.17,585.19Zm1.55-1h1.75a.38.38,0,0,0,.27-.07c.06,0,.08-.12.08-.24a.8.8,0,0,0-.3-.64,1.28,1.28,0,0,0-1.49,0,.78.78,0,0,0-.31.63Z"/><path class="cls-4" d="M356.84,586.62a.8.8,0,0,1,.16-.45.44.44,0,0,1,.36-.23.67.67,0,0,1,.33.12,3.4,3.4,0,0,0,.53.24,2.06,2.06,0,0,0,.78.13c.59,0,.89-.17.89-.5a.5.5,0,0,0-.3-.45,2.78,2.78,0,0,0-.71-.26c-.27-.07-.55-.16-.83-.26a1.52,1.52,0,0,1-.71-.49,1.27,1.27,0,0,1-.3-.88,1.77,1.77,0,0,1,.52-1.28,2.16,2.16,0,0,1,1.63-.54,3.67,3.67,0,0,1,1.33.23c.38.15.58.34.58.55a1,1,0,0,1-.16.48.48.48,0,0,1-.41.27,2.67,2.67,0,0,1-.52-.15,2.39,2.39,0,0,0-.8-.15,1,1,0,0,0-.62.16.48.48,0,0,0-.22.36.39.39,0,0,0,.22.33,1.73,1.73,0,0,0,.53.2c.22.05.44.11.69.19a4.51,4.51,0,0,1,.67.29,1.36,1.36,0,0,1,.53.51,1.53,1.53,0,0,1,.21.83,1.63,1.63,0,0,1-.58,1.31,2.49,2.49,0,0,1-1.63.47,3.47,3.47,0,0,1-1.54-.31Q356.84,587,356.84,586.62Z"/><path class="cls-4" d="M362.15,585.62v-5.75a.4.4,0,0,1,.24-.34,1.07,1.07,0,0,1,.53-.13,1.09,1.09,0,0,1,.55.13.39.39,0,0,1,.23.33v2h1.42a.34.34,0,0,1,.29.18.83.83,0,0,1,.1.43.85.85,0,0,1-.1.43.34.34,0,0,1-.29.18H363.7v2.5a.62.62,0,0,0,.15.47.79.79,0,0,0,.52.14h.47a.63.63,0,0,1,.49.2.76.76,0,0,1,0,1,.61.61,0,0,1-.49.21h-.47C362.89,587.55,362.15,586.91,362.15,585.62Z"/><path class="cls-4" d="M417.3,434.91v-7.79a.39.39,0,0,1,.23-.36,1.07,1.07,0,0,1,.55-.13,1.11,1.11,0,0,1,.66.16,1.81,1.81,0,0,1,.51.67l2.31,4.47v-4.82a.39.39,0,0,1,.23-.36,1.18,1.18,0,0,1,.55-.12,1.22,1.22,0,0,1,.56.12.38.38,0,0,1,.22.36v7.8a.39.39,0,0,1-.23.36,1.09,1.09,0,0,1-.55.13.94.94,0,0,1-.9-.49l-2.58-4.82v4.82a.39.39,0,0,1-.23.36,1.09,1.09,0,0,1-.55.13,1.07,1.07,0,0,1-.55-.13A.41.41,0,0,1,417.3,434.91Z"/><path class="cls-4" d="M424.17,433.05v-1a2.19,2.19,0,0,1,.77-1.69,2.65,2.65,0,0,1,1.86-.71,2.52,2.52,0,0,1,1.74.65,2.06,2.06,0,0,1,.73,1.62,1.66,1.66,0,0,1-.09.59.56.56,0,0,1-.28.32.87.87,0,0,1-.34.12,2.37,2.37,0,0,1-.41,0h-2.43v.19a1,1,0,0,0,.38.83,1.58,1.58,0,0,0,1,.32,2,2,0,0,0,.9-.23,1.92,1.92,0,0,1,.58-.23.52.52,0,0,1,.42.24.75.75,0,0,1,.16.44c0,.23-.2.45-.6.67a3.58,3.58,0,0,1-3.6-.35A2.2,2.2,0,0,1,424.17,433.05Zm1.55-1h1.75a.45.45,0,0,0,.27-.06.3.3,0,0,0,.08-.24.81.81,0,0,0-.31-.64,1.17,1.17,0,0,0-.75-.25,1.12,1.12,0,0,0-.73.25.75.75,0,0,0-.31.63Z"/><path class="cls-4" d="M430.18,433.48v-5.75a.39.39,0,0,1,.24-.34,1.08,1.08,0,0,1,.53-.14,1.06,1.06,0,0,1,.54.14.38.38,0,0,1,.24.33v2h1.41a.32.32,0,0,1,.29.19.83.83,0,0,1,.11.43.89.89,0,0,1-.11.43.33.33,0,0,1-.29.18h-1.41v2.5a.62.62,0,0,0,.15.47.78.78,0,0,0,.52.13h.47a.57.57,0,0,1,.48.21.67.67,0,0,1,.18.47.69.69,0,0,1-.18.49.6.6,0,0,1-.48.2h-.47Q430.18,435.4,430.18,433.48Z"/><path class="cls-4" d="M433.84,430.28a.52.52,0,0,1,.34-.45,1.29,1.29,0,0,1,.67-.19.42.42,0,0,1,.44.26l1.2,3.4.9-3c.07-.21.24-.31.53-.31s.46.1.53.31l.89,3,1.21-3.42a.42.42,0,0,1,.44-.26,1.38,1.38,0,0,1,.66.19.54.54,0,0,1,.34.46.48.48,0,0,1-.05.22l-1.85,4.75c-.07.18-.28.27-.61.27s-.56-.09-.64-.27l-.92-2.62-.91,2.61c-.07.19-.29.28-.66.28s-.53-.09-.6-.28l-1.85-4.74A.53.53,0,0,1,433.84,430.28Z"/><path class="cls-4" d="M442.46,433.05v-1a2.27,2.27,0,0,1,.76-1.71,2.67,2.67,0,0,1,3.66,0,2.26,2.26,0,0,1,.78,1.72v1a2.32,2.32,0,0,1-.78,1.72,2.61,2.61,0,0,1-3.64,0A2.32,2.32,0,0,1,442.46,433.05Zm1.54,0a1.09,1.09,0,0,0,.32.76,1,1,0,0,0,.74.33,1,1,0,0,0,.74-.33,1.09,1.09,0,0,0,.32-.76v-1a1.08,1.08,0,0,0-.32-.74,1,1,0,0,0-.74-.33,1,1,0,0,0-.74.33,1,1,0,0,0-.32.74Z"/><path class="cls-4" d="M448.65,434.91v-4.73a.41.41,0,0,1,.21-.35,1.08,1.08,0,0,1,.54-.13.87.87,0,0,1,.5.14.39.39,0,0,1,.2.35v.49a2,2,0,0,1,.6-.73,1.4,1.4,0,0,1,.88-.32H452a.51.51,0,0,1,.39.21.71.71,0,0,1,.17.47.72.72,0,0,1-.17.48.51.51,0,0,1-.39.21h-.37a1.24,1.24,0,0,0-1,.49,1.89,1.89,0,0,0-.41,1.28v2.14c0,.12-.08.23-.24.34a1,1,0,0,1-.56.15,1,1,0,0,1-.54-.15A.42.42,0,0,1,448.65,434.91Z"/><path class="cls-4" d="M453.18,434.91v-8.05a.4.4,0,0,1,.21-.35,1,1,0,0,1,.55-.13,1.08,1.08,0,0,1,.56.13.38.38,0,0,1,.23.35v5l2.26-2.13a.47.47,0,0,1,.31-.12.88.88,0,0,1,.76.75.38.38,0,0,1-.14.28L456.51,432l1.76,2.52a.4.4,0,0,1,.09.25.7.7,0,0,1-.3.52.88.88,0,0,1-.58.25.43.43,0,0,1-.38-.21l-1.62-2.38-.75.68v1.32c0,.12-.08.23-.24.34a1,1,0,0,1-.55.15.91.91,0,0,1-.54-.15A.43.43,0,0,1,453.18,434.91Z"/><path class="cls-4" d="M461.6,434.91v-7.8a.45.45,0,0,1,.14-.34.52.52,0,0,1,.36-.14h2.38c1.89,0,2.84.84,2.84,2.51a2.64,2.64,0,0,1-.43,1.58,2.07,2.07,0,0,1-1.14.82l1.57,2.91a.32.32,0,0,1,.06.2.7.7,0,0,1-.31.55,1,1,0,0,1-.66.26.59.59,0,0,1-.54-.37l-1.71-3.31h-1v3.13a.41.41,0,0,1-.23.36,1.07,1.07,0,0,1-.55.13,1.09,1.09,0,0,1-.55-.13A.39.39,0,0,1,461.6,434.91Zm1.56-4.35h1.32a1.28,1.28,0,0,0,0-2.56h-1.32Z"/><path class="cls-4" d="M468,433.05v-1a2.21,2.21,0,0,1,.76-1.69,2.68,2.68,0,0,1,1.86-.71,2.55,2.55,0,0,1,1.75.65,2.09,2.09,0,0,1,.73,1.62,1.66,1.66,0,0,1-.09.59.6.6,0,0,1-.28.32.87.87,0,0,1-.34.12,2.43,2.43,0,0,1-.41,0H469.5v.19a1,1,0,0,0,.39.83,1.54,1.54,0,0,0,1,.32,2,2,0,0,0,.9-.23,1.9,1.9,0,0,1,.57-.23.49.49,0,0,1,.42.24.7.7,0,0,1,.17.44c0,.23-.2.45-.6.67a3.58,3.58,0,0,1-3.6-.35A2.2,2.2,0,0,1,468,433.05Zm1.54-1h1.76a.49.49,0,0,0,.27-.06.3.3,0,0,0,.07-.24.8.8,0,0,0-.3-.64,1.21,1.21,0,0,0-.75-.25,1.1,1.1,0,0,0-.73.25.76.76,0,0,0-.32.63Z"/><path class="cls-4" d="M473.78,433.05v-1a2.54,2.54,0,0,1,.63-1.73,2,2,0,0,1,1.53-.71,1.86,1.86,0,0,1,1.6.92v-.36a.38.38,0,0,1,.21-.35.9.9,0,0,1,.51-.14,1.06,1.06,0,0,1,.53.13.4.4,0,0,1,.22.35v7.38a.45.45,0,0,1-.22.35,1.08,1.08,0,0,1-1.1,0,.45.45,0,0,1-.23-.35v-3a1.64,1.64,0,0,1-.63.68,1.7,1.7,0,0,1-.95.28,1.91,1.91,0,0,1-1.47-.74A2.59,2.59,0,0,1,473.78,433.05Zm1.54,0a1,1,0,0,0,.33.75,1,1,0,0,0,.74.34,1,1,0,0,0,.75-.32.89.89,0,0,0,.32-.56v-1.19a1.06,1.06,0,0,0-1-1.07,1,1,0,0,0-.77.33,1,1,0,0,0-.33.74Z"/><path class="cls-4" d="M480.16,433.08v-2.89a.44.44,0,0,1,.23-.33.94.94,0,0,1,.55-.16.88.88,0,0,1,.53.16q.24.15.24.33v2.88a1,1,0,0,0,.31.74,1,1,0,0,0,.74.33,1,1,0,0,0,.74-.33,1,1,0,0,0,.31-.74v-2.89a.39.39,0,0,1,.23-.33,1,1,0,0,1,.55-.15.94.94,0,0,1,.55.15.42.42,0,0,1,.22.33v2.9a2.3,2.3,0,0,1-.77,1.7,2.54,2.54,0,0,1-1.83.73,2.58,2.58,0,0,1-1.83-.73A2.3,2.3,0,0,1,480.16,433.08Z"/><path class="cls-4" d="M486.29,433.05v-1a2.22,2.22,0,0,1,.77-1.69,2.65,2.65,0,0,1,1.86-.71,2.56,2.56,0,0,1,1.75.65,2.08,2.08,0,0,1,.72,1.62,1.66,1.66,0,0,1-.09.59.58.58,0,0,1-.27.32.91.91,0,0,1-.35.12,2.3,2.3,0,0,1-.4,0h-2.44v.19a1,1,0,0,0,.38.83,1.58,1.58,0,0,0,1,.32,1.94,1.94,0,0,0,.9-.23,1.92,1.92,0,0,1,.58-.23.49.49,0,0,1,.42.24.76.76,0,0,1,.17.44c0,.23-.2.45-.61.67a3.08,3.08,0,0,1-1.5.33,3.17,3.17,0,0,1-2.1-.68A2.2,2.2,0,0,1,486.29,433.05Zm1.55-1h1.75a.45.45,0,0,0,.27-.06.3.3,0,0,0,.08-.24.78.78,0,0,0-.31-.64,1.17,1.17,0,0,0-.75-.25,1.12,1.12,0,0,0-.73.25.75.75,0,0,0-.31.63Z"/><path class="cls-4" d="M492,434.48a.81.81,0,0,1,.15-.45.45.45,0,0,1,.37-.24.61.61,0,0,1,.33.13,3,3,0,0,0,.53.24,2.06,2.06,0,0,0,.78.13c.59,0,.88-.17.88-.51a.5.5,0,0,0-.29-.44,2.92,2.92,0,0,0-.71-.27c-.27-.07-.55-.15-.83-.25a1.69,1.69,0,0,1-.72-.49,1.33,1.33,0,0,1-.29-.88,1.76,1.76,0,0,1,.52-1.28,2.15,2.15,0,0,1,1.63-.54,3.61,3.61,0,0,1,1.32.23c.39.15.59.33.59.55a1,1,0,0,1-.17.48.46.46,0,0,1-.4.27,2.85,2.85,0,0,1-.52-.16,2.67,2.67,0,0,0-.8-.15,1,1,0,0,0-.62.17.45.45,0,0,0-.22.36.38.38,0,0,0,.22.33,2,2,0,0,0,.53.2,5.45,5.45,0,0,1,.68.19,4.2,4.2,0,0,1,.68.28,1.34,1.34,0,0,1,.52.51,1.72,1.72,0,0,1-.37,2.14,2.48,2.48,0,0,1-1.62.48,3.47,3.47,0,0,1-1.54-.31Q492,434.89,492,434.48Z"/><path class="cls-4" d="M497.27,433.48v-5.75a.39.39,0,0,1,.24-.34,1.08,1.08,0,0,1,.53-.14,1.1,1.1,0,0,1,.55.14.38.38,0,0,1,.23.33v2h1.41a.31.31,0,0,1,.29.19.75.75,0,0,1,.11.43.79.79,0,0,1-.11.43.32.32,0,0,1-.29.18h-1.41v2.5a.62.62,0,0,0,.15.47.78.78,0,0,0,.52.13H500a.57.57,0,0,1,.48.21.67.67,0,0,1,.18.47.69.69,0,0,1-.18.49.6.6,0,0,1-.48.2h-.47Q497.27,435.4,497.27,433.48Z"/><path class="cls-4" d="M444.45,447.13v-3.35a2.57,2.57,0,0,1,.77-2.08,2.91,2.91,0,0,1,2-.67,3.24,3.24,0,0,1,2.06.63,2,2,0,0,1,.79,1.65.81.81,0,0,1-.17.61,1,1,0,0,1-.6.16c-.52,0-.78-.16-.78-.49a1.56,1.56,0,0,0,0-.27,1.21,1.21,0,0,0-.09-.3.87.87,0,0,0-.2-.31.89.89,0,0,0-.36-.22,1.6,1.6,0,0,0-.56-.09q-1.26,0-1.26,1.38v3.35c0,.92.43,1.38,1.28,1.38a1.49,1.49,0,0,0,.64-.12.8.8,0,0,0,.38-.34,2.58,2.58,0,0,0,.15-.4,2.34,2.34,0,0,0,.06-.43c0-.32.28-.49.76-.49a1,1,0,0,1,.61.16.81.81,0,0,1,.18.61,2.11,2.11,0,0,1-.79,1.73,3.2,3.2,0,0,1-2.07.65,3,3,0,0,1-2-.67A2.63,2.63,0,0,1,444.45,447.13Z"/><path class="cls-4" d="M451,449.31v-8a.41.41,0,0,1,.21-.35,1.25,1.25,0,0,1,1.11,0,.41.41,0,0,1,.23.35V445a1.56,1.56,0,0,1,.58-.65,1.59,1.59,0,0,1,.93-.27,1.86,1.86,0,0,1,1.45.72,2.56,2.56,0,0,1,.62,1.72v2.84a.4.4,0,0,1-.24.36,1.05,1.05,0,0,1-.54.13,1.08,1.08,0,0,1-.54-.13.41.41,0,0,1-.23-.36v-2.83a1.13,1.13,0,0,0-.31-.75,1,1,0,0,0-.74-.33,1,1,0,0,0-.69.3,1.09,1.09,0,0,0-.29.78v2.83a.45.45,0,0,1-.23.34,1,1,0,0,1-.55.15,1,1,0,0,1-.55-.15A.43.43,0,0,1,451,449.31Z"/><path class="cls-4" d="M457.08,447.45v-1a2.22,2.22,0,0,1,.77-1.69,2.65,2.65,0,0,1,1.86-.71,2.56,2.56,0,0,1,1.75.65,2.08,2.08,0,0,1,.72,1.62,1.66,1.66,0,0,1-.09.59.58.58,0,0,1-.27.32.93.93,0,0,1-.34.12,2.49,2.49,0,0,1-.41,0h-2.44v.19a1,1,0,0,0,.39.83,1.53,1.53,0,0,0,1,.32,2,2,0,0,0,.91-.23,1.8,1.8,0,0,1,.57-.23.49.49,0,0,1,.42.24.77.77,0,0,1,.17.45c0,.22-.2.44-.61.66a3.08,3.08,0,0,1-1.5.33,3.17,3.17,0,0,1-2.1-.68A2.2,2.2,0,0,1,457.08,447.45Zm1.55-1h1.75a.45.45,0,0,0,.27-.06.3.3,0,0,0,.08-.24.78.78,0,0,0-.31-.64,1.17,1.17,0,0,0-.75-.25,1.13,1.13,0,0,0-.73.25.75.75,0,0,0-.31.63Z"/><path class="cls-4" d="M462.91,447.45v-1a2.47,2.47,0,0,1,.65-1.78,2.58,2.58,0,0,1,1.95-.68,2.91,2.91,0,0,1,1.36.29c.37.19.56.41.56.65a.85.85,0,0,1-.18.5.53.53,0,0,1-.44.25,1.67,1.67,0,0,1-.42-.16,1.79,1.79,0,0,0-.76-.16c-.78,0-1.17.36-1.17,1.1v.95c0,.73.39,1.09,1.18,1.09a1.59,1.59,0,0,0,.75-.17,1.47,1.47,0,0,1,.45-.18.57.57,0,0,1,.47.24.78.78,0,0,1,.19.5c0,.24-.2.47-.58.67a2.92,2.92,0,0,1-1.4.31,2.6,2.6,0,0,1-2-.67A2.49,2.49,0,0,1,462.91,447.45Z"/><path class="cls-4" d="M468.33,449.31v-8.05a.4.4,0,0,1,.21-.35,1,1,0,0,1,.54-.13,1.12,1.12,0,0,1,.57.13.39.39,0,0,1,.22.35v5l2.26-2.13a.48.48,0,0,1,.31-.12.75.75,0,0,1,.51.24.73.73,0,0,1,.25.51.45.45,0,0,1-.13.29l-1.42,1.28,1.76,2.52a.4.4,0,0,1,.09.25.7.7,0,0,1-.3.52.88.88,0,0,1-.58.25.43.43,0,0,1-.38-.21l-1.62-2.38-.75.68v1.32c0,.12-.08.23-.24.34a1,1,0,0,1-.55.15,1,1,0,0,1-.54-.15A.42.42,0,0,1,468.33,449.31Z"/><polygon class="cls-6" points="235.46 174.35 235.46 158.41 248.26 166.38 235.46 174.35"/><path class="cls-4" d="M190.26,169.5a1,1,0,0,1,.21-.56.59.59,0,0,1,.47-.28.61.61,0,0,1,.36.15,3.9,3.9,0,0,1,.38.33,1.79,1.79,0,0,0,.54.33,1.87,1.87,0,0,0,.76.15,1.67,1.67,0,0,0,1-.26.89.89,0,0,0,.39-.78,1.07,1.07,0,0,0-.21-.65,1.71,1.71,0,0,0-.56-.46,5.24,5.24,0,0,0-.75-.36l-.82-.39a5.7,5.7,0,0,1-.75-.49,1.82,1.82,0,0,1-.55-.72,2.66,2.66,0,0,1,0-2.16,2,2,0,0,1,.69-.77,3.19,3.19,0,0,1,.93-.4,3.9,3.9,0,0,1,1-.13,5.07,5.07,0,0,1,.66,0c.23,0,.48.08.74.14a1.66,1.66,0,0,1,.64.31.65.65,0,0,1,.24.5,1.13,1.13,0,0,1-.17.55.5.5,0,0,1-.45.28,2,2,0,0,1-.59-.23,2.5,2.5,0,0,0-1.07-.22,1.78,1.78,0,0,0-1,.24.78.78,0,0,0-.35.68.8.8,0,0,0,.28.61,2.4,2.4,0,0,0,.72.42,9.54,9.54,0,0,1,.92.4,10.32,10.32,0,0,1,.93.54,2.25,2.25,0,0,1,.71.83,2.75,2.75,0,0,1,.29,1.28,2.35,2.35,0,0,1-.79,1.9A3.05,3.05,0,0,1,193,171a3.92,3.92,0,0,1-2-.47Q190.26,170.06,190.26,169.5Z"/><path class="cls-4" d="M196.38,162.79a1,1,0,0,1,.12-.48.43.43,0,0,1,.37-.2H202a.4.4,0,0,1,.36.2.86.86,0,0,1,.13.48.84.84,0,0,1-.13.48.41.41,0,0,1-.36.21h-1.76v6.91a.39.39,0,0,1-.23.36,1.07,1.07,0,0,1-.55.13,1.09,1.09,0,0,1-.55-.13.4.4,0,0,1-.22-.36v-6.91h-1.77a.42.42,0,0,1-.36-.2A.85.85,0,0,1,196.38,162.79Z"/><path class="cls-4" d="M201.8,170.19s0-.06,0-.13l2.32-7.55a.6.6,0,0,1,.35-.35,1.67,1.67,0,0,1,.65-.12,1.47,1.47,0,0,1,.64.13.62.62,0,0,1,.36.39l2.32,7.55a.43.43,0,0,1,0,.12.53.53,0,0,1-.32.46,1.28,1.28,0,0,1-.66.19c-.3,0-.47-.1-.53-.31l-.45-1.6h-2.58l-.44,1.6c-.07.21-.26.31-.6.31a1.56,1.56,0,0,1-.75-.2A.58.58,0,0,1,201.8,170.19Zm2.49-2.44h2.07l-1-3.69Z"/><path class="cls-4" d="M209.49,170.39v-7.8a.46.46,0,0,1,.15-.34.51.51,0,0,1,.36-.14h2.37c1.9,0,2.85.84,2.85,2.51a2.64,2.64,0,0,1-.43,1.58,2.12,2.12,0,0,1-1.14.82l1.57,2.91a.29.29,0,0,1,.06.19.71.71,0,0,1-.31.56,1,1,0,0,1-.66.26.58.58,0,0,1-.54-.37l-1.71-3.31h-1v3.13a.41.41,0,0,1-.23.36,1.23,1.23,0,0,1-1.1,0A.4.4,0,0,1,209.49,170.39Zm1.57-4.36h1.31a1.28,1.28,0,1,0,0-2.55h-1.31Z"/><path class="cls-4" d="M215.66,162.79a.86.86,0,0,1,.13-.48.4.4,0,0,1,.36-.2h5.08a.43.43,0,0,1,.37.2,1,1,0,0,1,.12.48.84.84,0,0,1-.13.48.41.41,0,0,1-.36.21h-1.75v6.91a.4.4,0,0,1-.24.36,1,1,0,0,1-.54.13,1,1,0,0,1-.55-.13.39.39,0,0,1-.23-.36v-6.91h-1.77a.39.39,0,0,1-.35-.2A.86.86,0,0,1,215.66,162.79Z"/><path class="cls-4" d="M153.36,338.81a1,1,0,0,1,.21-.56A.61.61,0,0,1,154,338a.61.61,0,0,1,.36.15,3.9,3.9,0,0,1,.38.33,1.79,1.79,0,0,0,.54.33,1.87,1.87,0,0,0,.76.15,1.67,1.67,0,0,0,1-.26.89.89,0,0,0,.39-.78,1,1,0,0,0-.21-.64,1.68,1.68,0,0,0-.55-.47,6.53,6.53,0,0,0-.75-.36c-.28-.12-.55-.25-.83-.39a5.7,5.7,0,0,1-.75-.49,1.92,1.92,0,0,1-.55-.72,2.38,2.38,0,0,1-.21-1,2.45,2.45,0,0,1,.25-1.14,2.07,2.07,0,0,1,.69-.77,3.19,3.19,0,0,1,.93-.4,3.9,3.9,0,0,1,1-.13,5.07,5.07,0,0,1,.66,0c.23,0,.48.08.74.14a1.66,1.66,0,0,1,.64.31.65.65,0,0,1,.24.5,1,1,0,0,1-.17.55.5.5,0,0,1-.45.28,2.21,2.21,0,0,1-.59-.22,2.36,2.36,0,0,0-1.07-.23,1.78,1.78,0,0,0-1,.24.78.78,0,0,0-.35.68.8.8,0,0,0,.28.61,2.4,2.4,0,0,0,.72.42,9.8,9.8,0,0,1,.92.41,8.33,8.33,0,0,1,.93.53,2.25,2.25,0,0,1,.71.83,2.75,2.75,0,0,1,.29,1.28,2.34,2.34,0,0,1-.79,1.9,3.05,3.05,0,0,1-2.07.67,3.86,3.86,0,0,1-1.95-.47C153.63,339.52,153.36,339.18,153.36,338.81Z"/><path class="cls-4" d="M159.72,337.84v-1a2.22,2.22,0,0,1,.77-1.69,2.65,2.65,0,0,1,1.86-.71,2.52,2.52,0,0,1,1.74.65,2.06,2.06,0,0,1,.73,1.62,1.61,1.61,0,0,1-.09.58.55.55,0,0,1-.28.33.82.82,0,0,1-.34.12,2.37,2.37,0,0,1-.41,0h-2.43v.18a1,1,0,0,0,.38.84,1.58,1.58,0,0,0,1,.32,2,2,0,0,0,.9-.23,1.92,1.92,0,0,1,.58-.23.51.51,0,0,1,.42.23.82.82,0,0,1,.17.45c0,.23-.21.45-.61.67a3.12,3.12,0,0,1-1.51.33,3.16,3.16,0,0,1-2.09-.68A2.2,2.2,0,0,1,159.72,337.84Zm1.55-1H163a.45.45,0,0,0,.27-.06.3.3,0,0,0,.08-.24.78.78,0,0,0-.31-.64,1.17,1.17,0,0,0-.75-.25,1.12,1.12,0,0,0-.73.25.75.75,0,0,0-.31.63Z"/><path class="cls-4" d="M165.55,337.84v-1a2.47,2.47,0,0,1,.65-1.78,2.57,2.57,0,0,1,1.94-.68,3,3,0,0,1,1.37.29c.37.19.55.41.55.65a.88.88,0,0,1-.18.5.51.51,0,0,1-.43.25A1.68,1.68,0,0,1,169,336a1.76,1.76,0,0,0-.76-.16c-.77,0-1.16.36-1.16,1.09v1c0,.73.39,1.09,1.17,1.09a1.73,1.73,0,0,0,.76-.17,1.38,1.38,0,0,1,.45-.18.58.58,0,0,1,.47.24.84.84,0,0,1,.19.5c0,.24-.2.47-.59.67a2.9,2.9,0,0,1-1.4.31,2.58,2.58,0,0,1-2-.67A2.49,2.49,0,0,1,165.55,337.84Z"/><path class="cls-4" d="M170.89,337.86V335q0-.18.24-.33a.89.89,0,0,1,.54-.16.88.88,0,0,1,.53.16q.24.15.24.33v2.88a1,1,0,0,0,.31.74,1,1,0,0,0,.74.33,1,1,0,0,0,.74-.33,1,1,0,0,0,.31-.74V335a.39.39,0,0,1,.23-.33,1,1,0,0,1,.55-.15.94.94,0,0,1,.55.15.38.38,0,0,1,.22.33v2.89a2.31,2.31,0,0,1-.77,1.71,2.65,2.65,0,0,1-3.65,0A2.28,2.28,0,0,1,170.89,337.86Z"/><path class="cls-4" d="M177.24,339.7V335a.41.41,0,0,1,.21-.35,1.09,1.09,0,0,1,.55-.13.86.86,0,0,1,.49.14.38.38,0,0,1,.2.35v.49a2,2,0,0,1,.6-.73,1.42,1.42,0,0,1,.88-.32h.37a.51.51,0,0,1,.39.21.67.67,0,0,1,.17.47.69.69,0,0,1-.17.48.51.51,0,0,1-.39.21h-.37a1.24,1.24,0,0,0-1,.49,2,2,0,0,0-.41,1.28v2.14c0,.12-.08.23-.24.34a1,1,0,0,1-.55.15.91.91,0,0,1-.54-.15A.41.41,0,0,1,177.24,339.7Z"/><path class="cls-4" d="M181.68,332.54a.59.59,0,0,1,.26-.49,1,1,0,0,1,.62-.2.84.84,0,0,1,.57.2.63.63,0,0,1,.24.49.59.59,0,0,1-.24.47.8.8,0,0,1-.57.21.91.91,0,0,1-.62-.21A.56.56,0,0,1,181.68,332.54Zm.14,7.16V335a.41.41,0,0,1,.21-.35,1.06,1.06,0,0,1,.53-.13,1.08,1.08,0,0,1,.54.13.41.41,0,0,1,.21.35v4.73a.43.43,0,0,1-.22.34.94.94,0,0,1-.53.15A.86.86,0,0,1,182,340,.43.43,0,0,1,181.82,339.7Z"/><path class="cls-4" d="M184.5,338.27v-5.75a.39.39,0,0,1,.24-.34,1.08,1.08,0,0,1,.53-.14,1,1,0,0,1,.54.14.38.38,0,0,1,.24.33v2h1.41a.33.33,0,0,1,.29.18.89.89,0,0,1,.11.43.83.83,0,0,1-.11.43.32.32,0,0,1-.29.19h-1.41v2.5a.62.62,0,0,0,.15.47.78.78,0,0,0,.52.13h.47a.57.57,0,0,1,.48.21.67.67,0,0,1,.18.47.71.71,0,0,1-.18.49.6.6,0,0,1-.48.2h-.47Q184.5,340.19,184.5,338.27Z"/><path class="cls-4" d="M188.15,342.15c0-.45.13-.67.39-.67a1.84,1.84,0,0,0,1.11-.41,1.69,1.69,0,0,0,.61-1.34l-2.06-4.38a.45.45,0,0,1,0-.2.66.66,0,0,1,.35-.52,1.27,1.27,0,0,1,.68-.22c.24,0,.39.09.44.26l1.44,3.56,1.17-3.56a.38.38,0,0,1,.41-.26,1.37,1.37,0,0,1,.68.23.63.63,0,0,1,.37.53.57.57,0,0,1,0,.18l-1.76,4.48-.2.53-.21.56c0,.11-.12.27-.23.49a2.29,2.29,0,0,1-.29.48c-.08.1-.2.22-.35.37a1.65,1.65,0,0,1-.46.33l-.57.18a3.41,3.41,0,0,1-.73.07.86.86,0,0,1-.53-.13A.69.69,0,0,1,188.15,342.15Z"/><path class="cls-4" d="M196.3,332.07a.52.52,0,0,1,.31-.46,1.29,1.29,0,0,1,.67-.19c.3,0,.47.1.53.31l1.83,6.51,1.83-6.51c.05-.21.23-.31.53-.31a1.28,1.28,0,0,1,.66.19.55.55,0,0,1,.32.46l0,.12-2.31,7.55a.68.68,0,0,1-.36.39,1.51,1.51,0,0,1-.65.13c-.55,0-.88-.17-1-.52l-2.32-7.55A.43.43,0,0,1,196.3,332.07Z"/><path class="cls-4" d="M203.22,337.86V335a.42.42,0,0,1,.23-.33.94.94,0,0,1,.55-.16.88.88,0,0,1,.53.16q.24.15.24.33v2.88a1,1,0,0,0,.31.74,1,1,0,0,0,.74.33,1,1,0,0,0,.74-.33,1,1,0,0,0,.31-.74V335a.39.39,0,0,1,.23-.33,1,1,0,0,1,.55-.15.94.94,0,0,1,.55.15.4.4,0,0,1,.22.33v2.89a2.31,2.31,0,0,1-.77,1.71,2.54,2.54,0,0,1-1.83.73,2.58,2.58,0,0,1-1.83-.73A2.31,2.31,0,0,1,203.22,337.86Z"/><path class="cls-4" d="M209.68,339.7v-8.05a.4.4,0,0,1,.21-.35,1,1,0,0,1,.55-.13,1.1,1.1,0,0,1,.56.13.39.39,0,0,1,.22.35v8.05a.42.42,0,0,1-.23.34,1,1,0,0,1-.55.15,1,1,0,0,1-.54-.15A.41.41,0,0,1,209.68,339.7Z"/><path class="cls-4" d="M212.53,339.7V335a.41.41,0,0,1,.21-.35,1.13,1.13,0,0,1,.56-.13.88.88,0,0,1,.49.14.39.39,0,0,1,.19.35v.36a1.61,1.61,0,0,1,.62-.65,1.84,1.84,0,0,1,1-.27,1.86,1.86,0,0,1,1.45.72,2.56,2.56,0,0,1,.62,1.72v2.84a.4.4,0,0,1-.24.36,1.05,1.05,0,0,1-.54.13,1.08,1.08,0,0,1-.54-.13.41.41,0,0,1-.23-.36v-2.83a1.1,1.1,0,0,0-.31-.75,1,1,0,0,0-.74-.33,1,1,0,0,0-.69.3,1.09,1.09,0,0,0-.29.78v2.83a.45.45,0,0,1-.23.34,1,1,0,0,1-.55.15,1,1,0,0,1-.55-.15A.43.43,0,0,1,212.53,339.7Z"/><path class="cls-4" d="M218.59,337.84v-1a2.22,2.22,0,0,1,.77-1.69,2.65,2.65,0,0,1,1.86-.71,2.56,2.56,0,0,1,1.75.65,2.08,2.08,0,0,1,.72,1.62,1.61,1.61,0,0,1-.09.58.57.57,0,0,1-.27.33.91.91,0,0,1-.35.12,2.3,2.3,0,0,1-.4,0h-2.44v.18a1,1,0,0,0,.38.84,1.58,1.58,0,0,0,1,.32,1.94,1.94,0,0,0,.9-.23,1.92,1.92,0,0,1,.58-.23.51.51,0,0,1,.42.23.82.82,0,0,1,.17.45c0,.23-.2.45-.61.67a3.08,3.08,0,0,1-1.5.33,3.17,3.17,0,0,1-2.1-.68A2.2,2.2,0,0,1,218.59,337.84Zm1.55-1h1.75a.45.45,0,0,0,.27-.06.3.3,0,0,0,.08-.24.78.78,0,0,0-.31-.64,1.17,1.17,0,0,0-.75-.25,1.12,1.12,0,0,0-.73.25.75.75,0,0,0-.31.63Z"/><path class="cls-4" d="M224.62,339.7V335a.41.41,0,0,1,.21-.35,1.08,1.08,0,0,1,.54-.13.87.87,0,0,1,.5.14.39.39,0,0,1,.2.35v.49a2,2,0,0,1,.6-.73,1.4,1.4,0,0,1,.87-.32h.38a.51.51,0,0,1,.39.21.71.71,0,0,1,.17.47.74.74,0,0,1-.17.48.51.51,0,0,1-.39.21h-.38a1.22,1.22,0,0,0-1,.49,1.9,1.9,0,0,0-.42,1.28v2.14c0,.12-.08.23-.24.34a1,1,0,0,1-.55.15,1,1,0,0,1-.54-.15A.42.42,0,0,1,224.62,339.7Z"/><path class="cls-4" d="M228.8,338.66a1.37,1.37,0,0,1,.72-1.33,4.47,4.47,0,0,1,2.08-.39h.49v-.16a1.26,1.26,0,0,0-.26-.8.94.94,0,0,0-.79-.34,1.94,1.94,0,0,0-.93.21,2.13,2.13,0,0,1-.44.2.45.45,0,0,1-.39-.24,1,1,0,0,1-.14-.53c0-.23.21-.43.62-.6a3.39,3.39,0,0,1,1.3-.26,2.54,2.54,0,0,1,1.94.67,2.29,2.29,0,0,1,.64,1.67v2.94a.41.41,0,0,1-.22.35,1,1,0,0,1-.54.14.77.77,0,0,1-.49-.15.44.44,0,0,1-.2-.37v-.38a2.37,2.37,0,0,1-1.83,1,1.56,1.56,0,0,1-1.12-.42A1.63,1.63,0,0,1,228.8,338.66Zm1.55-.2a.56.56,0,0,0,.18.46.63.63,0,0,0,.46.16,1.12,1.12,0,0,0,.74-.34,1,1,0,0,0,.36-.76v-.24h-.18a3.41,3.41,0,0,0-1.14.15A.55.55,0,0,0,230.35,338.46Z"/><path class="cls-4" d="M234.81,339.7v-8a.39.39,0,0,1,.21-.35,1,1,0,0,1,.54-.13,1.08,1.08,0,0,1,.56.13.39.39,0,0,1,.23.35v3.68a1.72,1.72,0,0,1,.61-.65,1.64,1.64,0,0,1,.93-.27,2,2,0,0,1,1.51.72,2.56,2.56,0,0,1,.62,1.72v1a2.59,2.59,0,0,1-.63,1.72,1.91,1.91,0,0,1-1.46.74,1.88,1.88,0,0,1-1-.28,1.65,1.65,0,0,1-.66-.68v.36a.45.45,0,0,1-.21.34.84.84,0,0,1-.49.15A.93.93,0,0,1,235,340,.42.42,0,0,1,234.81,339.7Zm1.54-1.65a.91.91,0,0,0,.33.56,1.06,1.06,0,0,0,.75.32.94.94,0,0,0,.73-.34,1.08,1.08,0,0,0,.32-.75v-1a1,1,0,0,0-.32-.74,1,1,0,0,0-.74-.33,1.08,1.08,0,0,0-.74.3,1,1,0,0,0-.33.77Z"/><path class="cls-4" d="M240.94,332.54a.61.61,0,0,1,.25-.49,1,1,0,0,1,.63-.2.88.88,0,0,1,.57.2.63.63,0,0,1,.24.49.59.59,0,0,1-.24.47.84.84,0,0,1-.57.21,1,1,0,0,1-.63-.21A.58.58,0,0,1,240.94,332.54Zm.14,7.16V335a.41.41,0,0,1,.21-.35,1,1,0,0,1,.53-.13,1.13,1.13,0,0,1,.54.13.41.41,0,0,1,.21.35v4.73a.45.45,0,0,1-.23.34.91.91,0,0,1-.52.15.92.92,0,0,1-.53-.15A.42.42,0,0,1,241.08,339.7Z"/><path class="cls-4" d="M243.88,339.7v-8.05a.4.4,0,0,1,.21-.35,1,1,0,0,1,.55-.13,1.1,1.1,0,0,1,.56.13.39.39,0,0,1,.22.35v8.05a.42.42,0,0,1-.23.34,1,1,0,0,1-.55.15,1,1,0,0,1-.54-.15A.41.41,0,0,1,243.88,339.7Z"/><path class="cls-4" d="M246.65,332.54a.61.61,0,0,1,.25-.49,1,1,0,0,1,.63-.2.84.84,0,0,1,.57.2.63.63,0,0,1,.24.49.59.59,0,0,1-.24.47.8.8,0,0,1-.57.21,1,1,0,0,1-.63-.21A.58.58,0,0,1,246.65,332.54Zm.14,7.16V335a.41.41,0,0,1,.21-.35,1,1,0,0,1,.53-.13,1.11,1.11,0,0,1,.54.13.41.41,0,0,1,.21.35v4.73a.43.43,0,0,1-.22.34.94.94,0,0,1-.53.15A.86.86,0,0,1,247,340,.41.41,0,0,1,246.79,339.7Z"/><path class="cls-4" d="M249.47,338.27v-5.75a.39.39,0,0,1,.24-.34,1.09,1.09,0,0,1,1.07,0,.38.38,0,0,1,.24.33v2h1.41a.33.33,0,0,1,.29.18.89.89,0,0,1,.11.43.83.83,0,0,1-.11.43.32.32,0,0,1-.29.19H251v2.5a.62.62,0,0,0,.15.47.78.78,0,0,0,.52.13h.47a.59.59,0,0,1,.48.21.67.67,0,0,1,.18.47.71.71,0,0,1-.18.49.61.61,0,0,1-.48.2h-.47Q249.47,340.19,249.47,338.27Z"/><path class="cls-4" d="M253.12,342.15c0-.45.13-.67.39-.67a1.84,1.84,0,0,0,1.11-.41,1.69,1.69,0,0,0,.61-1.34l-2.07-4.38a.58.58,0,0,1,0-.2.64.64,0,0,1,.35-.52,1.27,1.27,0,0,1,.68-.22c.24,0,.39.09.44.26l1.44,3.56,1.17-3.56a.37.37,0,0,1,.4-.26,1.37,1.37,0,0,1,.69.23.63.63,0,0,1,.37.53.39.39,0,0,1,0,.18l-1.75,4.48-.2.53-.21.56c0,.11-.12.27-.23.49a2.29,2.29,0,0,1-.29.48c-.08.1-.2.22-.35.37a1.65,1.65,0,0,1-.46.33l-.57.18a3.45,3.45,0,0,1-.74.07.85.85,0,0,1-.52-.13A.69.69,0,0,1,253.12,342.15Z"/><path class="cls-4" d="M191.65,351.92v-3.35a2.6,2.6,0,0,1,.76-2.08,2.94,2.94,0,0,1,2-.67,3.3,3.3,0,0,1,2.06.62,2,2,0,0,1,.79,1.66.81.81,0,0,1-.18.61.94.94,0,0,1-.6.16c-.51,0-.77-.16-.78-.49a1.7,1.7,0,0,0,0-.27,1.21,1.21,0,0,0-.09-.3,1,1,0,0,0-.2-.31.89.89,0,0,0-.36-.22,1.6,1.6,0,0,0-.56-.09q-1.26,0-1.26,1.38v3.35c0,.92.42,1.38,1.28,1.38a1.49,1.49,0,0,0,.64-.12.74.74,0,0,0,.37-.35,1.69,1.69,0,0,0,.16-.39,1.75,1.75,0,0,0,.05-.43c0-.33.28-.49.77-.49a1,1,0,0,1,.61.16.81.81,0,0,1,.18.61,2.13,2.13,0,0,1-.79,1.73,3.22,3.22,0,0,1-2.07.65,3,3,0,0,1-2-.67A2.63,2.63,0,0,1,191.65,351.92Z"/><path class="cls-4" d="M198.22,354.1v-8a.41.41,0,0,1,.21-.35,1,1,0,0,1,.56-.13,1.07,1.07,0,0,1,.55.13.41.41,0,0,1,.23.35v3.68a1.5,1.5,0,0,1,.58-.65,1.59,1.59,0,0,1,.93-.27,1.88,1.88,0,0,1,1.45.72,2.56,2.56,0,0,1,.62,1.72v2.84a.4.4,0,0,1-.24.36,1.09,1.09,0,0,1-.55.13,1,1,0,0,1-.53-.13.39.39,0,0,1-.23-.36v-2.83a1.1,1.1,0,0,0-.32-.75,1,1,0,0,0-.73-.33,1,1,0,0,0-.69.3,1.09,1.09,0,0,0-.29.78v2.83c0,.12-.08.23-.24.34a1,1,0,0,1-.54.15,1,1,0,0,1-.55-.15A.41.41,0,0,1,198.22,354.1Z"/><path class="cls-4" d="M204.28,352.24v-1a2.22,2.22,0,0,1,.77-1.69,2.65,2.65,0,0,1,1.86-.71,2.52,2.52,0,0,1,1.74.65,2.06,2.06,0,0,1,.73,1.62,1.57,1.57,0,0,1-.09.58.57.57,0,0,1-.27.33.91.91,0,0,1-.35.12,2.3,2.3,0,0,1-.4,0h-2.44v.19a1,1,0,0,0,.38.83,1.58,1.58,0,0,0,1,.32,1.94,1.94,0,0,0,.9-.23,1.92,1.92,0,0,1,.58-.23.51.51,0,0,1,.42.23.82.82,0,0,1,.17.46c0,.22-.2.44-.61.66a3.11,3.11,0,0,1-1.5.33,3.17,3.17,0,0,1-2.1-.68A2.2,2.2,0,0,1,204.28,352.24Zm1.55-1h1.75a.45.45,0,0,0,.27-.06.3.3,0,0,0,.08-.24.78.78,0,0,0-.31-.64,1.17,1.17,0,0,0-.75-.25,1.12,1.12,0,0,0-.73.25.75.75,0,0,0-.31.63Z"/><path class="cls-4" d="M210.11,352.24v-1a2.47,2.47,0,0,1,.65-1.78,2.57,2.57,0,0,1,1.94-.68,3,3,0,0,1,1.37.29c.37.19.55.41.55.65a.88.88,0,0,1-.18.5.51.51,0,0,1-.43.25,1.54,1.54,0,0,1-.42-.16,1.8,1.8,0,0,0-.77-.16c-.77,0-1.16.36-1.16,1.09v1c0,.73.39,1.09,1.18,1.09a1.72,1.72,0,0,0,.75-.17A1.38,1.38,0,0,1,214,353a.57.57,0,0,1,.47.24.84.84,0,0,1,.19.5c0,.24-.2.47-.59.67a2.86,2.86,0,0,1-1.39.31,2.59,2.59,0,0,1-2-.67A2.49,2.49,0,0,1,210.11,352.24Z"/><path class="cls-4" d="M215.52,354.1v-8.05a.4.4,0,0,1,.21-.35,1,1,0,0,1,.55-.13,1.08,1.08,0,0,1,.56.13.38.38,0,0,1,.23.35v5l2.26-2.13a.47.47,0,0,1,.31-.12.75.75,0,0,1,.51.24.73.73,0,0,1,.25.51.42.42,0,0,1-.14.29l-1.41,1.28,1.76,2.52a.4.4,0,0,1,.09.25.7.7,0,0,1-.3.52.93.93,0,0,1-.58.25.43.43,0,0,1-.38-.21l-1.62-2.38-.75.68v1.32c0,.12-.08.23-.24.34a1,1,0,0,1-.55.15.91.91,0,0,1-.54-.15A.43.43,0,0,1,215.52,354.1Z"/><path class="cls-4" d="M303.53,203.43v-7.78a.39.39,0,0,1,.21-.36.83.83,0,0,1,.48-.14h4.27a.42.42,0,0,1,.37.21.89.89,0,0,1,.12.47.88.88,0,0,1-.13.49.42.42,0,0,1-.36.2h-3.4v2.4h1.83a.41.41,0,0,1,.36.19.79.79,0,0,1,.13.44.67.67,0,0,1-.13.41.41.41,0,0,1-.36.19h-1.83v2.41h3.4a.42.42,0,0,1,.36.2.88.88,0,0,1,.13.49.89.89,0,0,1-.12.47.42.42,0,0,1-.37.21h-4.27a.83.83,0,0,1-.48-.14A.39.39,0,0,1,303.53,203.43Z"/><path class="cls-4" d="M309.77,203.43v-4.72a.4.4,0,0,1,.21-.35,1,1,0,0,1,.56-.13.85.85,0,0,1,.49.13.42.42,0,0,1,.2.35v.36a1.64,1.64,0,0,1,.61-.65,1.87,1.87,0,0,1,2.44.45,2.58,2.58,0,0,1,.62,1.72v2.84a.38.38,0,0,1-.24.36,1,1,0,0,1-.54.14,1.09,1.09,0,0,1-.54-.14.39.39,0,0,1-.23-.35V200.6a1.05,1.05,0,0,0-.31-.75,1,1,0,0,0-.73-.33.92.92,0,0,0-.69.3,1.06,1.06,0,0,0-.3.78v2.84a.44.44,0,0,1-.23.33,1,1,0,0,1-.55.16.93.93,0,0,1-.54-.15A.44.44,0,0,1,309.77,203.43Z"/><path class="cls-4" d="M315.63,204.89a1.38,1.38,0,0,1,.88-1.28.79.79,0,0,1-.51-.76,1.15,1.15,0,0,1,.61-.94,1.84,1.84,0,0,1-.74-1.52v-.26a1.78,1.78,0,0,1,.65-1.42,2.5,2.5,0,0,1,1.69-.56,2.63,2.63,0,0,1,1.37.35c.24-.54.48-.81.73-.81a.63.63,0,0,1,.44.15.43.43,0,0,1,.17.33.4.4,0,0,1-.19.33,3,3,0,0,0-.56.46,1.75,1.75,0,0,1,.42,1.17v.26a1.82,1.82,0,0,1-.67,1.43,2.52,2.52,0,0,1-1.71.57,2.67,2.67,0,0,1-.78-.11.31.31,0,0,0-.14.24c0,.14.12.24.37.3a5.9,5.9,0,0,0,.9.16,10.05,10.05,0,0,1,1.07.2,1.77,1.77,0,0,1,.9.51,1.4,1.4,0,0,1,.37,1,1.54,1.54,0,0,1-.76,1.41,3.38,3.38,0,0,1-1.86.48,3.56,3.56,0,0,1-1.88-.46A1.38,1.38,0,0,1,315.63,204.89Zm1.46-.16a.72.72,0,0,0,.34.62,1.38,1.38,0,0,0,.83.23,1.3,1.3,0,0,0,.81-.23.7.7,0,0,0,.33-.61.65.65,0,0,0-.06-.29.43.43,0,0,0-.21-.21l-.27-.14a1.24,1.24,0,0,0-.36-.1l-.37-.05-.39,0A.93.93,0,0,0,317.09,204.73Zm.28-4.36a1.29,1.29,0,0,0,.23.78.74.74,0,0,0,.63.3.73.73,0,0,0,.63-.29,1.24,1.24,0,0,0,.23-.77v-.26a1.15,1.15,0,0,0-.24-.74.74.74,0,0,0-.63-.3.75.75,0,0,0-.62.29,1.22,1.22,0,0,0-.23.75Z"/><path class="cls-4" d="M321.61,196.27a.58.58,0,0,1,.25-.48,1,1,0,0,1,.63-.2.83.83,0,0,1,.57.2.6.6,0,0,1,.24.48.63.63,0,0,1-.24.48.88.88,0,0,1-.57.2,1,1,0,0,1-.63-.2A.61.61,0,0,1,321.61,196.27Zm.14,7.16v-4.72a.4.4,0,0,1,.21-.35,1,1,0,0,1,.53-.13,1,1,0,0,1,.53.13.39.39,0,0,1,.22.35v4.72a.43.43,0,0,1-.23.34,1,1,0,0,1-1.05,0A.43.43,0,0,1,321.75,203.43Z"/><path class="cls-4" d="M324.44,203.43v-4.72a.4.4,0,0,1,.21-.35,1,1,0,0,1,.56-.13.82.82,0,0,1,.48.13.42.42,0,0,1,.2.35v.36a1.67,1.67,0,0,1,.62-.65,1.79,1.79,0,0,1,1-.27,1.85,1.85,0,0,1,1.44.72,2.53,2.53,0,0,1,.62,1.72v2.84a.39.39,0,0,1-.23.36,1.1,1.1,0,0,1-.55.14,1,1,0,0,1-.53-.14.38.38,0,0,1-.24-.35V200.6a1.05,1.05,0,0,0-.31-.75,1,1,0,0,0-.73-.33,1,1,0,0,0-.69.3,1,1,0,0,0-.29.78v2.84a.43.43,0,0,1-.24.33,1,1,0,0,1-.54.16,1,1,0,0,1-.55-.15A.42.42,0,0,1,324.44,203.43Z"/><path class="cls-4" d="M330.5,201.57v-1a2.2,2.2,0,0,1,.77-1.69,2.65,2.65,0,0,1,1.86-.71,2.52,2.52,0,0,1,1.74.65,2.06,2.06,0,0,1,.73,1.62,1.66,1.66,0,0,1-.09.59.56.56,0,0,1-.28.32.87.87,0,0,1-.34.12,2.22,2.22,0,0,1-.41,0h-2.43v.18a1,1,0,0,0,.38.83,1.58,1.58,0,0,0,1,.32,2,2,0,0,0,.9-.23,1.92,1.92,0,0,1,.58-.23.52.52,0,0,1,.42.24.75.75,0,0,1,.16.45q0,.33-.6.66a3.6,3.6,0,0,1-3.6-.34A2.23,2.23,0,0,1,330.5,201.57Zm1.55-1h1.75a.44.44,0,0,0,.27-.07.3.3,0,0,0,.08-.24.81.81,0,0,0-.31-.64,1.26,1.26,0,0,0-1.48,0,.75.75,0,0,0-.31.63Z"/><path class="cls-4" d="M339,203.43v-7.5a.74.74,0,0,1,.22-.58.83.83,0,0,1,.56-.2,1.3,1.3,0,0,1,.69.16,1.9,1.9,0,0,1,.52.67l1.48,2.69L344,196a1.9,1.9,0,0,1,.53-.67,1.3,1.3,0,0,1,.69-.16.83.83,0,0,1,.56.2.71.71,0,0,1,.22.58v7.5a.39.39,0,0,1-.23.36,1.1,1.1,0,0,1-.55.14,1,1,0,0,1-.55-.14.39.39,0,0,1-.23-.36v-5.16l-1.4,2.5a.56.56,0,0,1-.53.31.55.55,0,0,1-.52-.31l-1.38-2.59v5.25a.39.39,0,0,1-.23.36,1.1,1.1,0,0,1-.55.14,1.07,1.07,0,0,1-.55-.14A.39.39,0,0,1,339,203.43Z"/><path class="cls-4" d="M347,202.39a1.38,1.38,0,0,1,.72-1.33,4.47,4.47,0,0,1,2.08-.39h.49v-.16a1.21,1.21,0,0,0-.26-.79.91.91,0,0,0-.79-.34,2.06,2.06,0,0,0-.93.2,2.12,2.12,0,0,1-.44.21.45.45,0,0,1-.39-.24,1.08,1.08,0,0,1-.14-.53c0-.23.21-.44.62-.61a3.35,3.35,0,0,1,1.3-.26,2.58,2.58,0,0,1,1.94.67,2.29,2.29,0,0,1,.64,1.67v2.94a.4.4,0,0,1-.22.35.91.91,0,0,1-.54.15.78.78,0,0,1-.49-.16.44.44,0,0,1-.2-.37V203a2.35,2.35,0,0,1-1.83,1,1.56,1.56,0,0,1-1.12-.42A1.63,1.63,0,0,1,347,202.39Zm1.55-.19a.59.59,0,0,0,.18.46.67.67,0,0,0,.46.15,1.07,1.07,0,0,0,.74-.34,1,1,0,0,0,.36-.75v-.24h-.18a3.74,3.74,0,0,0-1.14.14A.56.56,0,0,0,348.52,202.2Z"/><path class="cls-4" d="M353,203.43v-4.72a.4.4,0,0,1,.21-.35,1,1,0,0,1,.56-.13.88.88,0,0,1,.49.13.41.41,0,0,1,.19.35v.36a1.74,1.74,0,0,1,.62-.65,1.84,1.84,0,0,1,1-.27,1.86,1.86,0,0,1,1.45.72,2.58,2.58,0,0,1,.62,1.72v2.84a.38.38,0,0,1-.24.36,1.06,1.06,0,0,1-.54.14,1.09,1.09,0,0,1-.54-.14.39.39,0,0,1-.23-.35V200.6a1.1,1.1,0,0,0-.31-.75,1,1,0,0,0-.74-.33,1,1,0,0,0-.69.3,1.09,1.09,0,0,0-.29.78v2.84a.44.44,0,0,1-.23.33,1,1,0,0,1-.55.16,1,1,0,0,1-.55-.15A.45.45,0,0,1,353,203.43Z"/><path class="cls-4" d="M359.15,196.27a.59.59,0,0,1,.26-.48,1,1,0,0,1,.63-.2.83.83,0,0,1,.57.2.6.6,0,0,1,.24.48.63.63,0,0,1-.24.48.88.88,0,0,1-.57.2,1,1,0,0,1-.63-.2A.62.62,0,0,1,359.15,196.27Zm.15,7.16v-4.72a.4.4,0,0,1,.21-.35.93.93,0,0,1,.53-.13,1,1,0,0,1,.53.13.39.39,0,0,1,.22.35v4.72a.43.43,0,0,1-.23.34.91.91,0,0,1-.52.16.9.9,0,0,1-.53-.15A.43.43,0,0,1,359.3,203.43Z"/><path class="cls-4" d="M362,203.44v-6.23a2.4,2.4,0,0,1,.62-1.69,2,2,0,0,1,1.49-.68h.71a.52.52,0,0,1,.43.2.82.82,0,0,1,0,1,.52.52,0,0,1-.43.2h-.39a.89.89,0,0,0-.64.24.86.86,0,0,0-.24.64v1.14H365a.33.33,0,0,1,.29.18.83.83,0,0,1,.11.43.86.86,0,0,1-.11.43.33.33,0,0,1-.29.18h-1.46v4a.39.39,0,0,1-.24.34,1.19,1.19,0,0,1-.56.13,1,1,0,0,1-.54-.14A.4.4,0,0,1,362,203.44Z"/><path class="cls-4" d="M365.73,201.57v-1a2.23,2.23,0,0,1,.77-1.69,2.65,2.65,0,0,1,1.86-.71,2.52,2.52,0,0,1,1.74.65,2.06,2.06,0,0,1,.73,1.62,1.66,1.66,0,0,1-.09.59.56.56,0,0,1-.28.32.82.82,0,0,1-.34.12,2.22,2.22,0,0,1-.41,0h-2.43v.18a1,1,0,0,0,.38.83,1.58,1.58,0,0,0,1,.32,1.94,1.94,0,0,0,.9-.23,1.92,1.92,0,0,1,.58-.23.49.49,0,0,1,.42.24.77.77,0,0,1,.17.45c0,.22-.21.44-.61.66a3.12,3.12,0,0,1-1.51.33,3.16,3.16,0,0,1-2.09-.67A2.23,2.23,0,0,1,365.73,201.57Zm1.55-1H369a.44.44,0,0,0,.27-.07.3.3,0,0,0,.08-.24.78.78,0,0,0-.31-.64,1.26,1.26,0,0,0-1.48,0,.75.75,0,0,0-.31.63Z"/><path class="cls-4" d="M371.39,203a.88.88,0,0,1,.16-.45.47.47,0,0,1,.37-.23.7.7,0,0,1,.33.12,3,3,0,0,0,.53.24,2.06,2.06,0,0,0,.78.13c.59,0,.88-.17.88-.5a.51.51,0,0,0-.29-.45,2.93,2.93,0,0,0-.71-.26c-.28-.07-.55-.16-.83-.26a1.6,1.6,0,0,1-.72-.49,1.33,1.33,0,0,1-.29-.88,1.81,1.81,0,0,1,.51-1.28,2.19,2.19,0,0,1,1.64-.54,3.65,3.65,0,0,1,1.32.23c.39.15.58.34.58.55a.94.94,0,0,1-.16.48.47.47,0,0,1-.4.27,2.48,2.48,0,0,1-.52-.15,2.44,2.44,0,0,0-.8-.15,1,1,0,0,0-.62.16.45.45,0,0,0-.22.36.37.37,0,0,0,.22.33,1.73,1.73,0,0,0,.53.2c.21,0,.44.11.68.19a4.21,4.21,0,0,1,.68.29,1.34,1.34,0,0,1,.52.51,1.53,1.53,0,0,1,.21.83,1.6,1.6,0,0,1-.58,1.31,2.54,2.54,0,0,1-1.62.47,3.44,3.44,0,0,1-1.54-.31C371.61,203.51,371.39,203.27,371.39,203Z"/><path class="cls-4" d="M376.71,202v-5.75a.4.4,0,0,1,.24-.34,1.07,1.07,0,0,1,.53-.13,1,1,0,0,1,.54.13.39.39,0,0,1,.24.33v2h1.41a.33.33,0,0,1,.29.18.83.83,0,0,1,.11.43.86.86,0,0,1-.11.43.33.33,0,0,1-.29.18h-1.41V202a.62.62,0,0,0,.15.47.77.77,0,0,0,.52.14h.47a.57.57,0,0,1,.48.2.73.73,0,0,1,0,1,.57.57,0,0,1-.48.21h-.47C377.45,203.93,376.71,203.29,376.71,202Z"/><path class="cls-4" d="M317.25,210.2a.54.54,0,0,1,.32-.46,1.32,1.32,0,0,1,.66-.19c.3,0,.47.11.53.32l1.84,6.5,1.82-6.5c.06-.21.23-.32.53-.32a1.3,1.3,0,0,1,.66.2.54.54,0,0,1,.32.45.35.35,0,0,1,0,.12l-2.3,7.55a.62.62,0,0,1-.37.39,1.47,1.47,0,0,1-.64.14c-.55,0-.89-.18-1-.53l-2.32-7.55C317.26,210.26,317.25,210.22,317.25,210.2Z"/><path class="cls-4" d="M323.8,216.79a1.38,1.38,0,0,1,.72-1.33,4.45,4.45,0,0,1,2.08-.39h.49v-.16a1.27,1.27,0,0,0-.26-.79.93.93,0,0,0-.8-.34,2,2,0,0,0-.92.2,2.12,2.12,0,0,1-.44.21.45.45,0,0,1-.39-.24,1.08,1.08,0,0,1-.14-.53c0-.23.2-.44.62-.61a3.35,3.35,0,0,1,1.3-.26,2.58,2.58,0,0,1,1.94.67,2.29,2.29,0,0,1,.64,1.67v2.94a.4.4,0,0,1-.22.35.91.91,0,0,1-.54.15.77.77,0,0,1-.5-.16.44.44,0,0,1-.19-.37v-.37a2.37,2.37,0,0,1-1.83,1,1.56,1.56,0,0,1-1.12-.42A1.61,1.61,0,0,1,323.8,216.79Zm1.55-.19a.62.62,0,0,0,.17.46.7.7,0,0,0,.47.15,1.07,1.07,0,0,0,.74-.34,1,1,0,0,0,.36-.75v-.24h-.18a3.86,3.86,0,0,0-1.15.14A.57.57,0,0,0,325.35,216.6Z"/><path class="cls-4" d="M329.9,217.83v-8.05a.41.41,0,0,1,.21-.35,1.1,1.1,0,0,1,.56-.13,1.18,1.18,0,0,1,.55.13.41.41,0,0,1,.23.35v8.05a.43.43,0,0,1-.24.34,1,1,0,0,1-.54.16,1,1,0,0,1-.55-.15A.42.42,0,0,1,329.9,217.83Z"/><path class="cls-4" d="M332.67,210.67a.57.57,0,0,1,.26-.48.91.91,0,0,1,.62-.2.8.8,0,0,1,.57.2.6.6,0,0,1,.24.48.63.63,0,0,1-.24.48.8.8,0,0,1-.57.2.91.91,0,0,1-.62-.2A.59.59,0,0,1,332.67,210.67Zm.14,7.16v-4.72a.4.4,0,0,1,.21-.35,1,1,0,0,1,.53-.13,1,1,0,0,1,.54.13.4.4,0,0,1,.21.35v4.72a.42.42,0,0,1-.22.34,1,1,0,0,1-.53.16.86.86,0,0,1-.52-.15A.45.45,0,0,1,332.81,217.83Z"/><path class="cls-4" d="M335.3,216v-1a2.54,2.54,0,0,1,.63-1.72,1.93,1.93,0,0,1,1.5-.72,1.59,1.59,0,0,1,.93.27,1.91,1.91,0,0,1,.62.65v-3.68a.39.39,0,0,1,.22-.34,1.08,1.08,0,0,1,.56-.14,1,1,0,0,1,.55.14.37.37,0,0,1,.22.34v8a.42.42,0,0,1-.22.35,1,1,0,0,1-.55.15.81.81,0,0,1-.48-.16.45.45,0,0,1-.21-.34v-.35a1.69,1.69,0,0,1-.66.67,1.88,1.88,0,0,1-2.48-.46A2.59,2.59,0,0,1,335.3,216Zm1.55,0a1.09,1.09,0,0,0,.31.76,1,1,0,0,0,.73.34,1.07,1.07,0,0,0,.76-.33.89.89,0,0,0,.33-.56V215a1,1,0,0,0-.33-.77,1.08,1.08,0,0,0-.75-.3,1,1,0,0,0-.74.33,1,1,0,0,0-.31.74Z"/><path class="cls-4" d="M341.41,216.79a1.38,1.38,0,0,1,.72-1.33,4.43,4.43,0,0,1,2.07-.39h.49v-.16a1.26,1.26,0,0,0-.25-.79.94.94,0,0,0-.8-.34,2.06,2.06,0,0,0-.93.2,1.89,1.89,0,0,1-.44.21.42.42,0,0,1-.38-.24,1,1,0,0,1-.15-.53c0-.23.21-.44.62-.61a3.39,3.39,0,0,1,1.3-.26,2.62,2.62,0,0,1,1.95.67,2.33,2.33,0,0,1,.63,1.67v2.94a.41.41,0,0,1-.21.35,1,1,0,0,1-.54.15.75.75,0,0,1-.5-.16.45.45,0,0,1-.2-.37v-.37a2.35,2.35,0,0,1-1.82,1,1.58,1.58,0,0,1-1.13-.42A1.61,1.61,0,0,1,341.41,216.79Zm1.54-.19a.59.59,0,0,0,.18.46.67.67,0,0,0,.46.15,1.05,1.05,0,0,0,.74-.34,1,1,0,0,0,.36-.75v-.24h-.18a3.78,3.78,0,0,0-1.14.14A.57.57,0,0,0,343,216.6Z"/><path class="cls-4" d="M347.38,216.41v-5.76a.41.41,0,0,1,.24-.34,1.07,1.07,0,0,1,.53-.13,1.09,1.09,0,0,1,.55.13.39.39,0,0,1,.23.33v2h1.42a.31.31,0,0,1,.28.18.75.75,0,0,1,.11.43.77.77,0,0,1-.11.43.31.31,0,0,1-.28.18h-1.42v2.5a.62.62,0,0,0,.15.47.77.77,0,0,0,.52.14h.47a.63.63,0,0,1,.49.2.76.76,0,0,1,0,1,.61.61,0,0,1-.49.21h-.47Q347.38,218.33,347.38,216.41Z"/><path class="cls-4" d="M351.47,210.67a.59.59,0,0,1,.26-.48,1,1,0,0,1,.63-.2.83.83,0,0,1,.57.2.6.6,0,0,1,.24.48.63.63,0,0,1-.24.48.83.83,0,0,1-.57.2,1,1,0,0,1-.63-.2A.62.62,0,0,1,351.47,210.67Zm.15,7.16v-4.72a.4.4,0,0,1,.21-.35.93.93,0,0,1,.53-.13,1,1,0,0,1,.53.13.39.39,0,0,1,.22.35v4.72a.43.43,0,0,1-.23.34.91.91,0,0,1-.52.16.9.9,0,0,1-.53-.15A.43.43,0,0,1,351.62,217.83Z"/><path class="cls-4" d="M354.09,216v-1a2.28,2.28,0,0,1,.77-1.71,2.67,2.67,0,0,1,3.66,0,2.27,2.27,0,0,1,.78,1.72v1a2.32,2.32,0,0,1-.78,1.72,2.62,2.62,0,0,1-3.65,0A2.32,2.32,0,0,1,354.09,216Zm1.55,0a1.06,1.06,0,0,0,.31.76,1,1,0,0,0,1.48,0,1.07,1.07,0,0,0,.32-.76v-1a1,1,0,0,0-.32-.73,1,1,0,0,0-.74-.34,1,1,0,0,0-.74.33,1,1,0,0,0-.31.74Z"/><path class="cls-4" d="M360.28,217.83v-4.72a.4.4,0,0,1,.21-.35,1,1,0,0,1,.56-.13.88.88,0,0,1,.49.13.41.41,0,0,1,.19.35v.36a1.74,1.74,0,0,1,.62-.65,1.84,1.84,0,0,1,1-.27,1.86,1.86,0,0,1,1.45.72,2.58,2.58,0,0,1,.62,1.72v2.84a.38.38,0,0,1-.24.36,1.06,1.06,0,0,1-.54.14,1.09,1.09,0,0,1-.54-.14.39.39,0,0,1-.23-.35V215a1.1,1.1,0,0,0-.31-.75,1,1,0,0,0-.74-.33,1,1,0,0,0-.69.3,1.09,1.09,0,0,0-.29.78v2.84a.42.42,0,0,1-.23.33,1,1,0,0,1-.55.16,1,1,0,0,1-.55-.15A.45.45,0,0,1,360.28,217.83Z"/><path class="cls-7" d="M354.46,543.07a16.8,16.8,0,0,0-2-2.26A16.38,16.38,0,0,0,334.21,538a15.81,15.81,0,0,0-2.63,1.58,16.37,16.37,0,0,0-1.78,1.52,15.58,15.58,0,0,0-1.16,1.28"/><path class="cls-7" d="M326.66,547.1a16.32,16.32,0,0,0,7.26,19.54,17.67,17.67,0,0,0,2.79,1.28,17.22,17.22,0,0,0,2.26.61c.59.11,1.17.19,1.75.24"/><path class="cls-7" d="M344,568.57a17.63,17.63,0,0,0,3-.7,16.37,16.37,0,0,0,11.07-14.75,16.32,16.32,0,0,0-.65-5.36,14.78,14.78,0,0,0-.57-1.62"/><line class="cls-7" x1="323.42" y1="548.72" x2="326.66" y2="547.1"/><line class="cls-7" x1="326.85" y1="547.15" x2="327.88" y2="550.63"/><line class="cls-7" x1="355.03" y1="539.5" x2="354.63" y2="543.11"/><line class="cls-7" x1="354.49" y1="543.24" x2="351.01" y2="542.22"/><line class="cls-7" x1="346.66" y1="570.42" x2="343.47" y2="568.69"/><line class="cls-7" x1="343.4" y1="568.51" x2="345.66" y2="565.67"/><path class="cls-7" d="M339.88,553.32a1.34,1.34,0,0,1-1,.4L334.2,558a1.64,1.64,0,0,0-.48,1.16h0a1.64,1.64,0,0,0,.48,1.16l.06.07a1.69,1.69,0,0,0,1.17.48h0a1.69,1.69,0,0,0,1.17-.48l4.31-4.66a1.4,1.4,0,0,1,.4-1"/><polyline class="cls-7" points="343.14 552.47 347.08 548.53 348.11 548.53 349.48 545.78 348.79 545.1 346.05 546.47 346.05 547.5 342.11 551.44"/><path class="cls-7" d="M348.45,560.86a1.42,1.42,0,0,1-1-.43l-8.67-8.91a1.37,1.37,0,0,0-1.34-.37,3.21,3.21,0,0,1-.61.12,3.1,3.1,0,0,1-3.08-3.27h0l2,1.22.15-.07a2.21,2.21,0,0,0,1.22-2l-2.27-1.37a3.15,3.15,0,0,1,1.87-.69,2.83,2.83,0,0,1,2.07.89,3.19,3.19,0,0,1,.89,2.89,1.38,1.38,0,0,0,.39,1.21l9,8.71a1.5,1.5,0,0,1,.43,1h0a1,1,0,0,1-1,1Z"/><polygon class="cls-8" points="352.46 186.38 347.29 187.85 348.76 182.68 359.85 171.59 363.55 175.29 352.46 186.38"/><line class="cls-8" x1="356.9" y1="174.55" x2="360.59" y2="178.24"/><line class="cls-8" x1="348.76" y1="182.68" x2="352.46" y2="186.37"/><line class="cls-8" x1="342.11" y1="168.64" x2="348.03" y2="168.64"/><line class="cls-8" x1="342.11" y1="174.55" x2="348.03" y2="174.55"/><polyline class="cls-8" points="339.9 165.68 336.2 169.38 333.98 167.16"/><polyline class="cls-8" points="339.9 171.61 336.2 175.31 333.98 173.09"/><polyline class="cls-8" points="342.11 184.9 329.55 184.9 329.55 153.85 345.81 153.85 353.2 161.24 353.2 172.33"/><polyline class="cls-8" points="345.81 153.85 345.81 161.24 353.2 161.24"/><circle class="cls-9" cx="461.02" cy="404.02" r="3.08"/><circle class="cls-9" cx="469.89" cy="395.07" r="3.08"/><circle class="cls-9" cx="448.22" cy="404.37" r="2.61"/><circle class="cls-9" cx="453.24" cy="385.68" r="1.47"/><circle class="cls-9" cx="450.75" cy="414.19" r="1.47"/><circle class="cls-9" cx="464.8" cy="416.74" r="1.47"/><circle class="cls-9" cx="443.74" cy="396.37" r="1.47"/><circle class="cls-9" cx="471.35" cy="409.27" r="1.47"/><circle class="cls-9" cx="464.8" cy="385.81" r="1.47"/><line class="cls-9" x1="464.37" y1="387.29" x2="461.02" y2="400.94"/><line class="cls-9" x1="457.46" y1="394.53" x2="459.86" y2="401.13"/><line class="cls-9" x1="465.58" y1="387.06" x2="468.37" y2="392.09"/><line class="cls-9" x1="453.92" y1="386.98" x2="455.32" y2="389.58"/><line class="cls-9" x1="462.28" y1="407.11" x2="464.8" y2="415.27"/><line class="cls-9" x1="452.03" y1="412.89" x2="458.63" y2="406.48"/><line class="cls-9" x1="464.11" y1="405.29" x2="469.89" y2="408.16"/><line class="cls-9" x1="457.94" y1="404.02" x2="451.15" y2="404.73"/><circle class="cls-9" cx="473.69" cy="387.91" r="1.47"/><circle class="cls-9" cx="456.8" cy="391.98" r="2.61"/><line class="cls-9" x1="444.41" y1="397.84" x2="446.82" y2="402.14"/><line class="cls-9" x1="471.52" y1="392.45" x2="473.09" y2="389.38"/><line class="cls-9" x1="450.17" y1="390.89" x2="454.19" y2="391.42"/><circle class="cls-9" cx="448.67" cy="390.63" r="1.47"/><line class="cls-9" x1="463.19" y1="401.83" x2="468.01" y2="397.49"/><line class="cls-9" x1="449.62" y1="402.17" x2="455.33" y2="394.59"/><path class="cls-10" d="M213,290.1,205.91,288l-14.62,4.26v15.6c0,5.36,8.4,10.83,14.46,12.71l.16,0,.17,0c6.06-1.88,14.45-7.35,14.45-12.71v-15.6l-3.12-.91"/><polyline class="cls-10" points="215.33 286.65 203.81 309.67 196.5 299.85"/><path class="cls-10" d="M211.76,292.64l-5.85-1.7-12,3.5v12.82c0,4.4,6.9,8.89,11.88,10.44l.13,0,.14,0a25.16,25.16,0,0,0,5.34-2.45c3.5-2.11,6.53-5.07,6.53-8V294.44l-2.56-.75"/><path class="cls-11" d="M106.49,105.57c-7.21-29.51-51-25.12-51.86,6.36,1.26,21.82,19.74,29.54,34.48,24.95"/><path class="cls-4" d="M90,119.07v-1.16a1.76,1.76,0,0,1,.39-1.06,4.54,4.54,0,0,1,1-.93l1.15-.84a5.41,5.41,0,0,0,1-.92,1.63,1.63,0,0,0,.4-1,1.28,1.28,0,0,0-.33-.88,1.22,1.22,0,0,0-1-.38,1.24,1.24,0,0,0-.87.3,1.1,1.1,0,0,0-.34.88.39.39,0,0,1-.19.33.73.73,0,0,1-.48.15c-.39,0-.58-.24-.58-.71a1.86,1.86,0,0,1,.73-1.53,2.62,2.62,0,0,1,1.73-.6,2.66,2.66,0,0,1,1.82.67,2.21,2.21,0,0,1,.75,1.73,2.45,2.45,0,0,1-.4,1.35,4.15,4.15,0,0,1-1,1.07c-.38.29-.76.57-1.14.83a7.63,7.63,0,0,0-1,.78,1.16,1.16,0,0,0-.4.77v.45h3.53a.38.38,0,0,1,.3.17.61.61,0,0,1,.12.39.7.7,0,0,1-.12.4.34.34,0,0,1-.29.17H90.52a.71.71,0,0,1-.38-.12A.35.35,0,0,1,90,119.07Z"/><path class="cls-4" d="M95.23,117.05a.68.68,0,0,1,.07-.27l2.91-5.72a.6.6,0,0,1,.55-.35.72.72,0,0,1,.42.15.4.4,0,0,1,.22.35.49.49,0,0,1-.06.19l-2.47,4.93h1.76v-1.66c0-.29.21-.43.64-.43a.94.94,0,0,1,.45.11.35.35,0,0,1,.18.32v1.66h.59a.35.35,0,0,1,.32.18.74.74,0,0,1,.12.42.69.69,0,0,1-.14.4.35.35,0,0,1-.3.18H99.9v1.56a.35.35,0,0,1-.19.31.8.8,0,0,1-.44.11.79.79,0,0,1-.45-.11.35.35,0,0,1-.19-.31v-1.56H95.68a.44.44,0,0,1-.32-.12A.45.45,0,0,1,95.23,117.05Z"/><path class="cls-4" d="M101.59,117a.67.67,0,0,1-.11-.39.66.66,0,0,1,.11-.38.35.35,0,0,1,.3-.16H105a.38.38,0,0,1,.3.16.58.58,0,0,1,.13.38.56.56,0,0,1-.13.39.4.4,0,0,1-.3.15h-3.12A.37.37,0,0,1,101.59,117Z"/><path class="cls-4" d="M106.19,113v-1.84a.38.38,0,0,1,.18-.29.7.7,0,0,1,.38-.13H111a.75.75,0,0,1,.38.13.38.38,0,0,1,.18.29v1.24a1.69,1.69,0,0,1-.23.71l-3.23,6.26a.41.41,0,0,1-.38.19.91.91,0,0,1-.56-.18.54.54,0,0,1-.24-.45.53.53,0,0,1,.06-.24l3.31-6.07v-.75h-2.85V113a.34.34,0,0,1-.2.3.84.84,0,0,1-.45.12.81.81,0,0,1-.44-.12A.35.35,0,0,1,106.19,113Z"/><path class="cls-4" d="M112.15,119.07v-1.16a1.76,1.76,0,0,1,.39-1.06,4.73,4.73,0,0,1,1-.93l1.16-.84a5,5,0,0,0,1-.92,1.64,1.64,0,0,0,.41-1,1.28,1.28,0,0,0-.33-.88,1.24,1.24,0,0,0-1-.38,1.29,1.29,0,0,0-.88.3,1.12,1.12,0,0,0-.33.88.41.41,0,0,1-.19.33.75.75,0,0,1-.49.15c-.38,0-.57-.24-.57-.71a1.88,1.88,0,0,1,.72-1.53,2.81,2.81,0,0,1,3.56.07,2.21,2.21,0,0,1,.75,1.73,2.45,2.45,0,0,1-.4,1.35,4.34,4.34,0,0,1-1,1.07c-.39.29-.77.57-1.15.83a7.48,7.48,0,0,0-1,.78,1.12,1.12,0,0,0-.4.77v.45H117a.36.36,0,0,1,.29.17.56.56,0,0,1,.13.39.64.64,0,0,1-.13.4.34.34,0,0,1-.29.17h-4.24a.68.68,0,0,1-.38-.12A.35.35,0,0,1,112.15,119.07Z"/><path class="cls-4" d="M90.36,131.46v-8a.32.32,0,0,1,.18-.3.91.91,0,0,1,.45-.11.88.88,0,0,1,.45.11.31.31,0,0,1,.19.3v3.32h3v-3.32a.31.31,0,0,1,.19-.3.88.88,0,0,1,.45-.11.94.94,0,0,1,.45.11.32.32,0,0,1,.18.3v8a.36.36,0,0,1-.18.31,1,1,0,0,1-.9,0,.35.35,0,0,1-.19-.31v-3.62h-3v3.62a.35.35,0,0,1-.19.31.79.79,0,0,1-.45.11.8.8,0,0,1-.44-.11A.35.35,0,0,1,90.36,131.46Z"/><path class="cls-4" d="M97.39,129.28v-3.5a2.57,2.57,0,0,1,.74-2,2.83,2.83,0,0,1,2-.65,2.89,2.89,0,0,1,2,.65,2.57,2.57,0,0,1,.74,2v3.5a2.57,2.57,0,0,1-.74,2,2.89,2.89,0,0,1-2,.65,2.83,2.83,0,0,1-2-.65A2.57,2.57,0,0,1,97.39,129.28Zm1.28,0c0,1,.47,1.55,1.41,1.55a1.4,1.4,0,0,0,1.06-.39,1.59,1.59,0,0,0,.37-1.16v-3.5a1.59,1.59,0,0,0-.37-1.16,1.4,1.4,0,0,0-1.06-.39c-.94,0-1.41.52-1.41,1.55Z"/><path class="cls-4" d="M104.24,129.28v-5.77a.31.31,0,0,1,.19-.3.88.88,0,0,1,.45-.11.94.94,0,0,1,.45.11.32.32,0,0,1,.18.3v5.77a1.55,1.55,0,0,0,.39,1.16,1.44,1.44,0,0,0,1.08.39c1,0,1.48-.52,1.48-1.55v-5.77a.32.32,0,0,1,.18-.3.94.94,0,0,1,.45-.11.88.88,0,0,1,.45.11.31.31,0,0,1,.19.3v5.77a2.54,2.54,0,0,1-.75,2,3.39,3.39,0,0,1-4,0A2.54,2.54,0,0,1,104.24,129.28Z"/><path class="cls-4" d="M111.28,131.46v-8a.4.4,0,0,1,.12-.29.41.41,0,0,1,.3-.12H114c1.85,0,2.77.82,2.77,2.45a2.56,2.56,0,0,1-.46,1.6,2.2,2.2,0,0,1-1.24.77l1.68,3.17a.31.31,0,0,1,0,.18.6.6,0,0,1-.24.45.85.85,0,0,1-.53.2.57.57,0,0,1-.5-.37l-1.75-3.45h-1.22v3.36a.36.36,0,0,1-.18.31.85.85,0,0,1-.46.11.77.77,0,0,1-.43-.11A.35.35,0,0,1,111.28,131.46Zm1.26-4.37H114c1,0,1.49-.47,1.49-1.43s-.49-1.43-1.49-1.43h-1.44Z"/><path class="cls-4" d="M117.55,130.56a.77.77,0,0,1,.17-.45.48.48,0,0,1,.38-.23.54.54,0,0,1,.32.15l.37.34a2.11,2.11,0,0,0,.54.33,2.19,2.19,0,0,0,.83.15,1.79,1.79,0,0,0,1.1-.32,1.17,1.17,0,0,0,.41-1,1.26,1.26,0,0,0-.4-1,2.88,2.88,0,0,0-1-.62c-.38-.15-.76-.32-1.14-.5a2.49,2.49,0,0,1-1-.79,2.14,2.14,0,0,1-.4-1.33,2.38,2.38,0,0,1,.24-1.1,1.74,1.74,0,0,1,.67-.72,3.23,3.23,0,0,1,.88-.37,4.46,4.46,0,0,1,1-.11,5.38,5.38,0,0,1,.68,0,4.13,4.13,0,0,1,.7.14,1.56,1.56,0,0,1,.58.27.51.51,0,0,1,.23.4.84.84,0,0,1-.15.46.43.43,0,0,1-.38.23.74.74,0,0,1-.33-.12,3.78,3.78,0,0,0-.54-.23,2.69,2.69,0,0,0-.79-.11,1.93,1.93,0,0,0-1.09.27.94.94,0,0,0-.41.83.91.91,0,0,0,.22.62,1.7,1.7,0,0,0,.55.43c.23.11.49.22.77.33a8.84,8.84,0,0,1,.83.38,4.54,4.54,0,0,1,.76.5,2.12,2.12,0,0,1,.56.78,2.91,2.91,0,0,1,.21,1.15,2.36,2.36,0,0,1-.75,1.89,2.94,2.94,0,0,1-2,.65,3.61,3.61,0,0,1-1.88-.46C117.81,131.21,117.55,130.89,117.55,130.56Z"/><polyline class="cls-11" points="67.83 99.6 81.21 111.92 81.21 124.25"/><line class="cls-2" x1="396.33" y1="569.29" x2="502.5" y2="713.2"/><circle class="cls-4" cx="502.5" cy="711.18" r="11.14"/><path class="cls-5" d="M499.24,713.92a.76.76,0,0,1,.22-.63,1.05,1.05,0,0,1,.67-.18,1,1,0,0,1,.71.18.66.66,0,0,1,.19.51.87.87,0,0,0,.4.77,1.8,1.8,0,0,0,1,.28c1,0,1.46-.51,1.46-1.53v-.27a1.58,1.58,0,0,0-.38-1.15,1.42,1.42,0,0,0-1.07-.39h-2a.74.74,0,0,1-.56-.18.79.79,0,0,1-.15-.52.54.54,0,0,1,0-.17.62.62,0,0,0,.05-.18l.28-3.64c0-.37.14-.56.34-.56h4.25a.43.43,0,0,1,.39.23,1,1,0,0,1,.15.55,1,1,0,0,1-.15.56.43.43,0,0,1-.39.23h-3.09l-.18,2.27h1.06a3.67,3.67,0,0,1,2.36.71,2.71,2.71,0,0,1,.88,2.24v.27a2.92,2.92,0,0,1-.88,2.35,3.47,3.47,0,0,1-2.33.75,3.6,3.6,0,0,1-2.38-.74A2.24,2.24,0,0,1,499.24,713.92Z"/><path class="cls-4" d="M420.94,743.92v-7.79a.39.39,0,0,1,.23-.36,1.07,1.07,0,0,1,.55-.13,1.11,1.11,0,0,1,.66.16,1.9,1.9,0,0,1,.51.67L425.2,741v-4.83a.39.39,0,0,1,.23-.36,1.18,1.18,0,0,1,.55-.12,1.22,1.22,0,0,1,.56.12.38.38,0,0,1,.22.36v7.8a.39.39,0,0,1-.23.36,1.09,1.09,0,0,1-.55.13.94.94,0,0,1-.9-.49l-2.58-4.82v4.82a.39.39,0,0,1-.23.36,1.09,1.09,0,0,1-.55.13,1.07,1.07,0,0,1-.55-.13A.41.41,0,0,1,420.94,743.92Z"/><path class="cls-4" d="M427.81,742.06v-1a2.24,2.24,0,0,1,.77-1.71,2.54,2.54,0,0,1,1.83-.73,2.61,2.61,0,0,1,1.83.72,2.26,2.26,0,0,1,.78,1.72v1a2.32,2.32,0,0,1-.78,1.72,2.62,2.62,0,0,1-3.65,0A2.32,2.32,0,0,1,427.81,742.06Zm1.55,0a1.07,1.07,0,0,0,.31.76,1,1,0,0,0,.74.33,1,1,0,0,0,.74-.33,1.09,1.09,0,0,0,.32-.76v-1a1.08,1.08,0,0,0-.32-.74,1,1,0,0,0-.74-.33,1,1,0,0,0-.74.33,1,1,0,0,0-.31.74Z"/><path class="cls-4" d="M434,742.49v-5.75a.4.4,0,0,1,.24-.34,1,1,0,0,1,.53-.13,1.05,1.05,0,0,1,.54.13.39.39,0,0,1,.24.33v2H437a.34.34,0,0,1,.29.19.83.83,0,0,1,.11.43.89.89,0,0,1-.11.43.33.33,0,0,1-.29.18h-1.41v2.5a.62.62,0,0,0,.15.47.77.77,0,0,0,.52.14h.47a.58.58,0,0,1,.48.2.67.67,0,0,1,.18.47.69.69,0,0,1-.18.49.58.58,0,0,1-.48.2h-.47Q434,744.41,434,742.49Z"/><path class="cls-4" d="M438.08,736.76a.59.59,0,0,1,.26-.49,1,1,0,0,1,.62-.2.84.84,0,0,1,.57.2.61.61,0,0,1,0,1,.84.84,0,0,1-.57.2,1,1,0,0,1-.62-.2A.59.59,0,0,1,438.08,736.76Zm.14,7.16v-4.73a.38.38,0,0,1,.21-.34,1,1,0,0,1,.53-.14,1,1,0,0,1,.54.14.38.38,0,0,1,.21.34v4.73a.43.43,0,0,1-.22.34.94.94,0,0,1-.53.15.86.86,0,0,1-.52-.15A.43.43,0,0,1,438.22,743.92Z"/><path class="cls-4" d="M440.92,743.93V738a2.47,2.47,0,0,1,.81-1.88,3,3,0,0,1,2.16-.77,3.74,3.74,0,0,1,1.42.25q.63.24.63.6a1.38,1.38,0,0,1-.16.57q-.15.33-.39.33a2.08,2.08,0,0,1-.5-.19,2.33,2.33,0,0,0-1-.19,1.59,1.59,0,0,0-1,.32,1.18,1.18,0,0,0-.38.94v.75h1.23a.36.36,0,0,1,.3.19.83.83,0,0,1,.1.43.88.88,0,0,1-.1.43.35.35,0,0,1-.3.18h-1.23v4a.41.41,0,0,1-.23.35,1.22,1.22,0,0,1-.56.12,1,1,0,0,1-.54-.13A.41.41,0,0,1,440.92,743.93Zm4.05,0v-4.73a.38.38,0,0,1,.21-.34,1,1,0,0,1,.54-.14,1.09,1.09,0,0,1,.57.14.38.38,0,0,1,.23.34v4.73c0,.12-.08.23-.24.34a1,1,0,0,1-.56.15,1,1,0,0,1-.54-.15A.42.42,0,0,1,445,743.92Z"/><path class="cls-4" d="M447.51,742.06v-1a2.48,2.48,0,0,1,.65-1.78,2.57,2.57,0,0,1,1.94-.68,3,3,0,0,1,1.37.29c.37.19.55.41.55.65a.85.85,0,0,1-.18.5.51.51,0,0,1-.43.25,1.54,1.54,0,0,1-.42-.16,1.8,1.8,0,0,0-.77-.16c-.77,0-1.16.36-1.16,1.1v.95c0,.73.39,1.09,1.18,1.09A1.59,1.59,0,0,0,451,743a1.27,1.27,0,0,1,.45-.17.57.57,0,0,1,.47.24.82.82,0,0,1,.19.49c0,.25-.2.47-.59.68a3,3,0,0,1-1.39.3,2.59,2.59,0,0,1-2-.67A2.48,2.48,0,0,1,447.51,742.06Z"/><path class="cls-4" d="M452.58,742.88a1.37,1.37,0,0,1,.72-1.33,4.43,4.43,0,0,1,2.07-.39h.49V741a1.26,1.26,0,0,0-.25-.79.94.94,0,0,0-.8-.34,1.93,1.93,0,0,0-.93.2,1.64,1.64,0,0,1-.44.2.42.42,0,0,1-.38-.24,1,1,0,0,1-.15-.52c0-.24.21-.44.62-.61a3.39,3.39,0,0,1,1.3-.26,2.58,2.58,0,0,1,1.95.67,2.33,2.33,0,0,1,.63,1.67v2.94a.42.42,0,0,1-.21.35,1,1,0,0,1-.54.14.8.8,0,0,1-.5-.15.47.47,0,0,1-.2-.37v-.37a2.35,2.35,0,0,1-1.82,1,1.58,1.58,0,0,1-1.13-.42A1.62,1.62,0,0,1,452.58,742.88Zm1.54-.2a.56.56,0,0,0,.18.46.63.63,0,0,0,.46.16,1.1,1.1,0,0,0,.74-.34,1,1,0,0,0,.36-.75V742h-.18a3.49,3.49,0,0,0-1.14.14A.55.55,0,0,0,454.12,742.68Z"/><path class="cls-4" d="M458.55,742.49v-5.75a.4.4,0,0,1,.24-.34,1.07,1.07,0,0,1,.53-.13,1.09,1.09,0,0,1,.55.13.39.39,0,0,1,.23.33v2h1.42a.32.32,0,0,1,.28.19.75.75,0,0,1,.11.43.79.79,0,0,1-.11.43.31.31,0,0,1-.28.18H460.1v2.5a.62.62,0,0,0,.15.47.77.77,0,0,0,.52.14h.47a.6.6,0,0,1,.49.2.71.71,0,0,1,.17.47.73.73,0,0,1-.17.49.6.6,0,0,1-.49.2h-.47Q458.55,744.41,458.55,742.49Z"/><path class="cls-4" d="M462.64,736.76a.62.62,0,0,1,.26-.49,1,1,0,0,1,.63-.2.88.88,0,0,1,.57.2.61.61,0,0,1,0,1,.88.88,0,0,1-.57.2,1,1,0,0,1-.63-.2A.62.62,0,0,1,462.64,736.76Zm.15,7.16v-4.73a.38.38,0,0,1,.21-.34.92.92,0,0,1,.53-.14,1,1,0,0,1,.53.14.37.37,0,0,1,.22.34v4.73a.45.45,0,0,1-.23.34.91.91,0,0,1-.52.15.9.9,0,0,1-.53-.15A.42.42,0,0,1,462.79,743.92Z"/><path class="cls-4" d="M465.26,742.06v-1a2.28,2.28,0,0,1,.77-1.71,2.54,2.54,0,0,1,1.83-.73,2.61,2.61,0,0,1,1.83.72,2.26,2.26,0,0,1,.78,1.72v1a2.32,2.32,0,0,1-.78,1.72,2.62,2.62,0,0,1-3.65,0A2.32,2.32,0,0,1,465.26,742.06Zm1.55,0a1.07,1.07,0,0,0,.31.76,1,1,0,0,0,1.48,0,1.09,1.09,0,0,0,.32-.76v-1a1.08,1.08,0,0,0-.32-.74,1,1,0,0,0-1.48,0,1,1,0,0,0-.31.74Z"/><path class="cls-4" d="M471.45,743.92v-4.73a.38.38,0,0,1,.21-.34,1,1,0,0,1,.56-.14.88.88,0,0,1,.49.14.4.4,0,0,1,.19.35v.36a1.67,1.67,0,0,1,.62-.65,1.84,1.84,0,0,1,1-.27,1.86,1.86,0,0,1,1.45.72,2.56,2.56,0,0,1,.62,1.72v2.84a.4.4,0,0,1-.24.36,1.05,1.05,0,0,1-.54.13,1.08,1.08,0,0,1-.54-.13.4.4,0,0,1-.23-.36v-2.83a1.1,1.1,0,0,0-.31-.75A1,1,0,0,0,474,740a1,1,0,0,0-.69.3,1.09,1.09,0,0,0-.29.78v2.83a.43.43,0,0,1-.23.34,1,1,0,0,1-.55.15,1,1,0,0,1-.55-.15A.43.43,0,0,1,471.45,743.92Z"/><path class="cls-12" d="M444.78,719.76h21.38a2.19,2.19,0,0,0,1.55-.64h0a2.18,2.18,0,0,0,.64-1.55V695.38a2.19,2.19,0,0,0-2.19-2.18h-31.5a2.18,2.18,0,0,0-1.55.64h0a2.19,2.19,0,0,0-.64,1.54v22.19a2.19,2.19,0,0,0,2.19,2.19h1a.54.54,0,0,1,.44.63l-1.26,6.8,9.61-7.3A.55.55,0,0,1,444.78,719.76Z"/><line class="cls-13" x1="438.11" y1="712.57" x2="462.72" y2="712.57"/><line class="cls-13" x1="438.11" y1="700.43" x2="462.72" y2="700.43"/><line class="cls-13" x1="438.11" y1="706.5" x2="462.72" y2="706.5"/></g></svg>