<?xml version="1.0" encoding="utf-8"?>
<!-- Generator: Adobe Illustrator 23.0.4, SVG Export Plug-In . SVG Version: 6.00 Build 0)  -->
<svg version="1.1" id="Layer_1" xmlns="http://www.w3.org/2000/svg" xmlns:xlink="http://www.w3.org/1999/xlink" x="0px" y="0px"
	 viewBox="0 0 397 400" style="enable-background:new 0 0 397 400;" xml:space="preserve">
<style type="text/css">
	.st0{opacity:0.24;}
	.st1{fill:#B3B3B3;}
	.st2{fill:#D2D2D2;}
	.st3{fill:#808080;}
	.st4{opacity:0;}
	.st5{fill:#999999;}
	.st6{fill:#B3B3B3;fill-opacity:0;}
	.st7{fill:#999999;fill-opacity:0;}
	.st8{fill:#CCCCCC;}
</style>
<g id="circle">
	<g class="st0">
		<path class="st1" d="M189.7,253.7c-28.1,0-50.9-22.8-50.9-50.9s22.8-50.9,50.9-50.9c28.1,0,50.9,22.8,50.9,50.9
			S217.8,253.7,189.7,253.7z M189.7,154.9c-26.4,0-47.9,21.5-47.9,47.9s21.5,47.9,47.9,47.9s47.9-21.5,47.9-47.9
			S216.2,154.9,189.7,154.9z"/>
		<g>
			<g>
				<path class="st2" d="M199.9,69.3c4.2,0.1,8.3,1,12.5,1.5l1.7-10.1c-4.5-0.6-8.9-1.5-13.4-1.7L199.9,69.3z"/>
				<path class="st2" d="M192.2,72.7c4.1,0.3,8.1,0.2,12.2,0.8l1.1-10.1c-4.3-0.6-8.7-0.6-13.1-0.9L192.2,72.7z"/>
				<path class="st2" d="M197.3,65.5l-6.9-0.3c-1.4,0-2.8,0.1-4.2,0.1c-0.7,0-1.5,0.1-2.2,0.1h-0.4l-0.5-11h0.4
					c0.8,0,1.5-0.1,2.3-0.1c1.5-0.1,3.1-0.2,4.7-0.1l7.4,0.3L197.3,65.5z M190,64.4c0.2,0,0.3,0,0.5,0l6.1,0.3l0.5-9.4l-6.5-0.3
					c-1.5,0-3.1,0.1-4.6,0.1c-0.6,0-1.3,0.1-1.9,0.1l0.4,9.4c0.6,0,1.2-0.1,1.8-0.1C187.4,64.5,188.7,64.4,190,64.4z"/>
				<path class="st2" d="M145,82c16.1-5.9,33.3-8.6,50.4-7.8l0.2-4.1c-17.6-0.8-35.4,2-52,8.1L145,82z"/>
				<path class="st2" d="M233.9,94.3c14.4,5.9,27.6,14.7,38.6,25.7l6.4-6.4c-11.9-11.8-26.1-21.3-41.6-27.7L233.9,94.3z"/>
				<path class="st2" d="M229.2,107l-0.4-0.2c-12.6-5.1-26.5-7.7-40.3-7.5h-0.4l-0.1-9.9h0.4c15.1-0.2,30.4,2.6,44.2,8.3l0.4,0.2
					L229.2,107z M189.9,98.5c13.3,0,26.7,2.6,38.8,7.5l3.1-7.6c-13.5-5.4-28.3-8.2-43.1-8.1l0.1,8.3
					C189.2,98.5,189.6,98.5,189.9,98.5z"/>
				<path class="st2" d="M113.4,99.6l-2.9-3.9l0.3-0.2C125,85,141.5,77.3,158.7,73.3l0.4-0.1l1.1,4.8l-0.4,0.1
					c-16.5,3.9-32.5,11.3-46.1,21.4L113.4,99.6z M111.6,95.8l2,2.6c13.6-9.9,29.3-17.3,45.7-21.2l-0.8-3.2
					C141.7,78.1,125.5,85.6,111.6,95.8z"/>
				<path class="st2" d="M117.5,93.6c1.1-0.7,2.3-1.4,3.4-2.1l-2.2-3.5c-1.2,0.7-2.4,1.4-3.5,2.1L117.5,93.6z"/>
				<polygon class="st2" points="112.3,97.4 115.5,95 113.1,91.6 109.8,94.1 				"/>
				<path class="st2" d="M107,101.8l-3.1-3.8l4-2.9l3,3.9L107,101.8z M105,98.1l2.1,2.5l2.6-1.9l-2-2.6L105,98.1z"/>
				<polygon class="st2" points="102.3,105.5 105.2,102.9 102.6,99.7 99.5,102.5 				"/>
				<path class="st2" d="M97.4,110.4L94,107l3.7-3.3l3.3,3.6L97.4,110.4z M95.2,107l2.3,2.3l2.4-2.2l-2.2-2.4L95.2,107z"/>
			</g>
			<g>
				<path class="st2" d="M56.2,192.6c0.1-4.2,1-8.3,1.5-12.5l-10.1-1.7c-0.6,4.5-1.5,8.9-1.7,13.4L56.2,192.6z"/>
				<path class="st2" d="M59.7,200.3c0.3-4.1,0.2-8.1,0.8-12.2L50.4,187c-0.6,4.3-0.6,8.7-0.9,13.1L59.7,200.3z"/>
				<path class="st2" d="M41.4,209.4V209c0-0.8-0.1-1.5-0.1-2.3c-0.1-1.5-0.2-3.1-0.1-4.6l0.3-7.4l11,0.6l-0.3,6.9
					c0,1.4,0.1,2.8,0.1,4.2c0,0.7,0.1,1.5,0.1,2.2v0.4L41.4,209.4z M42.3,195.5L42,202c0,1.5,0.1,3.1,0.1,4.6c0,0.6,0.1,1.3,0.1,1.9
					l9.4-0.4c0-0.6-0.1-1.2-0.1-1.8c-0.1-1.4-0.1-2.8-0.1-4.3l0.3-6.1L42.3,195.5z"/>
				<path class="st2" d="M68.9,247.5c-5.9-16.1-8.6-33.3-7.8-50.4l-4.1-0.2c-0.8,17.6,2,35.4,8.1,52L68.9,247.5z"/>
				<path class="st2" d="M81.3,158.6C87.2,144.2,96,131,107,120l-6.4-6.4c-11.8,11.9-21.3,26.1-27.7,41.6L81.3,158.6z"/>
				<path class="st2" d="M76.4,204.6v-0.4c-0.2-15.1,2.6-30.4,8.3-44.2l0.2-0.4l9.1,3.7l-0.2,0.4c-5.1,12.6-7.7,26.5-7.5,40.3v0.4
					L76.4,204.6z M85.3,160.7c-5.4,13.5-8.2,28.4-8.1,43.1l8.3-0.1c-0.1-13.6,2.4-27.4,7.5-39.9L85.3,160.7z"/>
				<path class="st2" d="M82.6,282.1l-0.2-0.3c-10.5-14.2-18.2-30.7-22.2-47.9l-0.1-0.4l4.8-1.1l0.1,0.4
					c3.9,16.5,11.3,32.5,21.4,46.1l0.2,0.3L82.6,282.1z M61,234c4.1,16.8,11.6,33,21.8,46.9l2.6-2c-9.9-13.5-17.3-29.3-21.2-45.7
					L61,234z"/>
				<path class="st2" d="M80.5,275.1c-0.7-1.1-1.4-2.3-2.1-3.4l-3.5,2.2c0.7,1.2,1.4,2.4,2.1,3.5L80.5,275.1z"/>
				<polygon class="st2" points="84.3,280.3 82,277.1 78.6,279.4 81,282.7 				"/>
				<path class="st2" d="M84.9,288.7l-2.9-4l3.9-3l2.8,3.9L84.9,288.7z M83.1,284.8l2,2.7l2.5-2.1l-1.9-2.6L83.1,284.8z"/>
				<polygon class="st2" points="92.5,290.3 89.8,287.3 86.7,290 89.5,293 				"/>
				<path class="st2" d="M93.9,298.5l-3.3-3.7l3.6-3.3l3.2,3.5L93.9,298.5z M91.7,294.9l2.2,2.4l2.3-2.3l-2.2-2.4L91.7,294.9z"/>
			</g>
			<g>
				<path class="st2" d="M179.6,336.3c-4.2-0.1-8.3-1-12.5-1.5l-1.7,10.1c4.5,0.6,8.9,1.5,13.4,1.7L179.6,336.3z"/>
				<path class="st2" d="M187.3,332.8c-4.1-0.3-8.1-0.2-12.2-0.8l-1.1,10.1c4.3,0.6,8.7,0.6,13.1,0.9L187.3,332.8z"/>
				<path class="st2" d="M189.5,351.4c-0.2,0-0.4,0-0.6,0l-7.4-0.3l0.6-11l6.9,0.3c1.4,0,2.8-0.1,4.2-0.1c0.7,0,1.5-0.1,2.2-0.1h0.4
					l0.5,11h-0.4c-0.8,0-1.5,0.1-2.3,0.1C192.3,351.3,190.9,351.4,189.5,351.4z M182.5,350.3l6.5,0.3c1.5,0,3.1-0.1,4.6-0.1
					c0.6,0,1.3-0.1,1.9-0.1l-0.4-9.4c-0.6,0-1.2,0.1-1.8,0.1c-1.4,0.1-2.8,0.1-4.3,0.1l-6.1-0.3L182.5,350.3z"/>
				<path class="st2" d="M234.4,323.6c-16.1,5.9-33.3,8.6-50.4,7.8l-0.2,4.1c17.6,0.8,35.4-2,52-8.1L234.4,323.6z"/>
				<path class="st2" d="M145.6,311.3c-14.4-5.9-27.6-14.7-38.6-25.7l-6.4,6.4c11.9,11.8,26.1,21.3,41.6,27.7L145.6,311.3z"/>
				<path class="st2" d="M189.6,316.1c-14.6,0-29.3-2.9-42.6-8.3l-0.4-0.2l3.7-9.1l0.4,0.2c12.2,5,25.6,7.6,38.9,7.6
					c0.5,0,0.9,0,1.4,0h0.4l0.1,9.9h-0.4C190.6,316.1,190.1,316.1,189.6,316.1z M147.7,307.2c13.1,5.3,27.6,8.1,41.9,8.1
					c0.4,0,0.8,0,1.1,0l-0.1-8.3c-0.3,0-0.7,0-1,0c-13.3,0-26.7-2.6-38.8-7.5L147.7,307.2z"/>
				<path class="st2" d="M220.4,332.5l-1.1-4.8l0.4-0.1c16.5-3.9,32.5-11.3,46.1-21.4l0.3-0.2l2.9,3.9l-0.3,0.2
					c-14.2,10.5-30.7,18.2-47.9,22.3L220.4,332.5z M220.2,328.3l0.8,3.2c16.8-4.1,33-11.6,46.9-21.8l-2-2.6
					C252.4,317.1,236.6,324.4,220.2,328.3z"/>
				<path class="st2" d="M262,312c-1.1,0.7-2.3,1.4-3.4,2.1l2.2,3.5c1.2-0.7,2.4-1.4,3.5-2.1L262,312z"/>
				<polygon class="st2" points="267.2,308.2 264,310.6 266.3,313.9 269.7,311.5 				"/>
				<path class="st2" d="M271.6,310.5l-3-3.9l3.9-2.8l3.1,3.8L271.6,310.5z M269.8,306.8l2,2.6l2.7-2l-2.1-2.5L269.8,306.8z"/>
				<polygon class="st2" points="277.2,300 274.3,302.7 276.9,305.8 280,303.1 				"/>
				<path class="st2" d="M281.8,301.9l-3.3-3.6l3.6-3.2l3.5,3.5L281.8,301.9z M279.6,298.4l2.2,2.4l2.4-2.2l-2.3-2.3L279.6,298.4z"
					/>
			</g>
			<g>
				<path class="st2" d="M323.3,213c-0.1,4.2-1,8.3-1.5,12.5l10.1,1.7c0.6-4.5,1.5-8.9,1.7-13.4L323.3,213z"/>
				<path class="st2" d="M319.8,205.3c-0.3,4.1-0.2,8.1-0.8,12.2l10.1,1.1c0.6-4.3,0.6-8.7,0.9-13.1L319.8,205.3z"/>
				<path class="st2" d="M338,210.9l-11-0.6l0.3-6.9c0-1.4-0.1-2.8-0.1-4.2c0-0.7-0.1-1.5-0.1-2.2v-0.4l11-0.5v0.4
					c0,0.8,0.1,1.5,0.1,2.3c0.1,1.5,0.2,3.1,0.1,4.7L338,210.9z M327.9,209.6l9.4,0.5l0.3-6.5c0-1.5-0.1-3.1-0.1-4.6
					c0-0.6-0.1-1.3-0.1-1.9l-9.4,0.4c0,0.6,0.1,1.2,0.1,1.8c0.1,1.4,0.1,2.8,0.1,4.3L327.9,209.6z"/>
				<path class="st2" d="M310.6,158.1c5.9,16.1,8.6,33.3,7.8,50.4l4.1,0.2c0.8-17.6-2-35.4-8.1-52L310.6,158.1z"/>
				<path class="st2" d="M298.2,246.9c-5.9,14.4-14.7,27.6-25.7,38.6l6.4,6.4c11.8-11.9,21.3-26.1,27.7-41.6L298.2,246.9z"/>
				<path class="st2" d="M294.6,245.9l-9.1-3.7l0.2-0.4c5.1-12.6,7.7-26.5,7.5-40.3v-0.4l9.9-0.1v0.4c0.2,15.1-2.6,30.4-8.3,44.2
					L294.6,245.9z M286.5,241.8l7.6,3.1c5.4-13.5,8.2-28.4,8.1-43.1l-8.3,0.1C294.1,215.5,291.6,229.3,286.5,241.8z"/>
				<path class="st2" d="M314.7,173.3l-0.1-0.4c-3.9-16.5-11.3-32.5-21.4-46.1l-0.2-0.3l3.9-2.9l0.2,0.3
					c10.5,14.2,18.2,30.7,22.2,47.9l0.1,0.4L314.7,173.3z M294.1,126.6c9.9,13.6,17.3,29.3,21.2,45.7l3.2-0.8
					c-4.1-16.8-11.6-33-21.8-46.9L294.1,126.6z"/>
				<path class="st2" d="M299,130.5c0.7,1.1,1.4,2.3,2.1,3.4l3.5-2.2c-0.7-1.2-1.4-2.4-2.1-3.5L299,130.5z"/>
				<polygon class="st2" points="295.2,125.3 297.5,128.5 300.9,126.2 298.4,122.9 				"/>
				<path class="st2" d="M293.6,123.9l-2.8-3.9l3.8-3.1l2.9,4L293.6,123.9z M291.9,120.2l1.9,2.6l2.6-2l-2-2.7L291.9,120.2z"/>
				<polygon class="st2" points="287,115.3 289.7,118.3 292.8,115.6 290,112.6 				"/>
				<path class="st2" d="M285.3,114l-3.2-3.6l3.5-3.5l3.3,3.7L285.3,114z M283.2,110.5l2.2,2.4l2.4-2.2l-2.2-2.4L283.2,110.5z"/>
			</g>
		</g>
		<path class="st3" d="M158.5,257.1c-19.3-11.2-31.4-31.9-31.4-54.2h3.7c0,21,11.4,40.5,29.6,51L158.5,257.1z M221.1,257.1l-1.9-3.2
			c18.2-10.5,29.5-30.1,29.5-51.1l3.7-0.3v0.3C252.4,225.1,240.5,245.9,221.1,257.1z M160.1,151.8l-1.9-3.2
			c9.5-5.5,20.4-8.5,31.5-8.5c10.9,0,21.7,2.9,31.2,8.3l-1.8,3.2c-8.9-5.1-19-7.8-29.3-7.8C179.3,143.8,169.1,146.5,160.1,151.8z"/>
		<g>
			<g>
				<path class="st1" d="M258.3,159.1c1,1.7,2.1,3.5,3.1,5.2l4.6-2.5c-1.1-1.9-2.2-3.7-3.3-5.6L258.3,159.1z"/>
				<path class="st1" d="M254.6,157.1c1.3,1.5,2.1,3.3,3.2,5l4.5-2.7c-1.1-1.8-2.1-3.7-3.4-5.3L254.6,157.1z"/>
				<path class="st1" d="M259.1,156.9l-0.1-0.2c-0.8-1.2-1.6-2.3-2.5-3.4c-0.4-0.6-0.8-1.1-1.2-1.7l-0.1-0.2l4.4-3.4l0.1,0.2
					c0.4,0.6,0.8,1.1,1.3,1.7c0.9,1.2,1.8,2.4,2.7,3.7l0.1,0.2L259.1,156.9z M255.8,151.6c0.4,0.5,0.7,1,1.1,1.5
					c0.8,1,1.6,2.1,2.4,3.2l4-2.7c-0.8-1.2-1.7-2.4-2.5-3.5c-0.4-0.5-0.8-1-1.1-1.5L255.8,151.6z"/>
				<path class="st1" d="M237.9,140.6c6.6,5.2,12.4,11.3,17.2,18.2l1.7-1.2c-4.9-7.1-10.8-13.4-17.6-18.7L237.9,140.6z"/>
				<path class="st1" d="M258.8,180c2.4,7.4,3.6,15.1,3.7,22.8h4.6c-0.1-8.2-1.4-16.4-3.9-24.3L258.8,180z"/>
				<path class="st1" d="M252.3,182.3l-0.1-0.2c-1.9-6.1-5.1-12.3-9.7-18.5l-0.1-0.2l4-3l0.1,0.2c4.9,6.7,8.4,13.4,10.4,19.9
					l0.1,0.2L252.3,182.3z M243,163.5c4.5,6.1,7.7,12.3,9.5,18.3l4-1.3c-2-6.4-5.4-13-10.2-19.5L243,163.5z"/>
				<path class="st1" d="M243.7,145.7l-0.1-0.1c-0.6-0.5-1.1-1-1.6-1.5c-1-0.9-2-1.8-3.1-2.6l-5-3.8l-5.3-3.3
					c-1.1-0.7-2.4-1.3-3.6-1.9c-0.7-0.3-1.3-0.6-2-1l-0.2-0.1l1.1-2.3l0.2,0.1c0.7,0.3,1.4,0.7,2,1c1.3,0.6,2.6,1.2,3.7,2l5.5,3.4
					l5.2,3.9c1.1,0.8,2.2,1.8,3.2,2.8c0.5,0.5,1.1,1,1.7,1.5l0.2,0.1L243.7,145.7z M223.2,131.3c0.6,0.3,1.2,0.6,1.8,0.9
					c1.2,0.6,2.5,1.1,3.6,1.9l5.4,3.3l5,3.8c1.1,0.8,2.1,1.8,3.1,2.7c0.5,0.4,1,0.9,1.5,1.4l1.1-1.2c-0.5-0.5-1-0.9-1.5-1.4
					c-1-0.9-2-1.9-3.2-2.7l-5.2-3.9l-5.5-3.3c-1.2-0.8-2.5-1.4-3.7-1.9c-0.6-0.3-1.2-0.6-1.8-0.9L223.2,131.3z"/>
				<path class="st1" d="M226.2,131.8c0.6,0.3,1.2,0.5,1.7,0.9l1-1.8c-0.6-0.3-1.2-0.6-1.8-0.9L226.2,131.8z"/>
				<polygon class="st1" points="223.4,130.5 225.1,131.3 226.1,129.5 224.3,128.6 				"/>
				<path class="st1" d="M222.4,130.2l-0.2-0.1c-0.2-0.1-0.4-0.2-0.6-0.3c-0.4-0.2-0.7-0.4-1.1-0.5l-0.2-0.1l1-2.3l0.2,0.1
					c0.4,0.2,0.8,0.4,1.2,0.5c0.2,0.1,0.4,0.2,0.6,0.3l0.2,0.1L222.4,130.2z M220.8,129c0.3,0.1,0.7,0.3,1,0.4
					c0.1,0.1,0.3,0.1,0.4,0.2l0.7-1.5c-0.2-0.1-0.3-0.1-0.5-0.2c-0.3-0.2-0.6-0.3-1-0.5L220.8,129z"/>
				<polygon class="st1" points="217.6,128.1 219.4,128.7 220.2,126.8 218.3,126.1 				"/>
				<path class="st1" d="M216.6,127.9l-2.2-0.8l0.8-2.4l2.3,0.8L216.6,127.9z M214.9,126.8l1.5,0.5l0.6-1.6l-1.5-0.5L214.9,126.8z"
					/>
			</g>
			<g>
				<path class="st1" d="M169.4,124.1c2-0.5,3.9-1.1,6-1.3l-0.9-5.1c-2.2,0.2-4.2,0.9-6.3,1.4L169.4,124.1z"/>
				<polygon class="st1" points="166.3,126.9 172.1,125.4 171,120.3 164.8,121.9 				"/>
				<path class="st1" d="M161.2,124.7l-1.9-5.3l0.5-0.2c2-0.7,4-1.5,6.1-1.9h0.2l1.5,5.4h-0.2c-1.9,0.4-3.8,1.1-5.6,1.8L161.2,124.7
					z M159.9,119.7l1.6,4.5l0.2-0.1c1.8-0.7,3.6-1.3,5.4-1.7l-1.3-4.6C163.8,118.2,161.8,118.9,159.9,119.7L159.9,119.7z"/>
				<path class="st1" d="M145.4,137.7c7-4.7,14.6-8.2,22.7-10.6l-0.6-2c-8.3,2.4-16.1,6.1-23.3,10.9L145.4,137.7z"/>
				<path class="st1" d="M189.4,130.1c7.7,0.1,15.5,1.2,22.8,3.6l1.4-4.4c-7.8-2.5-16.1-3.7-24.3-3.8L189.4,130.1z"/>
				<path class="st1" d="M168.6,140.5l-1.6-4.8l0.2-0.1c7.3-2.4,14.7-3.6,22.2-3.7h0.2v5h-0.2c-6.9,0.1-13.9,1.2-20.6,3.4
					L168.6,140.5z M167.5,136l1.3,4c6.7-2.2,13.5-3.3,20.4-3.4v-4.2C181.9,132.5,174.6,133.7,167.5,136z"/>
				<path class="st1" d="M132.1,149.5l-1.8-1.7l0.1-0.2c6.1-6.5,12.9-11.8,20.3-15.9l0.2-0.1l1.2,2.2l-0.2,0.1
					c-7.1,3.9-13.7,9.1-19.6,15.4L132.1,149.5z M130.9,147.7l1.2,1.1c5.8-6.2,12.4-11.3,19.4-15.2l-0.8-1.5
					C143.5,136.2,136.9,141.4,130.9,147.7z"/>
				<polygon class="st1" points="133.5,146.2 135,144.8 133.5,143.3 132,144.7 				"/>
				<polygon class="st1" points="131.4,148.5 132.7,147 131.2,145.6 129.8,147 				"/>
				<path class="st1" d="M129.3,151.1l-1.9-1.6l1.6-1.8l1.9,1.7L129.3,151.1z M128,149.4l1.3,1.1l1-1.1l-1.2-1.1L128,149.4z"/>
				<path class="st1" d="M127.2,153.2c0.4-0.5,0.7-1.1,1.2-1.5l-1.6-1.3c-0.5,0.5-0.8,1.1-1.2,1.6L127.2,153.2z"/>
				<path class="st1" d="M125.4,156l-2-1.5l1.4-1.9l2,1.5L125.4,156z M124,154.5l1.4,1l0.9-1.2l-1.3-1L124,154.5z"/>
			</g>
			<g>
				<path class="st1" d="M108.6,197.9l0.2-3c0.1-1,0.3-2,0.4-3l-5.1-0.7c-0.1,1.1-0.4,2.1-0.4,3.2l-0.2,3.2L108.6,197.9z"/>
				<polygon class="st1" points="110.4,201.6 110.7,195.6 105.5,195.2 105.2,201.5 				"/>
				<path class="st1" d="M101.1,205.9v-0.2c0-0.4,0-0.7-0.1-1.1c0-0.7-0.1-1.5-0.1-2.2l0.2-3.5l5.6,0.2l-0.2,3.3c0,0.7,0,1.3,0.1,2
					c0,0.4,0,0.7,0.1,1.1v0.2L101.1,205.9z M101.5,199.3l-0.1,3.1c0,0.7,0,1.5,0.1,2.2c0,0.3,0,0.6,0,0.9l4.8-0.2c0-0.3,0-0.6,0-0.9
					c0-0.7-0.1-1.4-0.1-2l0.1-2.9L101.5,199.3z"/>
				<path class="st1" d="M114.1,224.8c-2.5-8-3.2-16.5-3-24.8l-2.1-0.1c-0.2,8.6,0.6,17.2,3.1,25.5L114.1,224.8z"/>
				<path class="st1" d="M120.4,180.7c2.3-7.4,6-14.3,10.5-20.6l-3.7-2.7c-4.8,6.7-8.7,14-11.2,21.9L120.4,180.7z"/>
				<path class="st1" d="M118.9,203.7v-0.2c0-7.7,1.1-15.2,3.3-22.3l0.1-0.2l4.8,1.5l-0.1,0.2c-2,6.6-3.1,13.5-3.1,20.7v0.2
					L118.9,203.7z M122.6,181.5c-2.1,6.9-3.2,14.2-3.2,21.7h4.2c0-7.1,1.1-13.9,3-20.4L122.6,181.5z"/>
				<path class="st1" d="M119,242.3l-0.1-0.2c-4.1-7.5-7.1-15.7-8.8-24.2v-0.2l2.4-0.5v0.2c1.6,8.3,4.5,16.2,8.5,23.5l0.1,0.2
					L119,242.3z M110.6,218.1c1.7,8.3,4.6,16.3,8.6,23.7l1.5-0.8c-3.9-7.2-6.8-15.1-8.4-23.2L110.6,218.1z"/>
				<polygon class="st1" points="118.5,238.7 117.7,237 115.8,237.9 116.7,239.7 				"/>
				<path class="st1" d="M120,241.5c-0.4-0.5-0.6-1.1-0.9-1.7l-1.8,1c0.3,0.6,0.6,1.2,0.9,1.8L120,241.5z"/>
				<path class="st1" d="M119.8,245.6l-1.3-2.1l2.2-1.2l1.2,2L119.8,245.6z M119.1,243.7l0.8,1.4l1.4-0.9l-0.8-1.3L119.1,243.7z"/>
				<polygon class="st1" points="123.3,246.9 122.2,245.3 120.5,246.4 121.5,248.1 				"/>
				<path class="st1" d="M123.4,251l-1.4-1.9l2.1-1.4l1.4,1.9L123.4,251z M122.5,249.2l0.9,1.3l1.4-1l-0.9-1.2L122.5,249.2z"/>
			</g>
			<g>
				<path class="st1" d="M160,278.5c-1.9-0.6-3.7-1.6-5.6-2.5l-2.3,4.7c2,0.9,3.9,2,5.9,2.6L160,278.5z"/>
				<path class="st1" d="M164.1,277.9c-1.9-0.7-3.7-1.3-5.6-2.1l-2,4.8c2,0.8,4,1.5,5.9,2.2L164.1,277.9z"/>
				<path class="st1" d="M165.3,288.1h-0.2c-1.5-0.3-3-0.9-4.4-1.4c-0.6-0.2-1.3-0.5-1.9-0.7l-0.2-0.1l2-5.3l0.2,0.1
					c0.6,0.2,1.3,0.5,1.9,0.7c1.3,0.5,2.6,1,4,1.3h0.2L165.3,288.1z M159.2,285.6c0.6,0.2,1.2,0.4,1.8,0.6c1.3,0.5,2.7,1,4.1,1.3
					l1.3-4.6c-1.3-0.3-2.6-0.8-3.9-1.3c-0.6-0.2-1.1-0.4-1.7-0.6L159.2,285.6z"/>
				<path class="st1" d="M187.3,281.5c-8.4-0.1-16.7-1.9-24.6-4.7l-0.7,2c8.1,2.9,16.6,4.7,25.2,4.8L187.3,281.5z"/>
				<path class="st1" d="M147.3,261.8c-1.5-1.2-3.2-2.2-4.6-3.5l-4.3-3.9l-3.9-4.3c-1.4-1.4-2.4-3.1-3.6-4.6l-3.7,2.7
					c1.3,1.6,2.4,3.4,3.8,4.9l4.2,4.6l4.6,4.1c1.5,1.4,3.3,2.5,4.9,3.8L147.3,261.8z"/>
				<path class="st1" d="M168.7,270.5l-0.2-0.1c-7.1-2.3-13.9-5.7-20.1-10.1l-0.2-0.1l2.9-4.1l0.2,0.1c5.8,4.1,12.1,7.3,18.7,9.4
					l0.2,0.1L168.7,270.5z M148.8,260.1c6.1,4.3,12.7,7.6,19.6,9.9l1.3-4c-6.5-2.1-12.7-5.3-18.4-9.3L148.8,260.1z"/>
				<path class="st1" d="M190.1,283.8c-3.4,0-7-0.2-10.6-0.6h-0.2l0.3-2.5h0.2c8.9,1,17.2,0.7,24.9-0.8h0.2l0.5,2.4h-0.2
					C200.5,283.3,195.4,283.8,190.1,283.8z M179.8,282.8c8.9,1,17.4,0.7,25.2-0.8l-0.3-1.6c-7.6,1.5-15.9,1.7-24.7,0.8L179.8,282.8z
					"/>
				<polygon class="st1" points="201.9,281.6 200,281.9 200.3,284 202.2,283.7 				"/>
				<polygon class="st1" points="205,281.1 203.1,281.4 203.5,283.5 205.4,283.2 				"/>
				<path class="st1" d="M206.5,283.2l-0.5-2.4l2.3-0.6l0.6,2.4L206.5,283.2z M206.5,281l0.3,1.6l1.5-0.4l-0.4-1.6L206.5,281z"/>
				<polygon class="st1" points="211.2,279.6 209.3,280.1 209.8,282.1 211.7,281.6 				"/>
				<path class="st1" d="M212.8,281.6l-0.7-2.4l0.3-0.1c0.6-0.1,1.2-0.3,1.7-0.5l0.2-0.1l0.8,2.4l-0.2,0.1c-0.6,0.2-1.2,0.4-1.8,0.5
					L212.8,281.6z M212.6,279.5l0.5,1.6c0.5-0.1,1-0.3,1.5-0.4l-0.5-1.6C213.6,279.2,213.1,279.3,212.6,279.5z"/>
			</g>
			<g>
				<polygon class="st1" points="252.5,254.5 248.4,259 252.2,262.6 256.5,257.8 				"/>
				<path class="st1" d="M253.2,250.4c-1.2,1.6-2.3,3.2-3.7,4.6l3.9,3.4c1.5-1.5,2.7-3.2,4-4.9L253.2,250.4z"/>
				<path class="st1" d="M259.2,258.1l-4.4-3.5l4-5.3l4.6,3.1L259.2,258.1z M255.4,254.5l3.7,3l3.7-5l-4-2.7L255.4,254.5z"/>
				<path class="st1" d="M263.8,229.4c-2.8,7.9-6.8,15.4-12.1,21.9l1.6,1.3c5.4-6.7,9.5-14.4,12.4-22.5L263.8,229.4z"/>
				<path class="st1" d="M232.7,261.4c-6.2,4.5-13.1,8.3-20.5,10.6l1.4,4.4c7.9-2.5,15.2-6.4,21.8-11.3L232.7,261.4z"/>
				<path class="st1" d="M231.5,260l-3-4l0.2-0.1c5.9-4.3,10.9-9.3,14.7-14.9l0.1-0.2l4.1,2.9l-0.1,0.2c-4.1,6-9.5,11.4-15.8,16
					L231.5,260z M229.1,256l2.5,3.4c6.2-4.5,11.4-9.8,15.4-15.6l-3.4-2.4C239.8,246.8,234.9,251.8,229.1,256z"/>
				<path class="st1" d="M262.9,237.5l-2.3-1.1l0.1-0.2c3.8-8.3,6.1-16.3,6.9-24V212l2.5,0.3v0.2c-0.8,7.9-3.2,16.2-7.1,24.7
					L262.9,237.5z M261.2,236.2l1.5,0.7c3.8-8.3,6.2-16.5,7-24.2l-1.7-0.2C267.3,220.1,265,228.1,261.2,236.2z"/>
				<polygon class="st1" points="268.5,215.5 268.2,217.5 270.2,217.9 270.5,215.9 				"/>
				<polygon class="st1" points="268.9,212.4 268.6,214.4 270.7,214.7 271,212.7 				"/>
				<path class="st1" d="M271.4,211.7l-2.5-0.3v-0.2c0.1-0.4,0.1-0.8,0.1-1.2c0-0.2,0-0.5,0-0.7v-0.2l2.5,0.2v0.2c0,0.2,0,0.5,0,0.7
					c0,0.4,0,0.9-0.1,1.3V211.7z M269.3,211.1l1.7,0.2c0-0.4,0.1-0.7,0.1-1.1c0-0.2,0-0.3,0-0.5l-1.7-0.1c0,0.2,0,0.3,0,0.5
					C269.4,210.4,269.4,210.7,269.3,211.1z"/>
				<polygon class="st1" points="269.4,206.2 269.3,208.1 271.4,208.2 271.5,206.2 				"/>
				<path class="st1" d="M271.7,205.2l-2.5-0.1l0.1-2.4h2.5L271.7,205.2z M269.7,204.8h1.7l0.1-1.6h-1.7L269.7,204.8z"/>
			</g>
		</g>
		<g>
			<g>
				<g>
					<polygon class="st1" points="188.6,272.2 189.7,272.3 189.7,280.6 188.5,280.5 					"/>
					<polygon class="st1" points="186.6,272.1 187.7,272.2 187.3,283.9 186.1,283.9 					"/>
					<polygon class="st1" points="184.5,272 185.6,272.1 183.5,308.4 181.9,308.3 					"/>
					<path class="st1" d="M182.5,271.9c0.4,0,0.7,0,1.1,0.1l-0.6,7.4c-0.4,0-0.8,0-1.2-0.1L182.5,271.9z"/>
					<polygon class="st1" points="180.5,271.6 181.5,271.8 179.1,292.4 177.7,292.2 					"/>
					<polygon class="st1" points="178.4,271.3 179.5,271.4 178.5,278.2 177.3,278 					"/>
					<polygon class="st1" points="176.4,271 177.5,271.1 170.1,312.6 168.4,312.4 					"/>
					<polygon class="st1" points="174.4,270.5 175.5,270.8 172.8,283.8 171.5,283.5 					"/>
					<polygon class="st1" points="172.4,270 173.5,270.3 167.6,294.9 166.2,294.5 					"/>
					<polygon class="st1" points="170.5,269.5 171.5,269.8 163.4,299.6 161.9,299.2 					"/>
					<path class="st1" d="M168.5,269c0.3,0.1,0.7,0.3,1,0.3l-3.8,12.7c-0.4-0.1-0.8-0.2-1.2-0.4L168.5,269z"/>
					<polygon class="st1" points="166.6,268.3 167.6,268.6 159.6,292.6 158.2,292.1 					"/>
					<polygon class="st1" points="164.7,267.6 165.7,267.9 151.1,307.5 149.5,306.8 					"/>
					<polygon class="st1" points="162.7,266.9 163.8,267.2 156.8,284.6 155.5,284.1 					"/>
					<polygon class="st1" points="160.9,266 161.9,266.5 145,305 143.4,304.3 					"/>
					<polygon class="st1" points="159.1,265.1 160.1,265.6 144.1,299.3 142.5,298.6 					"/>
					<polygon class="st1" points="157.2,264.2 158.2,264.7 148.9,282.8 147.7,282.2 					"/>
					<polygon class="st1" points="155.4,263.2 156.4,263.8 142.2,289.6 140.9,288.8 					"/>
					<polygon class="st1" points="153.7,262.1 154.6,262.7 146.2,277 145.1,276.3 					"/>
					<polygon class="st1" points="151.9,261.1 152.9,261.6 138.5,284.6 137.2,283.8 					"/>
					<path class="st1" d="M150.2,259.9c0.3,0.2,0.6,0.5,0.9,0.6l-10.6,15.8c-0.4-0.2-0.8-0.5-1.1-0.8L150.2,259.9z"/>
					<polygon class="st1" points="148.6,258.7 149.5,259.4 140.9,271.4 139.8,270.6 					"/>
					<polygon class="st1" points="147,257.5 147.8,258.1 139.7,268.9 138.6,268.1 					"/>
					<path class="st1" d="M145.3,256.2c0.3,0.3,0.6,0.4,0.9,0.7l-14.4,17.9c-0.4-0.3-0.8-0.6-1.1-0.9L145.3,256.2z"/>
					<polygon class="st1" points="143.8,254.8 144.6,255.6 124.8,278.8 123.6,277.8 					"/>
					<polygon class="st1" points="142.3,253.5 143.1,254.2 122.9,276.4 121.8,275.4 					"/>
					<polygon class="st1" points="140.8,252.1 141.6,252.8 131.5,263.3 130.5,262.4 					"/>
					<polygon class="st1" points="139.4,250.6 140.1,251.4 116.7,274.3 115.6,273.2 					"/>
					<polygon class="st1" points="138,249.1 138.7,249.9 121.9,265.4 120.9,264.4 					"/>
					<polygon class="st1" points="136.6,247.6 137.4,248.4 131.8,253.2 131,252.3 					"/>
					<polygon class="st1" points="135.3,246 136,246.8 110.6,267.6 109.7,266.4 					"/>
					<polygon class="st1" points="134.1,244.3 134.8,245.2 111.5,263.2 110.5,262 					"/>
					<polygon class="st1" points="132.9,242.7 133.5,243.5 108.8,261.5 107.9,260.3 					"/>
					<path class="st1" d="M131.7,241c0.2,0.3,0.4,0.6,0.6,0.9l-41.2,28.2c-0.4-0.5-0.7-1-1-1.6L131.7,241z"/>
					<polygon class="st1" points="130.7,239.2 131.2,240.2 91.3,265.7 90.4,264.2 					"/>
					<polygon class="st1" points="129.6,237.5 130.2,238.4 98.6,257.3 97.7,255.9 					"/>
				</g>
				<g>
					<polygon class="st1" points="129,236.6 129.6,237.5 122.4,241.6 121.8,240.6 					"/>
					<polygon class="st1" points="128.1,234.8 128.5,235.7 118.2,241.3 117.6,240.2 					"/>
					<polygon class="st1" points="127.2,232.9 127.7,233.9 95.2,250.2 94.4,248.7 					"/>
					<polygon class="st1" points="126.3,231.1 126.8,232 120.1,235.2 119.5,234.1 					"/>
					<path class="st1" d="M125.5,229.2c0.1,0.3,0.2,0.7,0.4,1l-19.1,8.2c-0.2-0.4-0.4-0.9-0.5-1.3L125.5,229.2z"/>
					<polygon class="st1" points="124.8,227.3 125.1,228.3 118.8,230.8 118.4,229.7 					"/>
					<polygon class="st1" points="124.1,225.4 124.4,226.4 84.8,240.7 84.2,239.1 					"/>
					<polygon class="st1" points="123.3,223.5 123.7,224.5 111.1,228.6 110.7,227.4 					"/>
					<polygon class="st1" points="122.9,221.5 123.1,222.5 98.9,229.7 98.5,228.2 					"/>
					<polygon class="st1" points="122.4,219.5 122.6,220.5 92.8,228.4 92.4,226.9 					"/>
					<polygon class="st1" points="121.8,217.5 122.1,218.6 109.2,221.6 108.9,220.3 					"/>
					<polygon class="st1" points="121.5,215.5 121.6,216.6 96.8,221.6 96.6,220.1 					"/>
					<polygon class="st1" points="121.2,213.5 121.3,214.6 79.8,221.6 79.5,219.9 					"/>
					<polygon class="st1" points="120.8,211.5 121,212.5 102.5,215.1 102.3,213.8 					"/>
					<path class="st1" d="M120.6,209.4c0,0.4,0,0.7,0.1,1.1l-41.9,4.6c-0.1-0.6-0.2-1.2-0.2-1.7L120.6,209.4z"/>
					<polygon class="st1" points="120.5,207.4 120.5,208.5 83.3,211.5 83.2,209.8 					"/>
					<polygon class="st1" points="120.4,205.3 120.4,206.4 100.1,207.5 100,206.1 					"/>
					<polygon class="st1" points="120.3,203.3 120.3,204.4 90.9,205 90.8,203.5 					"/>
					<polygon class="st1" points="120.3,201.2 120.3,202.3 103.7,202.2 103.8,200.8 					"/>
					<polygon class="st1" points="120.4,199.2 120.4,200.3 93.3,199.3 93.4,197.8 					"/>
					<polygon class="st1" points="120.5,197.1 120.5,198.2 101.6,197 101.6,195.6 					"/>
					<path class="st1" d="M120.7,195.1c-0.1,0.4-0.1,0.7-0.1,1.1l-14.7-1.4c0-0.4,0.1-0.9,0.1-1.3L120.7,195.1z"/>
					<polygon class="st1" points="121,193 120.8,194.1 107.4,192.5 107.6,191.2 					"/>
					<polygon class="st1" points="121.3,191 121.2,192.1 98.5,188.6 98.7,187.2 					"/>
					<polygon class="st1" points="121.6,189 121.5,190.1 91.4,184.5 91.6,183 					"/>
					<polygon class="st1" points="122.1,187 121.8,188.1 92.5,181.7 92.9,180.2 					"/>
					<polygon class="st1" points="122.6,185 122.4,186.1 108.3,182.6 108.6,181.3 					"/>
					<polygon class="st1" points="123.1,183.1 122.9,184.1 91.3,175.3 91.7,173.8 					"/>
					<polygon class="st1" points="123.7,181.1 123.3,182.1 101.4,175.3 101.9,174 					"/>
					<polygon class="st1" points="124.4,179.2 124.1,180.2 117.1,177.8 117.5,176.7 					"/>
					<polygon class="st1" points="125.1,177.3 124.8,178.3 94.1,166.7 94.7,165.2 					"/>
					<path class="st1" d="M125.9,175.4c-0.2,0.3-0.3,0.7-0.4,1l-27.2-11.2c0.2-0.5,0.3-1,0.6-1.4L125.9,175.4z"/>
					<polygon class="st1" points="126.8,173.5 126.3,174.5 98.4,162.1 99.1,160.6 					"/>
					<polygon class="st1" points="127.7,171.7 127.2,172.7 82.2,151 83,149.3 					"/>
					<polygon class="st1" points="128.5,169.8 128.1,170.8 86,149 86.8,147.3 					"/>
					<polygon class="st1" points="129.6,168.1 129,169 96.9,151.1 97.7,149.7 					"/>
				</g>
				<g>
					<polygon class="st1" points="130.2,167.2 129.6,168.1 122.4,163.9 123.1,162.9 					"/>
					<polygon class="st1" points="131.2,165.4 130.7,166.3 120.7,160.2 121.3,159.1 					"/>
					<path class="st1" d="M132.3,163.7c-0.2,0.3-0.4,0.6-0.6,0.9l-30.3-20c0.3-0.5,0.6-1,0.9-1.4L132.3,163.7z"/>
					<polygon class="st1" points="133.5,162 132.9,162.9 126.8,158.7 127.6,157.7 					"/>
					<polygon class="st1" points="134.8,160.4 134.1,161.3 117.5,148.8 118.3,147.7 					"/>
					<polygon class="st1" points="136,158.7 135.3,159.6 130,155.4 130.7,154.4 					"/>
					<polygon class="st1" points="137.4,157.2 136.6,158 104.4,130.8 105.6,129.5 					"/>
					<polygon class="st1" points="138.7,155.7 138,156.5 128.1,147.7 129,146.7 					"/>
					<polygon class="st1" points="140.1,154.2 139.4,155 121.1,137.6 122.1,136.5 					"/>
					<polygon class="st1" points="141.6,152.8 140.8,153.5 119,131.6 120.2,130.5 					"/>
					<polygon class="st1" points="143.1,151.4 142.3,152.1 133.2,142.4 134.2,141.6 					"/>
					<polygon class="st1" points="144.6,150 143.8,150.7 127.1,131.8 128.2,130.8 					"/>
					<path class="st1" d="M146.2,148.7c-0.3,0.2-0.6,0.4-0.9,0.7l-27-32.4c0.4-0.4,0.9-0.7,1.4-1.1L146.2,148.7z"/>
					<polygon class="st1" points="147.8,147.5 147,148.1 135.4,133.4 136.6,132.6 					"/>
					<polygon class="st1" points="149.5,146.2 148.6,146.9 123.6,113 125,111.9 					"/>
					<path class="st1" d="M151.1,145c-0.3,0.2-0.6,0.4-0.9,0.6L129,114.9c0.5-0.3,0.9-0.7,1.4-1L151.1,145z"/>
					<polygon class="st1" points="152.9,144 151.9,144.5 140.8,127.4 142,126.7 					"/>
					<polygon class="st1" points="154.6,142.9 153.7,143.5 138.4,118.3 139.7,117.5 					"/>
					<polygon class="st1" points="156.4,141.8 155.4,142.4 147.3,128 148.4,127.3 					"/>
					<polygon class="st1" points="158.2,140.9 157.2,141.4 144.5,117.4 145.9,116.8 					"/>
					<polygon class="st1" points="160.1,140 159.1,140.5 150.7,123.5 151.9,122.9 					"/>
					<polygon class="st1" points="161.9,139.1 160.9,139.6 154.8,126.2 156,125.6 					"/>
					<polygon class="st1" points="163.8,138.4 162.7,138.7 157.5,126.2 158.7,125.8 					"/>
					<polygon class="st1" points="165.7,137.7 164.7,138 156.4,116.7 157.8,116.2 					"/>
					<polygon class="st1" points="167.6,137 166.6,137.3 156.4,108.5 157.9,108 					"/>
					<path class="st1" d="M169.5,136.3c-0.4,0.1-0.7,0.2-1,0.3l-9.2-28.6c0.5-0.2,1-0.4,1.5-0.5L169.5,136.3z"/>
					<polygon class="st1" points="171.5,135.8 170.5,136.1 166.4,122.1 167.7,121.8 					"/>
					<polygon class="st1" points="173.5,135.3 172.4,135.6 164.3,103.8 165.9,103.4 					"/>
					<polygon class="st1" points="175.5,134.8 174.4,135 169.4,112.7 170.8,112.3 					"/>
					<polygon class="st1" points="177.5,134.4 176.4,134.6 175,127.3 176.2,127.2 					"/>
					<polygon class="st1" points="179.5,134.1 178.4,134.3 173.2,102 174.7,101.7 					"/>
					<polygon class="st1" points="181.5,133.8 180.5,134 176.6,104.8 178.1,104.6 					"/>
					<path class="st1" d="M183.6,133.6c-0.4,0-0.7,0-1.1,0.1l-3.1-30.4c0.5-0.1,1-0.1,1.6-0.1L183.6,133.6z"/>
					<polygon class="st1" points="185.6,133.5 184.5,133.6 180.9,83.8 182.7,83.7 					"/>
					<polygon class="st1" points="187.7,133.4 186.6,133.5 184.5,86.1 186.3,86.1 					"/>
					<polygon class="st1" points="189.7,133.3 188.6,133.4 188.1,96.6 189.7,96.5 					"/>
				</g>
			</g>
			<g class="st4">
				<g>
					<polygon class="st1" points="190.8,133.4 189.7,133.3 189.7,125 191,125.1 					"/>
					<polygon class="st1" points="192.9,133.5 191.8,133.4 192.1,121.7 193.4,121.7 					"/>
					<polygon class="st1" points="194.9,133.6 193.8,133.5 196,97.2 197.6,97.3 					"/>
					<path class="st1" d="M197,133.7c-0.4,0-0.7,0-1.1-0.1l0.6-7.4c0.4,0,0.8,0,1.2,0.1L197,133.7z"/>
					<polygon class="st1" points="199,134 197.9,133.8 200.4,113.1 201.8,113.4 					"/>
					<polygon class="st1" points="201,134.3 200,134.1 201,127.4 202.1,127.6 					"/>
					<polygon class="st1" points="203.1,134.6 202,134.4 209.4,93 211.1,93.2 					"/>
					<polygon class="st1" points="205.1,135 204,134.8 206.7,121.8 208,122.1 					"/>
					<polygon class="st1" points="207,135.6 206,135.3 211.9,110.7 213.3,111.1 					"/>
					<polygon class="st1" points="209,136.1 208,135.8 216,106 217.6,106.4 					"/>
					<path class="st1" d="M211,136.6c-0.3-0.1-0.7-0.3-1-0.3l3.8-12.7c0.4,0.1,0.8,0.2,1.2,0.4L211,136.6z"/>
					<polygon class="st1" points="212.9,137.3 211.9,137 219.9,113 221.3,113.5 					"/>
					<polygon class="st1" points="214.8,138 213.8,137.7 228.4,98.1 230,98.7 					"/>
					<polygon class="st1" points="216.7,138.7 215.7,138.4 222.7,121 224,121.5 					"/>
					<polygon class="st1" points="218.6,139.6 217.6,139.1 234.5,100.5 236.1,101.3 					"/>
					<polygon class="st1" points="220.4,140.5 219.4,140 235.4,106.3 236.9,107 					"/>
					<polygon class="st1" points="222.3,141.4 221.3,140.9 230.5,122.8 231.8,123.4 					"/>
					<polygon class="st1" points="224,142.4 223.1,141.8 237.3,116 238.6,116.8 					"/>
					<polygon class="st1" points="225.8,143.5 224.8,142.9 233.2,128.6 234.4,129.3 					"/>
					<polygon class="st1" points="227.5,144.5 226.6,144 241,121 242.3,121.8 					"/>
					<path class="st1" d="M229.2,145.6c-0.3-0.2-0.6-0.5-0.9-0.6l10.6-15.8c0.4,0.2,0.8,0.5,1.1,0.8L229.2,145.6z"/>
					<polygon class="st1" points="230.9,146.9 230,146.2 238.6,134.2 239.7,135 					"/>
					<polygon class="st1" points="232.5,148.1 231.6,147.5 239.8,136.7 240.9,137.4 					"/>
					<path class="st1" d="M234.2,149.3c-0.3-0.3-0.6-0.4-0.9-0.7l14.4-17.9c0.4,0.3,0.8,0.6,1.1,0.9L234.2,149.3z"/>
					<polygon class="st1" points="235.7,150.7 234.9,150 254.7,126.8 255.9,127.8 					"/>
					<polygon class="st1" points="237.2,152.1 236.4,151.4 256.6,129.1 257.7,130.2 					"/>
					<polygon class="st1" points="238.7,153.5 237.9,152.8 248,142.3 249,143.2 					"/>
					<polygon class="st1" points="240.1,155 239.4,154.2 262.8,131.2 263.9,132.4 					"/>
					<polygon class="st1" points="241.5,156.5 240.7,155.7 257.6,140.1 258.6,141.2 					"/>
					<polygon class="st1" points="242.9,158 242.1,157.2 247.7,152.4 248.5,153.3 					"/>
					<polygon class="st1" points="244.1,159.6 243.5,158.7 268.8,137.9 269.8,139.2 					"/>
					<polygon class="st1" points="245.4,161.3 244.7,160.4 268,142.4 269,143.6 					"/>
					<polygon class="st1" points="246.6,162.9 245.9,162 270.7,144.1 271.6,145.3 					"/>
					<path class="st1" d="M247.8,164.6c-0.2-0.3-0.4-0.6-0.6-0.9l41.2-28.2c0.4,0.5,0.7,1,1,1.6L247.8,164.6z"/>
					<polygon class="st1" points="248.8,166.3 248.3,165.4 288.2,139.9 289.1,141.4 					"/>
					<polygon class="st1" points="249.9,168.1 249.3,167.2 280.9,148.2 281.7,149.7 					"/>
				</g>
				<g>
					<polygon class="st1" points="250.5,169 249.9,168.1 257.1,163.9 257.7,165 					"/>
					<polygon class="st1" points="251.4,170.8 251,169.8 261.3,164.3 261.8,165.4 					"/>
					<polygon class="st1" points="252.3,172.7 251.8,171.7 284.3,155.4 285,156.9 					"/>
					<polygon class="st1" points="253.2,174.5 252.7,173.5 259.4,170.4 259.9,171.5 					"/>
					<path class="st1" d="M254,176.4c-0.1-0.3-0.2-0.7-0.4-1l19.1-8.2c0.2,0.4,0.4,0.9,0.5,1.3L254,176.4z"/>
					<polygon class="st1" points="254.7,178.3 254.3,177.3 260.7,174.8 261.1,175.9 					"/>
					<polygon class="st1" points="255.4,180.2 255,179.2 294.7,164.9 295.3,166.5 					"/>
					<polygon class="st1" points="256.1,182.1 255.8,181.1 268.4,177 268.8,178.2 					"/>
					<polygon class="st1" points="256.6,184.1 256.4,183.1 280.6,175.9 281,177.3 					"/>
					<polygon class="st1" points="257.1,186.1 256.9,185 286.7,177.2 287.1,178.7 					"/>
					<polygon class="st1" points="257.7,188.1 257.4,187 270.3,184 270.6,185.3 					"/>
					<polygon class="st1" points="258,190.1 257.9,189 282.7,184 282.9,185.5 					"/>
					<polygon class="st1" points="258.3,192.1 258.2,191 299.7,183.9 300,185.7 					"/>
					<polygon class="st1" points="258.6,194.1 258.5,193 277,190.4 277.2,191.8 					"/>
					<path class="st1" d="M258.9,196.2c0-0.4,0-0.7-0.1-1.1l41.9-4.6c0.1,0.6,0.2,1.2,0.2,1.7L258.9,196.2z"/>
					<polygon class="st1" points="259,198.2 258.9,197.1 296.2,194.1 296.3,195.8 					"/>
					<polygon class="st1" points="259.1,200.3 259,199.2 279.4,198.1 279.5,199.5 					"/>
					<polygon class="st1" points="259.2,202.3 259.2,201.2 288.6,200.6 288.7,202.1 					"/>
					<polygon class="st1" points="259.2,204.4 259.2,203.3 275.8,203.4 275.7,204.7 					"/>
					<polygon class="st1" points="259,206.4 259.1,205.3 286.2,206.3 286.1,207.8 					"/>
					<polygon class="st1" points="258.9,208.5 259,207.4 277.9,208.6 277.8,210 					"/>
					<path class="st1" d="M258.8,210.5c0.1-0.4,0.1-0.7,0.1-1.1l14.7,1.4c0,0.4-0.1,0.9-0.1,1.3L258.8,210.5z"/>
					<polygon class="st1" points="258.5,212.5 258.6,211.5 272.1,213.1 271.9,214.4 					"/>
					<polygon class="st1" points="258.2,214.6 258.3,213.5 281,217 280.8,218.4 					"/>
					<polygon class="st1" points="257.9,216.6 258,215.5 288.1,221.1 287.8,222.6 					"/>
					<polygon class="st1" points="257.4,218.6 257.7,217.5 287,223.8 286.6,225.4 					"/>
					<polygon class="st1" points="256.9,220.5 257.1,219.5 271.2,223 270.9,224.3 					"/>
					<polygon class="st1" points="256.4,222.5 256.6,221.5 288.2,230.3 287.8,231.8 					"/>
					<polygon class="st1" points="255.8,224.5 256.1,223.5 278,230.3 277.5,231.6 					"/>
					<polygon class="st1" points="255,226.4 255.4,225.4 262.4,227.8 262,228.9 					"/>
					<polygon class="st1" points="254.3,228.3 254.7,227.3 285.4,238.8 284.8,240.4 					"/>
					<path class="st1" d="M253.6,230.2c0.2-0.3,0.3-0.7,0.4-1l27.2,11.2c-0.2,0.5-0.3,1-0.6,1.4L253.6,230.2z"/>
					<polygon class="st1" points="252.7,232 253.2,231.1 281.1,243.5 280.4,245 					"/>
					<polygon class="st1" points="251.8,233.9 252.3,232.9 297.3,254.6 296.5,256.3 					"/>
					<polygon class="st1" points="251,235.7 251.4,234.8 293.5,256.6 292.6,258.2 					"/>
					<polygon class="st1" points="249.9,237.5 250.5,236.6 282.6,254.5 281.7,255.9 					"/>
				</g>
				<g>
					<polygon class="st1" points="249.3,238.4 249.9,237.5 257.1,241.6 256.4,242.7 					"/>
					<polygon class="st1" points="248.3,240.2 248.8,239.2 258.8,245.4 258.2,246.5 					"/>
					<path class="st1" d="M247.2,241.9c0.2-0.3,0.4-0.6,0.6-0.9l30.3,20c-0.3,0.5-0.6,1-0.9,1.4L247.2,241.9z"/>
					<polygon class="st1" points="245.9,243.5 246.6,242.7 252.7,246.9 251.9,247.9 					"/>
					<polygon class="st1" points="244.7,245.2 245.4,244.3 262,256.8 261.2,257.9 					"/>
					<polygon class="st1" points="243.5,246.8 244.1,246 249.5,250.2 248.8,251.2 					"/>
					<polygon class="st1" points="242.1,248.4 242.9,247.6 275.1,274.7 273.9,276 					"/>
					<polygon class="st1" points="240.7,249.9 241.5,249.1 251.4,257.9 250.5,258.9 					"/>
					<polygon class="st1" points="239.4,251.4 240.1,250.6 258.4,268 257.4,269.1 					"/>
					<polygon class="st1" points="237.9,252.8 238.7,252.1 260.5,274 259.3,275.1 					"/>
					<polygon class="st1" points="236.4,254.2 237.2,253.5 246.2,263.1 245.3,264 					"/>
					<polygon class="st1" points="234.9,255.6 235.7,254.8 252.4,273.8 251.3,274.8 					"/>
					<path class="st1" d="M233.3,256.9c0.3-0.2,0.6-0.4,0.9-0.7l27,32.4c-0.4,0.4-0.9,0.7-1.4,1.1L233.3,256.9z"/>
					<polygon class="st1" points="231.6,258.1 232.5,257.5 244,272.2 242.9,273 					"/>
					<polygon class="st1" points="230,259.4 230.9,258.7 255.9,292.6 254.5,293.7 					"/>
					<path class="st1" d="M228.4,260.6c0.3-0.2,0.6-0.4,0.9-0.6l21.3,30.7c-0.5,0.3-0.9,0.7-1.4,1L228.4,260.6z"/>
					<polygon class="st1" points="226.6,261.6 227.5,261.1 238.6,278.2 237.4,278.9 					"/>
					<polygon class="st1" points="224.8,262.7 225.8,262.1 241.1,287.3 239.8,288.1 					"/>
					<polygon class="st1" points="223.1,263.8 224,263.2 232.2,277.6 231.1,278.3 					"/>
					<polygon class="st1" points="221.3,264.7 222.3,264.2 235,288.1 233.6,288.8 					"/>
					<polygon class="st1" points="219.4,265.6 220.4,265.1 228.8,282.1 227.5,282.7 					"/>
					<polygon class="st1" points="217.6,266.5 218.6,266 224.7,279.4 223.5,280 					"/>
					<polygon class="st1" points="215.7,267.2 216.7,266.9 222,279.4 220.8,279.8 					"/>
					<polygon class="st1" points="213.8,267.9 214.8,267.6 223.1,288.9 221.7,289.4 					"/>
					<polygon class="st1" points="211.9,268.6 212.9,268.3 223.1,297.1 221.6,297.6 					"/>
					<path class="st1" d="M209.9,269.3c0.4-0.1,0.7-0.2,1-0.3l9.2,28.6c-0.5,0.2-1,0.4-1.5,0.5L209.9,269.3z"/>
					<polygon class="st1" points="208,269.8 209,269.5 213,283.5 211.8,283.8 					"/>
					<polygon class="st1" points="206,270.3 207,270 215.2,301.8 213.6,302.2 					"/>
					<polygon class="st1" points="204,270.8 205.1,270.5 210.1,292.9 208.7,293.3 					"/>
					<polygon class="st1" points="202,271.1 203.1,271 204.5,278.3 203.3,278.4 					"/>
					<polygon class="st1" points="200,271.4 201,271.3 206.3,303.6 204.7,303.9 					"/>
					<polygon class="st1" points="197.9,271.8 199,271.6 202.9,300.8 201.4,301 					"/>
					<path class="st1" d="M195.9,272c0.4,0,0.7,0,1.1-0.1l3.1,30.4c-0.5,0.1-1,0.1-1.6,0.1L195.9,272z"/>
					<polygon class="st1" points="193.8,272.1 194.9,272 198.6,321.8 196.8,321.9 					"/>
					<polygon class="st1" points="191.8,272.2 192.9,272.1 195,319.4 193.2,319.5 					"/>
					<polygon class="st1" points="189.7,272.3 190.8,272.2 191.4,309 189.7,309.1 					"/>
				</g>
			</g>
		</g>
		<g>
			<g>
				<path class="st1" d="M347.7,182.3c0.6,3.9,0.8,7.9,1.1,11.9l10.2-0.6c-0.3-4.2-0.6-8.5-1.2-12.7L347.7,182.3z"/>
				<path class="st1" d="M342.9,175.7c0.4,1.9,0.7,3.8,0.9,5.8c0.2,1.9,0.6,3.8,0.7,5.8l10.2-1c-0.2-2.1-0.5-4.1-0.8-6.2
					c-0.2-2.1-0.6-4.1-1-6.1L342.9,175.7z"/>
				<path class="st1" d="M351,179.1l-0.3-1.8c-0.6-3.5-1.2-7.1-2-10.6l-0.1-0.4l10.7-2.4l0.1,0.4c1,3.8,1.6,7.8,2.2,11.7l0.3,1.6
					L351,179.1z M349.5,166.9c0.8,3.4,1.4,6.9,2,10.2l0.2,1l9.3-1.4l-0.1-0.8c-0.6-3.7-1.2-7.5-2.1-11.2L349.5,166.9z"/>
				<path class="st1" d="M327,132.5c7.6,14.6,12.5,30.4,15.2,46.6l4-0.6c-2.7-16.6-7.8-32.9-15.6-47.8L327,132.5z"/>
				<path class="st1" d="M331.2,219.7c-0.9,7.5-2.4,15-4.5,22.2c-2.1,7.3-4.8,14.4-8,21.3l8.2,3.8c3.4-7.3,6.2-14.9,8.5-22.6
					c2.3-7.7,3.8-15.7,4.8-23.7L331.2,219.7z"/>
				<path class="st1" d="M327.5,219.7l-9.8-1.2l0.1-0.4c1.7-13.1,1.1-26.9-1.6-40.9l-0.1-0.4l9.7-2l0.1,0.4c3,15.1,3.6,29.9,1.8,44
					L327.5,219.7z M318.6,217.8l8.2,1c1.7-13.8,1.1-28.3-1.7-43l-8.1,1.6C319.6,191.3,320.2,204.9,318.6,217.8z"/>
				<path class="st1" d="M332.9,146.4l-0.1-0.4c-3.1-7.7-6.7-15.1-10.8-22c-4.2-7-9-13.7-14.2-20l-0.3-0.3l3.8-3.1l0.3,0.3
					c5.4,6.5,10.3,13.4,14.7,20.6c4.2,7.1,8,14.8,11.1,22.7l0.1,0.4L332.9,146.4z M308.6,103.8c5.1,6.2,9.9,12.9,14,19.8
					c4,6.8,7.6,14.2,10.7,21.8l3.1-1.2c-3.1-7.8-6.8-15.2-10.9-22.2c-4.2-7.1-9.1-13.9-14.3-20.2L308.6,103.8z"/>
				<path class="st1" d="M313.5,107.2c0.8,1,1.6,2,2.3,3l3.3-2.4c-0.8-1.1-1.6-2.1-2.4-3.1L313.5,107.2z"/>
				<path class="st1" d="M309.6,102.4c0.8,1,1.7,1.9,2.4,3l3.2-2.5c-0.8-1-1.6-2.1-2.5-3L309.6,102.4z"/>
				<path class="st1" d="M308,101.2l-0.3-0.3c-0.3-0.3-0.6-0.7-0.9-1c-0.5-0.6-1.1-1.2-1.6-1.8l-0.3-0.3l3.6-3.3l0.3,0.3
					c0.6,0.6,1.1,1.3,1.7,1.9c0.3,0.3,0.6,0.7,0.9,1l0.3,0.3L308,101.2z M306.1,97.8c0.5,0.5,0.9,1,1.4,1.6c0.2,0.2,0.4,0.5,0.6,0.7
					l2.5-2.1c-0.2-0.2-0.4-0.5-0.6-0.7c-0.5-0.5-0.9-1.1-1.4-1.6L306.1,97.8z"/>
				<polygon class="st1" points="301.3,93.3 304,96 306.9,93.2 304.3,90.4 				"/>
				<path class="st1" d="M299.7,92.2l-3.3-3.2l3.4-3.6l3.4,3.3L299.7,92.2z M297.5,88.9l2.2,2.1l2.3-2.3l-2.2-2.1L297.5,88.9z"/>
			</g>
			<g>
				<path class="st1" d="M219.1,46.1c3.9,0.8,7.8,1.6,11.6,2.7l2.6-9.9c-4.1-1.2-8.2-2-12.4-2.9L219.1,46.1z"/>
				<path class="st1" d="M211.3,48.7c3.8,0.6,7.7,1.2,11.5,2.1l2.2-10c-4-0.9-8.1-1.6-12.2-2.2L211.3,48.7z"/>
				<path class="st1" d="M217.1,42.1l-0.4-0.1c-3.8-0.7-7.8-1.1-11.6-1.5l-0.9-0.1l1-11l0.6,0.1c4.2,0.5,8.6,0.9,12.8,1.7l0.4,0.1
					L217.1,42.1z M205,39.7L205,39.7c3.8,0.4,7.6,0.8,11.4,1.5l1.6-9.3c-4-0.7-8.1-1.2-12.1-1.6L205,39.7z"/>
				<path class="st1" d="M165.3,50.5c16.2-2.5,32.8-2.7,49,0l0.7-4c-16.6-2.8-33.7-2.6-50.3,0L165.3,50.5z"/>
				<path class="st1" d="M249.6,73.5c6.9,3.2,13.5,6.9,19.8,11.1c6.3,4.3,12.2,9,17.7,14.1l6.2-6.6c-5.9-5.5-12.2-10.5-18.9-15.1
					c-6.7-4.5-13.8-8.4-21.1-11.8L249.6,73.5z"/>
				<path class="st1" d="M244.2,86l-0.4-0.2c-12.9-5.9-26.2-9.6-39.4-11.1H204l1.1-9.8h0.4c14.3,1.6,28.6,5.6,42.4,11.9l0.4,0.2
					L244.2,86z M204.9,74c13.1,1.5,26.2,5.2,38.9,10.9l3.5-7.5c-13.5-6.1-27.5-10.1-41.4-11.7L204.9,74z"/>
				<path class="st1" d="M131.9,60.2l-1.8-4.5l0.4-0.2c15.5-6.3,32-10,49.2-11.2h0.4l0.3,4.9H180c-16.6,1.1-32.7,4.8-47.7,10.9
					L131.9,60.2z M131.1,56.1l1.2,3.1c14.8-6,30.7-9.6,47.1-10.8l-0.2-3.3C162.5,46.3,146.3,50,131.1,56.1z"/>
				<polygon class="st1" points="137.1,55.6 140.7,54.4 139.4,50.5 135.7,51.7 				"/>
				<polygon class="st1" points="131.3,57.8 134.9,56.4 133.5,52.6 129.8,54 				"/>
				<path class="st1" d="M125.5,60.8l-2-4.5l4.3-1.9l1.9,4.5L125.5,60.8z M124.5,56.7l1.3,3l2.8-1.2l-1.3-3L124.5,56.7z"/>
				<path class="st1" d="M120.1,62.9c1.1-0.6,2.3-1.2,3.4-1.7l-1.7-3.7c-1.2,0.5-2.3,1.2-3.5,1.7L120.1,62.9z"/>
				<path class="st1" d="M114.5,66.3l-2.4-4.3l0.3-0.2c1.1-0.7,2.3-1.3,3.5-1.8l0.4-0.2l2.2,4.4l-0.4,0.2c-1.1,0.5-2.2,1.1-3.4,1.8
					L114.5,66.3z M113.2,62.3l1.6,2.9c0.9-0.5,1.8-1,2.7-1.4l-1.5-2.9C115,61.3,114.1,61.8,113.2,62.3z"/>
			</g>
			<g>
				<path class="st1" d="M49.8,126.5l2.9-5.2c1-1.7,2.1-3.4,3.2-5.1l-8.6-5.5c-1.1,1.8-2.3,3.6-3.4,5.4l-3.1,5.5L49.8,126.5z"/>
				<polygon class="st1" points="50,134.7 52.6,129.5 55.5,124.4 46.6,119.3 43.6,124.7 40.8,130.2 				"/>
				<path class="st1" d="M39.8,138.9l-10.1-4.3l0.2-0.4c0.3-0.6,0.6-1.3,0.8-1.9c0.6-1.3,1.2-2.7,1.8-4l3.1-6.2l9.8,5.1l-2.9,5.8
					c-0.6,1.2-1.1,2.5-1.6,3.7c-0.3,0.6-0.6,1.3-0.8,1.9L39.8,138.9z M30.8,134.2l8.6,3.7c0.2-0.5,0.4-1,0.7-1.5
					c0.5-1.2,1.1-2.5,1.7-3.7l2.6-5.1l-8.3-4.3l-2.7,5.4c-0.6,1.3-1.2,2.7-1.8,4C31.2,133.2,31,133.7,30.8,134.2z"/>
				<path class="st1" d="M37.3,179c1.2-8.1,3.2-16.1,5.7-23.9c2.6-7.8,5.6-15.4,9.4-22.7l-3.6-1.9c-3.9,7.5-7.1,15.3-9.7,23.3
					c-2.7,8-4.6,16.2-5.9,24.5L37.3,179z"/>
				<path class="st1" d="M85.3,105.9c10.3-11.1,22.4-20.6,35.7-27.8l-4.4-7.9c-14.1,7.7-27,17.8-37.9,29.6L85.3,105.9z"/>
				<path class="st1" d="M72.4,149.6l-9-4.1l0.2-0.4c3.3-7,6.9-13.5,10.7-19.3c4.1-6.1,8.7-12,13.7-17.4l0.3-0.3l7.2,6.7l-0.3,0.3
					c-4.6,5-8.9,10.4-12.7,16.1c-3.6,5.4-6.9,11.4-10,18L72.4,149.6z M64.5,145.1l7.5,3.4c3-6.4,6.3-12.4,9.9-17.7
					c3.8-5.6,8-11,12.5-15.9l-6.1-5.6c-4.8,5.3-9.3,11-13.3,17C71.2,131.9,67.7,138.3,64.5,145.1z"/>
				<path class="st1" d="M31.4,214.1v-0.4c-0.6-8.4-0.5-16.9,0.2-25.3c0.7-8.1,2.2-16.5,4.3-24.9l0.1-0.4l4.7,1.2l-0.1,0.4
					c-2.1,8.2-3.5,16.3-4.2,24.2c-0.7,8.1-0.8,16.4-0.2,24.5v0.4L31.4,214.1z M36.6,164.1c-2.1,8.3-3.5,16.5-4.2,24.4
					c-0.7,8.2-0.8,16.6-0.3,24.8l3.3-0.2c-0.5-8-0.4-16.2,0.3-24.3c0.7-7.7,2.1-15.8,4.1-23.9L36.6,164.1z"/>
				<path class="st1" d="M33.5,207.4c0-1.3-0.1-2.5-0.1-3.8h-4.1c0,1.3,0.1,2.6,0.1,3.9L33.5,207.4z"/>
				<path class="st1" d="M33.8,213.5c-0.1-1.3-0.2-2.5-0.2-3.8l-4.1,0.2c0,1.3,0.1,2.6,0.2,3.9L33.8,213.5z"/>
				<path class="st1" d="M29.9,220.6l-0.4-4.7l4.9-0.4l0.4,4.6L29.9,220.6z M30.3,216.6l0.3,3.1l3.3-0.4l-0.3-3L30.3,216.6z"/>
				<polygon class="st1" points="35.1,225.8 34.6,222 30.5,222.5 31.1,226.4 				"/>
				<path class="st1" d="M31.8,233.1l-0.8-4.7l4.8-0.8l0.8,4.5L31.8,233.1z M31.9,229.1l0.6,3.1l3.2-0.6l-0.5-3L31.9,229.1z"/>
			</g>
			<g>
				<path class="st1" d="M74,312.3c-2.8-2.8-5.3-5.9-7.9-9l-7.9,6.4c2.7,3.2,5.4,6.5,8.4,9.5L74,312.3z"/>
				<path class="st1" d="M81.7,314.7c-2.9-2.6-5.5-5.5-8.1-8.4l-7.6,6.8c2.8,3,5.6,6.1,8.6,8.9L81.7,314.7z"/>
				<path class="st1" d="M75.4,333.9l-0.3-0.3c-2.9-2.4-5.5-5-8.2-7.6l-1.7-1.6l7.9-7.7l1.7,1.7c2.4,2.3,4.9,4.8,7.5,6.9l0.3,0.3
					L75.4,333.9z M66.5,324.5l1.1,1c2.5,2.5,5.1,5,7.8,7.3l6.2-7.1c-2.5-2.1-4.9-4.5-7.2-6.7l-1.2-1.1L66.5,324.5z"/>
				<path class="st1" d="M120,340.4c-14.7-7.3-28.1-17.2-39.7-28.8l-2.9,2.9c11.9,11.9,25.7,22,40.8,29.5L120,340.4z"/>
				<path class="st1" d="M65.4,272.2c-3.7-6.6-6.9-13.5-9.5-20.6s-4.6-14.5-6-21.9l-8.9,1.7c1.5,7.9,3.7,15.7,6.4,23.3
					c2.8,7.6,6.2,14.9,10.1,21.9L65.4,272.2z"/>
				<path class="st1" d="M96.2,305.3l-0.3-0.3c-11.2-10.4-20.4-22.1-27.3-34.6l-0.2-0.4l8.6-4.8l0.2,0.4
					c6.4,11.6,14.9,22.4,25.3,32.1l0.3,0.3L96.2,305.3z M69.5,270.4c6.7,12.2,15.7,23.6,26.6,33.8l5.6-6.1
					c-10.3-9.6-18.7-20.3-25-31.7L69.5,270.4z"/>
				<path class="st1" d="M151.6,356.9l-0.4-0.1c-7.4-1.8-15.3-4.4-24-8.1c-7.4-3.1-15-7.1-22.4-11.8l-0.3-0.2l2.6-4.1l0.3,0.2
					c7.2,4.6,14.5,8.4,21.7,11.4c8.4,3.6,16,6.1,23.2,7.9l0.4,0.1L151.6,356.9z M105.6,336.5c7.3,4.6,14.7,8.4,21.9,11.5
					c8.5,3.6,16.2,6.2,23.5,8l0.8-3.2c-7.1-1.7-14.6-4.3-23-7.8c-7.1-3-14.3-6.8-21.5-11.3L105.6,336.5z"/>
				<polygon class="st1" points="145.8,352.8 142.2,351.7 140.9,355.6 144.6,356.8 				"/>
				<polygon class="st1" points="151.8,354.4 148.1,353.5 147,357.4 150.8,358.4 				"/>
				<path class="st1" d="M157.3,360.3l-4.6-1l1.1-4.8l4.5,1L157.3,360.3z M153.6,358.7l3,0.7l0.7-3.2l-3-0.6L153.6,358.7z"/>
				<path class="st1" d="M163.8,357c-1.3-0.2-2.5-0.4-3.8-0.7l-0.8,4c1.3,0.3,2.6,0.4,3.9,0.7L163.8,357z"/>
				<path class="st1" d="M169.8,362.4h-0.4c-1.2-0.1-2.4-0.3-3.6-0.5l-0.7-0.1l0.7-4.8l0.8,0.1c1.1,0.2,2.3,0.4,3.4,0.5h0.4
					L169.8,362.4z M166,361.1c1,0.2,2,0.3,3.1,0.4l0.4-3.3c-1-0.1-2-0.3-3-0.4L166,361.1z"/>
			</g>
			<g>
				<path class="st1" d="M258.1,346.7c-3.6,1.6-7.3,3.3-11,4.7l3.7,9.5c4-1.5,7.8-3.2,11.7-5L258.1,346.7z"/>
				<path class="st1" d="M262.8,340.1c-3.5,1.8-6.9,3.5-10.5,5.1l4.1,9.3c3.8-1.6,7.5-3.5,11.2-5.4L262.8,340.1z"/>
				<path class="st1" d="M267,358.7l-4.9-9.9l0.4-0.2c3.4-1.6,6.7-3.5,9.9-5.3l1.2-0.7l5.6,9.5l-1.1,0.6c-3.5,2-7.1,4-10.8,5.8
					L267,358.7z M263.2,349.2l4.2,8.4c3.5-1.7,7-3.7,10.4-5.6l0.4-0.2l-4.8-8.1l-0.5,0.3C269.6,345.8,266.4,347.6,263.2,349.2z"/>
				<path class="st1" d="M299.1,311.7c-11.6,11.6-25,21.4-39.7,28.8l1.8,3.7c15.1-7.5,28.8-17.6,40.8-29.5L299.1,311.7z"/>
				<path class="st1" d="M217.3,342.5c-14.9,2.9-30.2,3.5-45.2,1.6l-1.1,9c16,2,32.3,1.4,48.1-1.7L217.3,342.5z"/>
				<path class="st1" d="M216.2,339l-1.9-9.7l0.4-0.1c13.8-2.8,26.7-7.6,38.4-14.2l0.4-0.2l4.8,8.6l-0.3,0.2
					c-12.6,7.2-26.5,12.3-41.4,15.3L216.2,339z M215.2,329.9l1.6,8.1c14.5-3,28-8,40.4-15l-4.1-7.2
					C241.6,322.4,228.8,327.2,215.2,329.9z"/>
				<path class="st1" d="M290.8,325.3l-3.1-3.8l0.3-0.3c5.9-4.8,11.7-10.4,17.6-17.1c5.5-6.2,10.4-12.9,14.6-19.7l0.2-0.3l4.2,2.6
					l-0.2,0.3c-4.3,7.1-9.4,13.9-15.1,20.3c-6.1,6.9-12,12.7-18.1,17.7L290.8,325.3z M288.8,321.6l2.1,2.5
					c6-4.9,11.8-10.6,17.7-17.3c5.5-6.3,10.5-13,14.8-19.9l-2.8-1.7c-4.2,6.7-9.1,13.3-14.5,19.5
					C300.3,311.3,294.6,316.9,288.8,321.6z"/>
				<polygon class="st1" points="318.9,290.9 316.7,294.1 320,296.4 322.2,293.2 				"/>
				<polygon class="st1" points="322.2,285.8 320.2,289 323.6,291.2 325.7,287.9 				"/>
				<path class="st1" d="M327.1,286.4l-4.2-2.5l0.2-0.3c0.4-0.7,0.8-1.4,1.2-2.1c0.2-0.4,0.4-0.8,0.7-1.2l0.2-0.3l4.3,2.4l-0.2,0.4
					c-0.2,0.4-0.5,0.8-0.7,1.2c-0.4,0.7-0.8,1.5-1.3,2.2L327.1,286.4z M324,283.6l2.8,1.7c0.4-0.6,0.7-1.2,1.1-1.8
					c0.2-0.3,0.3-0.6,0.5-0.8l-2.9-1.6c-0.2,0.3-0.3,0.5-0.5,0.8C324.7,282.4,324.4,283,324,283.6z"/>
				<path class="st1" d="M328.4,275c-0.5,1.1-1.2,2.3-1.8,3.4l3.6,2c0.6-1.1,1.3-2.3,1.9-3.4L328.4,275z"/>
				<path class="st1" d="M333.2,275.3l-4.4-2.2l2.1-4.1l4.4,2.1L333.2,275.3z M329.9,272.8l2.9,1.5l1.4-2.8l-3-1.4L329.9,272.8z"/>
			</g>
		</g>
		<g>
			<g>
				<path class="st5" d="M248.3,290.7c14-9.4,25.6-22.2,33.9-36.9c8.2-14.8,12.5-31.5,13-48.3c0.1-1.5,1.3-2.7,2.7-2.7h3.6
					c-0.1,17.5-4.3,34.9-12.2,50.6c-7.8,15.7-19.6,29.2-33.7,39.6c-2.1,1.6-4.9,1.3-6.2-0.7L248.3,290.7z"/>
				<path class="st5" d="M177.5,309.6c26.4,3,53.8-4.1,75.3-19.7l-1.1-1.6c-21.1,15.4-48,22.3-73.9,19.4L177.5,309.6z"/>
				<path class="st5" d="M144,297.9c12.3,5.9,25.8,9.4,39.4,10.2c-0.2,3.3-3.4,6.1-7.3,5.5c-10.9-1.2-21.4-4.4-31.5-8.6
					c-1.8-0.9-2.7-2.9-1.9-4.5L144,297.9z"/>
				<path class="st5" d="M112,274.1c3.1,3.7,6.9,6.8,10.5,10.1c3.9,2.8,7.6,6,11.9,8.4l-1.3,2c-1.7,2.8-6,3.7-9,1.3
					c-2.7-2.1-5.6-4-8.2-6.3c-2.5-2.4-5.2-4.6-7.6-7c-1.4-1.5-1.4-3.7-0.1-4.9L112,274.1z"/>
				<path class="st5" d="M100,262.3c-5.4-8.3-9.7-17.3-12.8-26.7l0.2-0.1c2.4-0.7,5.1,0.6,6,3.1c0.6,1.6,1.1,3.3,1.9,4.9l2.3,4.7
					c1.4,3.2,3.3,6.2,5.1,9.2c0.7,1.2,0.4,2.7-0.7,3.5L100,262.3z"/>
				<path class="st5" d="M126.1,287c15.2,11.8,33.8,18.7,52.8,20.9l-0.3,3c-19.6-2.2-38.7-9.4-54.4-21.5L126.1,287z"/>
				<path class="st5" d="M95.6,250.5c4.4,8.5,9.7,16.6,16.4,23.5c3.1,3.7,6.8,6.7,10.3,10l5.7,4.3c1.9,1.5,3.9,2.8,6,4l-1.6,2.6
					c-2.1-1.2-4.2-2.6-6.1-4.1l-5.9-4.5c-3.6-3.4-7.5-6.5-10.6-10.3c-6.8-7.2-12.3-15.5-16.8-24.2L95.6,250.5z"/>
				<path class="st5" d="M84.2,204.4c0.5,18,5,36.2,14.5,51.7c0.5,0.8,0.3,1.8-0.4,2.2c-0.7,0.4-1.7,0.1-2.2-0.7
					c-9.7-15.9-14.4-34.6-14.9-53.2c0-0.9,0.6-1.7,1.4-1.7C83.5,202.8,84.2,203.5,84.2,204.4z"/>
			</g>
			<g>
				<path class="st5" d="M131.2,114.9c-14,9.4-25.6,22.2-33.9,36.9c-8.2,14.8-12.5,31.5-13,48.3c-0.1,1.5-1.3,2.7-2.7,2.7H78
					c0.1-17.5,4.3-34.9,12.2-50.6c7.8-15.7,19.6-29.2,33.7-39.6c2.1-1.6,4.9-1.3,6.2,0.7L131.2,114.9z"/>
				<path class="st5" d="M202,96c-26.4-3-53.8,4.1-75.3,19.7l1.1,1.6c21.1-15.4,48-22.3,73.9-19.4L202,96z"/>
				<path class="st5" d="M235.4,107.7c-12.3-5.9-25.8-9.4-39.4-10.2c0.2-3.3,3.4-6.1,7.3-5.5c10.9,1.2,21.4,4.4,31.5,8.6
					c1.8,0.9,2.7,2.9,1.9,4.5L235.4,107.7z"/>
				<path class="st5" d="M267.5,131.5c-3.1-3.7-6.9-6.8-10.5-10.1c-3.9-2.8-7.6-6-11.9-8.4l1.3-2c1.7-2.8,6-3.7,9-1.3
					c2.7,2.1,5.6,4,8.2,6.3c2.5,2.4,5.2,4.6,7.6,7c1.4,1.5,1.4,3.7,0.1,4.9L267.5,131.5z"/>
				<path class="st5" d="M279.5,143.3c5.4,8.3,9.7,17.3,12.8,26.7l-0.2,0.1c-2.4,0.7-5.1-0.6-6-3.1c-0.6-1.6-1.1-3.3-1.9-4.9
					l-2.3-4.7c-1.4-3.2-3.3-6.2-5.1-9.2c-0.7-1.2-0.4-2.7,0.7-3.5L279.5,143.3z"/>
				<path class="st5" d="M253.3,118.6c-15.2-11.8-33.8-18.7-52.8-20.9l0.3-3c19.6,2.2,38.7,9.4,54.4,21.5L253.3,118.6z"/>
				<path class="st5" d="M283.9,155.1c-4.4-8.5-9.7-16.6-16.4-23.5c-3.1-3.7-6.8-6.7-10.3-10l-5.7-4.3c-1.9-1.5-3.9-2.8-6-4l1.6-2.6
					c2.1,1.2,4.2,2.6,6.1,4.1l5.9,4.5c3.6,3.4,7.5,6.5,10.6,10.3c6.8,7.2,12.3,15.5,16.8,24.2L283.9,155.1z"/>
				<path class="st5" d="M295.3,201.2c-0.5-18-5-36.2-14.5-51.7c-0.5-0.8-0.3-1.8,0.5-2.2c0.7-0.4,1.7-0.1,2.2,0.7
					c9.7,15.9,14.4,34.6,14.9,53.2c0,0.9-0.6,1.7-1.4,1.7C296,202.8,295.3,202.1,295.3,201.2z"/>
			</g>
		</g>
		<circle class="st1" cx="189.7" cy="202.8" r="24.3"/>
		<path class="st3" d="M189.8,242v-8.6c1.2,0,2.5-0.1,3.7-0.2l1,8.5C192.9,241.9,191.4,242,189.8,242z M185.1,241.7
			c-1.6-0.2-3.1-0.5-4.7-0.8l2-8.3c1.2,0.3,2.4,0.5,3.6,0.7L185.1,241.7z M199.2,240.9l-2.1-8.3c1.2-0.3,2.4-0.7,3.5-1.1l3.1,8
			C202.2,240,200.7,240.5,199.2,240.9z M175.9,239.5c-1.5-0.6-2.9-1.2-4.3-1.9l4-7.6c1.1,0.6,2.2,1.1,3.4,1.5L175.9,239.5z
			 M208,237.5l-4-7.6c1.1-0.6,2.2-1.2,3.2-1.9l4.9,7.1C210.8,236,209.4,236.8,208,237.5z M167.5,235.1c-1.3-0.9-2.5-1.9-3.7-2.9
			l5.7-6.4c0.9,0.8,1.9,1.6,2.9,2.3L167.5,235.1z M215.8,232.1l-5.7-6.4c0.9-0.8,1.8-1.7,2.6-2.6l6.4,5.7
			C218.1,230,216.9,231.1,215.8,232.1z M160.4,228.8c-1.1-1.2-2-2.4-2.9-3.7l7.1-4.9c0.7,1,1.5,2,2.3,2.9L160.4,228.8z M222,225.1
			l-7.1-4.9c0.7-1,1.3-2.1,1.9-3.2l7.6,4C223.8,222.4,222.9,223.8,222,225.1z M155,221.1c-0.7-1.4-1.4-2.9-2-4.3l8-3.1
			c0.4,1.1,0.9,2.3,1.5,3.4L155,221.1z M226.4,216.7l-8-3c0.4-1.1,0.8-2.3,1.1-3.5l8.3,2C227.5,213.7,227,215.2,226.4,216.7z
			 M151.7,212.2c-0.4-1.5-0.7-3.1-0.9-4.7l8.5-1c0.2,1.2,0.4,2.5,0.7,3.6L151.7,212.2z M228.7,207.5l-8.5-1c0.1-1.2,0.2-2.5,0.2-3.7
			l7-0.1h1.5C229,204.4,228.9,206,228.7,207.5z M150.5,202.9L150.5,202.9c0-1.6,0.1-3.2,0.3-4.7l8.5,1c-0.1,1.2-0.2,2.4-0.2,3.6
			L150.5,202.9z M220.1,199c-0.1-1.2-0.4-2.4-0.7-3.6l8.3-2.1c0.4,1.5,0.7,3.1,0.9,4.7L220.1,199z M160,195.5l-8.3-2
			c0.4-1.5,0.8-3.1,1.4-4.5l8,3C160.6,193.1,160.3,194.3,160,195.5z M218.4,191.8c-0.4-1.1-1-2.3-1.5-3.4l7.6-4
			c0.7,1.4,1.4,2.8,2,4.3L218.4,191.8z M162.6,188.6l-7.6-4c0.7-1.4,1.6-2.8,2.4-4.1l7.1,4.9C163.8,186.5,163.1,187.5,162.6,188.6z
			 M214.9,185.3c-0.7-1-1.5-2-2.3-2.9l6.4-5.7c1,1.2,2,2.4,2.9,3.7L214.9,185.3z M166.8,182.5l-6.4-5.7c1-1.2,2.2-2.3,3.3-3.4
			l5.7,6.4C168.5,180.7,167.6,181.6,166.8,182.5z M210,179.8c-0.9-0.8-1.9-1.6-2.9-2.3l4.9-7.1c1.3,0.9,2.5,1.9,3.7,2.9L210,179.8z
			 M172.3,177.6l-4.9-7.1c1.3-0.9,2.7-1.7,4-2.5l4,7.6C174.4,176.3,173.3,176.9,172.3,177.6z M203.9,175.6c-1.1-0.6-2.2-1.1-3.4-1.5
			l3-8c1.5,0.6,2.9,1.2,4.3,1.9L203.9,175.6z M178.8,174.2l-3.1-8c1.5-0.6,3-1,4.5-1.4l2.1,8.3C181.1,173.4,179.9,173.7,178.8,174.2
			z M197,173c-1.2-0.3-2.4-0.5-3.6-0.7l1-8.5c1.6,0.2,3.1,0.5,4.7,0.8L197,173z M186,172.4l-1-8.5c1.6-0.2,3.1-0.3,4.7-0.3v8.6
			C188.4,172.2,187.2,172.2,186,172.4z"/>
		<path class="st5" d="M189.3,290.6v-20.2h0.5c2.7,0,5.5-0.2,8.1-0.5l0.5-0.1l2.4,20l-0.5,0.1c-3.5,0.4-7.1,0.6-10.6,0.6h-0.4V290.6
			z M190.3,271.5v18c3.1,0,6.3-0.2,9.4-0.6l-2.2-17.9C195.2,271.3,192.8,271.4,190.3,271.5z M179.8,290l-0.5-0.1
			c-3.5-0.4-7-1.1-10.4-1.9l-0.5-0.1l4.8-19.6l0.5,0.1c2.6,0.6,5.3,1.1,8,1.4l0.5,0.1L179.8,290z M169.6,287.1
			c3,0.7,6.1,1.3,9.2,1.7l2.1-17.9c-2.4-0.3-4.7-0.7-7.1-1.3L169.6,287.1z M210.3,288.2l-4.8-19.6l0.5-0.1c2.6-0.6,5.2-1.5,7.8-2.4
			l0.5-0.2l7.2,18.9L221,285c-3.3,1.2-6.7,2.3-10.1,3.2H210.3z M206.8,269.3l4.3,17.5c3-0.8,6.1-1.7,9-2.8l-6.4-16.9
			C211.4,268,209.1,268.7,206.8,269.3z M159.2,285.1l-0.5-0.2c-3.3-1.2-6.6-2.7-9.7-4.3l-0.5-0.2l9.4-17.9l0.5,0.2
			c2.4,1.3,4.9,2.4,7.4,3.3l0.5,0.2L159.2,285.1z M150,279.9c2.8,1.4,5.7,2.7,8.6,3.9l6.4-16.9c-2.2-0.9-4.4-1.9-6.6-3L150,279.9z
			 M230.1,280.8l-9.4-17.9l0.5-0.3c2.4-1.3,4.8-2.7,7-4.2l0.4-0.3l11.5,16.6l-0.4,0.3c-2.9,2-5.9,3.9-9.1,5.5L230.1,280.8z
			 M222.2,263.3l8.4,16c2.7-1.5,5.4-3.1,8-4.9l-10.3-14.8C226.4,260.9,224.3,262.2,222.2,263.3z M140.4,275.4l-0.4-0.3
			c-2.9-2-5.7-4.2-8.3-6.5l-0.4-0.4l13.4-15.1l0.4,0.4c2,1.8,4.2,3.5,6.4,5l0.4,0.3L140.4,275.4z M132.7,268.1
			c2.4,2.1,4.8,4,7.4,5.8l10.2-14.9c-2-1.4-3.9-2.9-5.7-4.4L132.7,268.1z M247.6,268.8l-13.4-15.1l0.4-0.4c2.1-1.8,4-3.8,5.8-5.8
			l0.4-0.4l15.1,13.4l-0.4,0.4c-2.3,2.6-4.9,5.2-7.5,7.5L247.6,268.8z M235.7,253.8l12,13.5c2.3-2.1,4.5-4.3,6.6-6.6l-13.5-12
			C239.2,250.5,237.5,252.2,235.7,253.8z M124.5,261.5l-0.4-0.4c-2.3-2.6-4.5-5.4-6.5-8.3l-0.3-0.4l16.6-11.5l0.3,0.4
			c1.5,2.2,3.2,4.4,5,6.4l0.4,0.4L124.5,261.5z M118.8,252.6c1.8,2.6,3.7,5,5.8,7.4l13.5-12c-1.6-1.8-3.1-3.7-4.5-5.7L118.8,252.6z
			 M261.7,253.1l-16.6-11.5l0.3-0.4c1.5-2.2,3-4.6,4.2-7l0.2-0.5l17.9,9.4l-0.3,0.5c-1.6,3.1-3.5,6.2-5.5,9.1L261.7,253.1z
			 M246.6,241.3l14.8,10.3c1.8-2.6,3.4-5.3,4.9-8l-16-8.4C249.2,237.3,247.9,239.3,246.6,241.3z M112.3,244.2l-0.3-0.5
			c-1.6-3.1-3.1-6.4-4.4-9.7l-0.2-0.5l18.9-7.2l0.2,0.5c1,2.5,2.1,5,3.4,7.4l0.3,0.5L112.3,244.2z M108.9,234.2
			c1.1,2.9,2.4,5.8,3.9,8.6l15.9-8.4c-1.1-2.1-2.1-4.3-3-6.6L108.9,234.2z M271.6,234.4l-18.9-7.2l0.2-0.5c1-2.5,1.8-5.2,2.4-7.8
			l0.1-0.5l19.6,4.8l-0.1,0.5c-0.8,3.4-1.9,6.8-3.2,10.1L271.6,234.4z M254.2,226.6L271,233c1.1-2.9,2-6,2.8-9l-17.5-4.3
			C255.7,222.1,255,224.4,254.2,226.6z M104.7,224.5l-0.1-0.5c-0.8-3.4-1.5-6.9-1.9-10.4l-0.1-0.5l20-2.5l0.1,0.5
			c0.3,2.7,0.8,5.4,1.5,8l0.1,0.5L104.7,224.5z M103.8,213.9c0.4,3.1,1,6.2,1.7,9.2l17.5-4.3c-0.6-2.3-1-4.7-1.3-7.1L103.8,213.9z
			 M276.8,213.9l-20-2.4l0.1-0.5c0.3-2.7,0.5-5.4,0.5-8.2V202h20.2v0.8c0,3.5-0.2,7.1-0.6,10.6L276.8,213.9z M258,210.5l17.9,2.2
			c0.4-3.2,0.6-6.4,0.6-9.7h-18C258.4,205.5,258.3,208.1,258,210.5z M102,203.9v-1c0-3.5,0.2-7,0.6-10.4l0.1-0.5l20,2.4l-0.1,0.5
			c-0.3,2.6-0.5,5.2-0.5,7.8v0.9h-10.6L102,203.9z M111.5,202.4h9.6c0-2.4,0.2-4.8,0.4-7.2l-17.9-2.1c-0.3,3.1-0.5,6.2-0.5,9.3
			H111.5z M256.9,194.9l-0.1-0.5c-0.3-2.7-0.8-5.4-1.5-8l-0.1-0.5l19.6-4.9l0.1,0.5c0.8,3.4,1.5,6.9,1.9,10.4l0.1,0.5L256.9,194.9z
			 M256.5,186.6c0.6,2.3,1,4.7,1.3,7.1l17.9-2.2c-0.4-3.1-1-6.2-1.7-9.2L256.5,186.6z M123.9,187.3l-19.6-4.8l0.1-0.5
			c0.8-3.4,1.9-6.8,3.1-10.1l0.2-0.5l18.9,7.1l-0.2,0.5c-1,2.5-1.8,5.2-2.4,7.8L123.9,187.3z M105.6,181.7l17.5,4.3
			c0.6-2.3,1.3-4.6,2.1-6.9l-16.9-6.4C107.3,175.7,106.4,178.7,105.6,181.7z M253.1,179.1l-0.2-0.5c-1-2.6-2.1-5.1-3.4-7.4l-0.3-0.5
			l17.8-9.5l0.3,0.5c1.6,3.1,3.1,6.4,4.4,9.6l0.2,0.5L253.1,179.1z M250.7,171.1c1.1,2.1,2.1,4.3,3,6.6l16.8-6.5
			c-1.1-2.9-2.4-5.8-3.9-8.6L250.7,171.1z M129.6,172l-17.9-9.4l0.2-0.5c1.6-3.1,3.5-6.2,5.5-9.1l0.3-0.4l16.6,11.4l-0.3,0.4
			c-1.5,2.2-3,4.6-4.2,7L129.6,172z M113.1,162.2l16,8.4c1.1-2.1,2.4-4.2,3.7-6.2L118,154.1C116.2,156.7,114.6,159.4,113.1,162.2z
			 M245.6,164.7l-0.3-0.4c-1.5-2.2-3.2-4.4-5.1-6.4l-0.4-0.4l15.1-13.4l0.4,0.4c2.3,2.6,4.5,5.4,6.6,8.3l0.3,0.4L245.6,164.7z
			 M241.3,157.5c1.6,1.8,3.1,3.7,4.5,5.7l14.8-10.3c-1.8-2.6-3.8-5-5.8-7.4L241.3,157.5z M138.7,158.5l-15.1-13.4l0.4-0.4
			c2.3-2.6,4.9-5.2,7.5-7.5l0.4-0.4l13.4,15.1l-0.4,0.4c-2,1.8-4,3.8-5.8,5.8L138.7,158.5z M125.1,145l13.5,11.9
			c1.6-1.8,3.3-3.5,5.1-5.1l-12-13.5C129.4,140.5,127.2,142.7,125.1,145z M234.8,152.4l-0.4-0.4c-2-1.8-4.2-3.5-6.4-5l-0.4-0.3
			l11.4-16.6l0.4,0.3c2.9,2,5.7,4.2,8.3,6.5l0.4,0.4L234.8,152.4z M229,146.5c2,1.4,3.9,2.9,5.7,4.4l11.9-13.5c-2.4-2-4.8-4-7.4-5.8
			L229,146.5z M150.8,147.6L139.3,131l0.4-0.3c2.9-2,5.9-3.9,9-5.5l0.5-0.3l9.4,17.8l-0.5,0.3c-2.4,1.3-4.7,2.7-7,4.2L150.8,147.6z
			 M140.8,131.3l10.3,14.8c2-1.4,4-2.6,6.2-3.8l-8.4-15.9C146,127.8,143.3,129.5,140.8,131.3z M221.4,143.1l-0.5-0.2
			c-2.4-1.3-4.9-2.4-7.4-3.3l-0.5-0.2l7.1-18.9l0.5,0.2c3.3,1.2,6.6,2.7,9.7,4.3l0.5,0.2L221.4,143.1z M214.4,138.7
			c2.2,0.9,4.4,1.8,6.6,2.9l8.3-16c-2.8-1.4-5.7-2.7-8.6-3.8L214.4,138.7z M165.1,139.8l-7.2-18.9l0.5-0.2c3.3-1.3,6.7-2.3,10.1-3.2
			l0.5-0.1l4.9,19.6l-0.5,0.1c-2.6,0.7-5.2,1.5-7.8,2.4L165.1,139.8z M159.3,121.6l6.4,16.8c2.2-0.8,4.6-1.6,6.9-2.2l-4.3-17.5
			C165.2,119.6,162.2,120.5,159.3,121.6z M206.2,137.2l-0.5-0.1c-2.6-0.6-5.3-1.1-8-1.4l-0.5-0.1l2.3-20l0.5,0.1
			c3.5,0.4,7,1,10.4,1.9l0.5,0.1L206.2,137.2z M198.4,134.7c2.4,0.3,4.8,0.7,7.1,1.3l4.3-17.5c-3-0.7-6.1-1.3-9.3-1.7L198.4,134.7z
			 M180.9,135.8l-2.5-20l0.5-0.1c3.5-0.4,7.1-0.7,10.6-0.7h0.5l0.1,20.2h-0.5c-2.7,0-5.5,0.2-8.1,0.5L180.9,135.8z M179.6,116.7
			l2.2,17.9c2.4-0.3,4.8-0.4,7.2-0.4v-18C185.8,116.1,182.7,116.3,179.6,116.7z"/>
		<g>
			<path class="st6" d="M189.7,402.8h-1.9V262h1.9c17.2,0,29.6-7,36.9-12.9l1-0.8l87.9,109.9l-1,0.8
				C279.3,387.3,235,402.8,189.7,402.8z M190.5,264.7v135.5c43.9-0.2,87-15.2,121.4-42.3L227.3,252
				C219.6,257.9,207.3,264.5,190.5,264.7z"/>
			<path class="st1" d="M146.8,398.2l-1.3-0.3c-44.3-10-84.3-35.2-112.6-70.9l-0.8-1l110.3-87.4l0.8,1c8.4,10.6,20.3,18.1,33.3,21.1
				l1.3,0.3L146.8,398.2z M35.8,326.3c27.6,34.4,66.3,58.7,109,68.7l29.9-132.2c-12.7-3.2-24.2-10.5-32.7-20.7L35.8,326.3z"/>
			<path class="st1" d="M344.6,329.3l-1-0.8L235.1,241l0.8-1c6-7.4,13.1-19.8,13.1-37.1V201h140.7v1.8c0,45.5-15.7,90.1-44.3,125.5
				L344.6,329.3z M238.8,240.6l105.5,85.1c27.5-34.6,42.7-77.8,42.9-122.1H251.6C251.4,220.5,244.7,232.8,238.8,240.6z"/>
			<path class="st6" d="M10.3,291.1l-0.6-1.2c-13.2-27.3-20-56.6-20-87.2c0-15.2,1.7-30.4,5.1-45.1l0.3-1.3l137.1,31.6l-0.3,1.3
				c-1,4.4-1.5,8.9-1.5,13.4c0,9.1,2,17.7,5.9,25.8l0.6,1.2L10.3,291.1z M-2.9,159.6c-3.2,14.1-4.8,28.7-4.8,43.2
				c0,29.7,6.4,58.2,19.1,84.8l122-59.1c-3.7-8.1-5.6-16.7-5.6-25.7c0-4.3,0.4-8.6,1.3-12.7L-2.9,159.6z"/>
			<path class="st6" d="M247.8,190.9l-0.3-1.3c-2.9-13.1-10.4-24.9-21.1-33.3l-1-0.8l87.4-110.3l1,0.8
				c35.7,28.3,60.9,68.3,70.9,112.6l0.3,1.3l-1.3,0.3L247.8,190.9z M229.1,155.1c10.2,8.5,17.5,20,20.7,32.7L382,158
				c-10-42.8-34.3-81.4-68.7-109.1L229.1,155.1z"/>
			<path class="st1" d="M135.7,178.4L8.8,117.5l0.6-1.2c19.7-41,53.1-74.4,94.1-94l1.2-0.6l60.8,126.9l-1.2,0.6
				c-12.2,5.8-22.1,15.8-28,28L135.7,178.4z M12.3,116.3l122.2,58.6c6-11.8,15.6-21.5,27.4-27.4L103.4,25.3
				C63.8,44.6,31.5,76.8,12.3,116.3z"/>
			<path class="st6" d="M216.7,150l-1.2-0.6c-8-3.9-16.7-5.9-25.8-5.9c-4.6,0-9.1,0.5-13.4,1.5l-1.3,0.3L143.4,8.2l1.3-0.3
				c14.7-3.4,29.8-5.1,45-5.1c30.5,0,59.9,6.7,87.2,20l1.2,0.6L216.7,150z M189.7,140.9c9,0,17.7,1.9,25.7,5.6l59.2-121.9
				C248,11.9,219.4,5.4,189.7,5.4c-14.5,0-29.1,1.6-43.2,4.8l30.5,132C181.2,141.4,185.4,140.9,189.7,140.9z"/>
		</g>
		<g>
			<path class="st6" d="M236.8,183l-0.5-1c-6-13.5-15.9-20.8-23.1-24.5l-0.6-0.3l0.3-0.6l54.2-105.3l0.6,0.3
				c34.1,17.6,61.6,46.6,77.3,81.7l0.5,1L236.8,183z M214.3,156.6c7.3,3.9,17.1,11.3,23.1,24.7l106.4-47.6
				c-15.5-34.6-42.5-63.2-76.1-80.7L214.3,156.6z"/>
			<path class="st1" d="M340.3,282l-0.6-0.3l-105-54.7l0.3-0.6c5.4-10.4,7.1-22.3,4.8-33.6l-0.1-0.6l0.6-0.1l116.1-23.4l0.1,0.6
				c7.6,37.9,2,77.7-15.9,112.1L340.3,282z M236.4,226.4l103.4,53.8c17.4-33.8,23-72.8,15.7-110l-114.2,23
				C243.3,204.4,241.6,216.1,236.4,226.4z"/>
			<path class="st1" d="M167.9,156.7L119.3,48l1-0.4c35.4-15.8,75.4-19.1,112.8-9.2l0.6,0.2l-0.2,0.6l-30.2,114.5l-0.6-0.2
				c-7.9-2.1-20.2-3.3-33.8,2.8L167.9,156.7z M120.9,48.6L168.6,155c13.5-6,25.8-5,33.8-2.9l29.7-112.7
				C195.2,29.8,155.8,33.1,120.9,48.6z"/>
			<path class="st6" d="M221.8,369.9l-23-116.9l0.6-0.1c3.8-0.7,7.5-1.9,11.1-3.5c7.1-3.2,13.2-7.8,18.2-13.7l0.4-0.5l0.5,0.4
				l90.7,76.2l-0.4,0.5c-16.6,19.8-37,35.2-60.7,45.8c-11.8,5.3-24.2,9.2-36.8,11.7L221.8,369.9z M200.4,254l22.5,114.3
				c12.3-2.5,24.4-6.3,35.9-11.5c23.3-10.4,43.4-25.6,59.9-44.9L229.3,237c-5,5.8-11.1,10.4-18.2,13.5
				C207.6,252.1,204,253.3,200.4,254z"/>
			<path class="st6" d="M140.1,190.9L24.7,161.5l0.2-0.6c9.6-37.6,31.9-71,62.8-94.2l0.5-0.4l71.4,95.3l-0.5,0.4
				c-9.2,6.9-15.9,16.9-18.8,28.3L140.1,190.9z M26.3,160.6l112.9,28.8c3-11.1,9.6-21,18.6-28L87.9,68.1
				C57.7,90.9,35.8,123.7,26.3,160.6z"/>
			<path class="st6" d="M186,372.9h-0.6c-38.7-1-76.2-15.3-105.7-40.3l-0.5-0.4l0.4-0.5l76.6-90.4l0.5,0.4
				c8.9,7.5,20.2,11.8,31.8,12.1h0.6v0.6L186,372.9z M81,332c29,24.4,65.8,38.5,103.8,39.6l3.1-116.5c-11.5-0.4-22.6-4.7-31.5-12
				L81,332z"/>
			<path class="st6" d="M54.5,306l-0.4-0.5c-7.7-10.2-14.3-21.4-19.6-33.2c-10.6-23.7-15.6-48.8-14.8-74.7V197l119,3.7v0.6
				c-0.2,7.7,1.3,15.2,4.5,22.3c1.6,3.6,3.6,6.9,5.9,10l0.4,0.5l-0.5,0.4L54.5,306z M21,198.3c-0.7,25.4,4.3,50.1,14.7,73.5
				c5.1,11.5,11.6,22.4,19.1,32.4l93-70.3c-2.2-3-4.1-6.3-5.7-9.7c-3.2-7.1-4.7-14.6-4.6-22.2L21,198.3z"/>
		</g>
		<g>
			<path class="st5" d="M135.3,197.9L135.3,197.9c1.3-14.5,8.2-27.7,19.3-37l7.7,9.2c-8.7,7.3-14.1,17.6-15.1,28.9L135.3,197.9z"/>
			<path class="st7" d="M147.8,237.8l9.2-7.7c7.3,8.7,17.6,14.1,28.9,15.1h0.2l-1.1,11.9h-0.2C170.3,255.9,157.2,249,147.8,237.8z"
				/>
			<path class="st5" d="M194.5,148.4h0.2c14.4,1.3,27.5,8.1,36.8,19.3l-9.2,7.7c-7.3-8.7-17.5-14-28.8-15.1L194.5,148.4z"/>
			<path class="st7" d="M217.2,235.4c8.7-7.3,14-17.5,15-28.8v-0.2l11.9,1.1v0.2c-1.3,14.5-8.1,27.6-19.2,36.9L217.2,235.4z"/>
		</g>
		<g>
			<g>
				<path class="st5" d="M156,29.2h0.2c46.3-8.9,93.3,0.6,132.4,27L267,88.3c-30.5-20.6-67.2-28.1-103.4-21.1L156,29.2z"/>
				<path class="st8" d="M267.4,90.5l-1.3-0.9c-30.2-20.3-66.5-27.7-102.2-20.8l-1.6,0.3l-8.1-41.2l1.7-0.3
					c46.7-9,94.1,0.6,133.6,27.2l1.3,0.9L267.4,90.5z M190,63c27,0,53.4,7.9,76.5,23l19.8-29.5c-38.1-25.2-83.5-34.4-128.4-26.1
					l6.9,34.8C173.2,63.8,181.7,63,190,63z"/>
			</g>
			<g class="st4">
				<path class="st5" d="M43.2,103.8l32.1,21.7C54.7,156.1,47.2,192.8,54.1,229l0.1,0.6l-38,7.3l-0.1-0.6
					C7.1,190,16.8,142.9,43.2,103.8z"/>
				<path class="st8" d="M14.9,238.9l-0.4-2.2c-9-46.8,0.7-94.3,27.3-133.7l0.9-1.3l34.8,23.5l-0.9,1.3
					C56.2,156.7,48.8,193,55.7,228.8l0.4,2.2L14.9,238.9z M43.6,106C18.3,144.2,9,190,17.5,235.1l34.9-6.7
					c-6.7-35.8,0.7-72.1,20.7-102.4L43.6,106z"/>
			</g>
			<g>
				<path class="st5" d="M363.3,168.9l0.1,0.6c8.9,45.9-0.7,92.9-26.9,131.9l-32.1-21.6c20.5-30.5,28-67.2,21-103.3L363.3,168.9z"/>
				<path class="st8" d="M336.9,303.7l-34.8-23.4l0.9-1.3c20.3-30.1,27.6-66.4,20.7-102.1l-0.3-1.6l41.1-8.3l0.4,2.2
					c9,46.4-0.7,93.7-27.2,133.1L336.9,303.7z M306.6,279.4l29.5,19.8c25.2-38.2,34.4-83.7,26-128.4l-34.8,7
					C333.7,213.3,326.4,249.3,306.6,279.4z"/>
			</g>
			<g class="st4">
				<path class="st5" d="M112.8,317.5c30.5,20.4,67.1,27.9,103.1,20.9l0.5-0.1l7.3,38l-0.5,0.1c-46.1,8.9-93-0.6-132.1-26.8
					L112.8,317.5z"/>
				<path class="st8" d="M189.4,381.3c-35.1,0-69.3-10.4-99.1-30.3l-1.3-0.9l23.4-34.8l1.3,0.9c30.1,20.2,66.3,27.6,101.9,20.7
					l2.1-0.4l8,41.2l-2.1,0.4C212.2,380.2,200.8,381.3,189.4,381.3z M93.5,349.2c38.1,25.1,83.6,34.2,128.4,25.8l-6.7-34.9
					c-35.6,6.6-71.7-0.7-101.9-20.5L93.5,349.2z"/>
			</g>
		</g>
	</g>
</g>
</svg>
