<?xml version="1.0" encoding="utf-8"?>
<!-- Generator: Adobe Illustrator 23.0.4, SVG Export Plug-In . SVG Version: 6.00 Build 0)  -->
<svg version="1.1" id="Layer_1" xmlns="http://www.w3.org/2000/svg" xmlns:xlink="http://www.w3.org/1999/xlink" x="0px" y="0px"
	 viewBox="0 0 992 100" style="enable-background:new 0 0 992 100;" xml:space="preserve">
<style type="text/css">
	.st0{enable-background:new    ;}
	.st1{fill:none;stroke:#FFFFFF;stroke-width:0.8249;stroke-miterlimit:10;}
	.st2{fill:#FFFFFF;}
</style>
<g class="st0">
	<path class="st1" d="M20.7,24.4c0-1.3,0.7-2.3,2.2-3.2c1.5-0.9,3-1.3,4.6-1.3c2,0,3.2,0.7,3.6,2.1l12.6,44.7l12.5-44.7
		c0.4-1.4,1.6-2.1,3.6-2.1c1.5,0,3.1,0.4,4.5,1.3c1.5,0.9,2.2,1.9,2.2,3.1c0,0.1-0.1,0.4-0.2,0.8L50.7,77.1c-0.3,1.2-1.2,2-2.5,2.7
		c-1.3,0.6-2.8,0.9-4.5,0.9c-3.8,0-6.1-1.2-6.9-3.6L20.9,25.2C20.8,24.8,20.7,24.5,20.7,24.4z"/>
	<path class="st1" d="M72.4,76.8V23.3c0-1,0.5-1.9,1.4-2.5c0.9-0.6,2-0.9,3.3-0.9h29.4c1.1,0,1.9,0.5,2.5,1.4c0.6,0.9,0.9,2,0.9,3.2
		c0,1.3-0.3,2.4-0.9,3.4c-0.6,0.9-1.4,1.4-2.5,1.4H83.1v16.5h12.5c1,0,1.9,0.4,2.5,1.3c0.6,0.9,0.9,1.9,0.9,3c0,1-0.3,2-0.9,2.8
		c-0.6,0.9-1.4,1.3-2.5,1.3H83.1v16.6h23.3c1,0,1.9,0.5,2.5,1.4c0.6,0.9,0.9,2.1,0.9,3.4c0,1.2-0.3,2.3-0.9,3.2
		c-0.6,0.9-1.4,1.4-2.5,1.4H77.1c-1.3,0-2.4-0.3-3.3-0.9C72.9,78.7,72.4,77.9,72.4,76.8z"/>
	<path class="st1" d="M116.1,76.8V23.2c0-0.9,0.3-1.6,1-2.3c0.7-0.7,1.5-1,2.5-1h16.3c13,0,19.6,5.7,19.6,17.2c0,4.5-1,8.1-2.9,10.9
		c-2,2.8-4.6,4.6-7.9,5.6l10.8,20c0.3,0.3,0.4,0.8,0.4,1.3c0,1.4-0.7,2.7-2.1,3.8c-1.4,1.2-2.9,1.8-4.5,1.8c-1.6,0-2.8-0.9-3.7-2.6
		l-11.7-22.8h-6.9v21.5c0,1-0.5,1.9-1.6,2.5c-1,0.6-2.3,0.9-3.8,0.9c-1.4,0-2.7-0.3-3.8-0.9C116.6,78.7,116.1,77.9,116.1,76.8z
		 M126.8,46.9h9.1c5.9,0,8.8-2.9,8.8-8.7c0-5.9-2.9-8.8-8.8-8.8h-9.1V46.9z"/>
	<path class="st1" d="M163.1,76.8V23.2c0-1.1,0.5-1.9,1.6-2.5c1-0.5,2.3-0.8,3.8-0.8s2.7,0.3,3.8,0.8c1,0.6,1.6,1.4,1.6,2.5v53.6
		c0,1-0.5,1.9-1.6,2.5c-1.1,0.6-2.3,0.9-3.8,0.9c-1.5,0-2.8-0.3-3.8-0.9C163.6,78.7,163.1,77.9,163.1,76.8z"/>
	<path class="st1" d="M179.8,24.6c0-1.2,0.3-2.3,0.9-3.3c0.6-0.9,1.4-1.4,2.5-1.4h34.9c1.1,0,1.9,0.5,2.5,1.4c0.6,0.9,0.9,2,0.9,3.3
		c0,1.3-0.3,2.4-0.9,3.3c-0.6,0.9-1.4,1.4-2.5,1.4h-12v47.5c0,1.1-0.5,1.9-1.6,2.5c-1.1,0.6-2.3,0.9-3.8,0.9c-1.5,0-2.8-0.3-3.8-0.9
		c-1-0.6-1.6-1.4-1.6-2.5V29.3h-12.1c-1,0-1.9-0.5-2.5-1.4C180.1,27,179.8,25.9,179.8,24.6z"/>
	<path class="st1" d="M225.7,61.8v-23c0-6.5,1.7-11.3,5.2-14.4c3.5-3,8.2-4.5,14.1-4.5c5.9,0,10.6,1.5,14.1,4.5
		c3.5,3,5.3,7.8,5.3,14.4v23c0,6.5-1.8,11.3-5.3,14.4c-3.5,3-8.2,4.5-14.1,4.5c-5.9,0-10.6-1.5-14.1-4.5
		C227.4,73.2,225.7,68.4,225.7,61.8z M236.4,61.8c0,6.3,2.9,9.5,8.6,9.5c5.8,0,8.7-3.2,8.7-9.5v-23c0-6.3-2.9-9.5-8.7-9.5
		c-5.7,0-8.6,3.2-8.6,9.5V61.8z"/>
	<path class="st1" d="M273.5,76.8V23.3c0-1.1,0.5-1.9,1.6-2.5c1-0.6,2.3-0.9,3.8-0.9c2,0,3.5,0.4,4.5,1.1c1,0.7,2.2,2.3,3.5,4.6
		l15.9,30.8V23.2c0-1.1,0.5-1.9,1.6-2.5c1-0.5,2.3-0.8,3.8-0.8s2.7,0.3,3.8,0.8c1,0.6,1.6,1.4,1.6,2.5v53.6c0,1-0.5,1.9-1.6,2.5
		c-1.1,0.6-2.3,0.9-3.8,0.9c-2.9,0-5-1.1-6.2-3.4l-17.7-33.2v33.2c0,1-0.5,1.9-1.6,2.5c-1.1,0.6-2.3,0.9-3.8,0.9
		c-1.5,0-2.8-0.3-3.8-0.9C274,78.7,273.5,77.9,273.5,76.8z"/>
	<path class="st1" d="M323.4,76.8V23.3c0-1,0.5-1.9,1.4-2.5c0.9-0.6,2-0.9,3.3-0.9h29.4c1.1,0,1.9,0.5,2.5,1.4
		c0.6,0.9,0.9,2,0.9,3.2c0,1.3-0.3,2.4-0.9,3.4c-0.6,0.9-1.4,1.4-2.5,1.4h-23.3v16.5h12.5c1,0,1.9,0.4,2.5,1.3
		c0.6,0.9,0.9,1.9,0.9,3c0,1-0.3,2-0.9,2.8c-0.6,0.9-1.4,1.3-2.5,1.3h-12.5v16.6h23.3c1,0,1.9,0.5,2.5,1.4c0.6,0.9,0.9,2.1,0.9,3.4
		c0,1.2-0.3,2.3-0.9,3.2c-0.6,0.9-1.4,1.4-2.5,1.4h-29.4c-1.3,0-2.4-0.3-3.3-0.9C323.9,78.7,323.4,77.9,323.4,76.8z"/>
</g>
<g class="st0">
	<path class="st2" d="M383.6,76.9V23.2c0-0.9,0.4-1.6,1.3-2.3c0.9-0.7,2-1,3.4-1h14.6c5.9,0,10.6,1.5,14.1,4.5
		c3.5,3,5.3,7.8,5.3,14.4v22.5c0,6.5-1.8,11.3-5.3,14.4c-3.5,3-8.2,4.5-14.1,4.5h-14.6c-1.4,0-2.5-0.3-3.4-1
		C384.1,78.6,383.6,77.8,383.6,76.9z M394.4,70.8h8.6c5.8,0,8.7-3.2,8.7-9.5V38.8c0-6.3-2.9-9.5-8.7-9.5h-8.6V70.8z"/>
	<path class="st2" d="M430.8,61.8v-23c0-6.5,1.7-11.3,5.2-14.4c3.5-3,8.2-4.5,14.1-4.5c5.9,0,10.6,1.5,14.1,4.5
		c3.5,3,5.3,7.8,5.3,14.4v23c0,6.5-1.8,11.3-5.3,14.4c-3.5,3-8.2,4.5-14.1,4.5c-5.9,0-10.6-1.5-14.1-4.5
		C432.6,73.2,430.8,68.4,430.8,61.8z M441.5,61.8c0,6.3,2.9,9.5,8.6,9.5c5.8,0,8.7-3.2,8.7-9.5v-23c0-6.3-2.9-9.5-8.7-9.5
		c-5.7,0-8.6,3.2-8.6,9.5V61.8z"/>
	<path class="st2" d="M478.1,61.8v-23c0-6.5,1.8-11.3,5.3-14.3c3.5-3.1,8.1-4.6,13.8-4.6c5.8,0,10.5,1.4,14.1,4.3
		c3.7,2.9,5.5,6.7,5.5,11.4c0,2-0.4,3.4-1.2,4.2c-0.8,0.7-2.2,1.1-4.1,1.1c-3.5,0-5.3-1.1-5.4-3.4c-0.1-0.7-0.1-1.3-0.2-1.9
		c-0.1-0.5-0.3-1.2-0.7-2.1c-0.4-0.9-0.8-1.6-1.4-2.1c-0.5-0.6-1.4-1.1-2.5-1.5c-1.1-0.4-2.4-0.6-3.9-0.6c-5.8,0-8.7,3.2-8.7,9.5v23
		c0,6.3,2.9,9.5,8.8,9.5c1.8,0,3.2-0.3,4.4-0.8c1.2-0.5,2-1.3,2.6-2.4c0.5-1,0.9-1.9,1.1-2.7c0.2-0.8,0.3-1.8,0.4-2.9
		c0.2-2.3,1.9-3.4,5.3-3.4c1.9,0,3.3,0.4,4.2,1.1s1.3,2.1,1.3,4.2c0,4.9-1.8,8.9-5.5,11.9c-3.7,3-8.4,4.5-14.2,4.5
		c-5.7,0-10.2-1.5-13.7-4.6C479.8,73.1,478.1,68.3,478.1,61.8z"/>
	<path class="st2" d="M523.8,61.8V23.2c0-1.1,0.5-1.9,1.6-2.5c1-0.5,2.3-0.8,3.8-0.8c1.5,0,2.7,0.3,3.8,0.8c1,0.6,1.6,1.4,1.6,2.5
		v38.6c0,6.3,3,9.5,9.1,9.5c6,0,9.1-3.2,9.1-9.5V23.2c0-1.1,0.5-1.9,1.6-2.5c1-0.5,2.3-0.8,3.8-0.8s2.7,0.3,3.8,0.8
		c1,0.6,1.6,1.4,1.6,2.5v38.6c0,6.5-1.8,11.3-5.4,14.3c-3.6,3.1-8.4,4.6-14.4,4.6c-6,0-10.8-1.5-14.4-4.5
		C525.6,73.2,523.8,68.4,523.8,61.8z"/>
	<path class="st2" d="M573,76.8V25.3c0-1.8,0.5-3.2,1.5-4c1-0.9,2.3-1.3,3.8-1.3c2,0,3.6,0.4,4.7,1.1c1.1,0.7,2.3,2.3,3.6,4.6
		l10.1,18.5L607,25.6c1.3-2.4,2.5-3.9,3.7-4.6c1.1-0.7,2.7-1.1,4.7-1.1c1.5,0,2.8,0.4,3.8,1.3c1,0.9,1.5,2.2,1.5,4v51.6
		c0,1-0.5,1.9-1.6,2.5c-1.1,0.6-2.3,0.9-3.8,0.9c-1.5,0-2.8-0.3-3.8-0.9c-1-0.6-1.6-1.4-1.6-2.5V41.4l-9.7,17.2
		c-0.8,1.4-2,2.1-3.6,2.1c-1.6,0-2.8-0.7-3.5-2.1l-9.5-17.8v36.1c0,1-0.5,1.9-1.6,2.5c-1.1,0.6-2.3,0.9-3.8,0.9
		c-1.5,0-2.8-0.3-3.8-0.9C573.6,78.7,573,77.9,573,76.8z"/>
	<path class="st2" d="M630.7,76.8V23.3c0-1,0.5-1.9,1.4-2.5c0.9-0.6,2-0.9,3.3-0.9h29.4c1.1,0,1.9,0.5,2.5,1.4
		c0.6,0.9,0.9,2,0.9,3.2c0,1.3-0.3,2.4-0.9,3.4c-0.6,0.9-1.4,1.4-2.5,1.4h-23.3v16.5H654c1,0,1.9,0.4,2.5,1.3c0.6,0.9,0.9,1.9,0.9,3
		c0,1-0.3,2-0.9,2.8c-0.6,0.9-1.4,1.3-2.5,1.3h-12.5v16.6h23.3c1,0,1.9,0.5,2.5,1.4c0.6,0.9,0.9,2.1,0.9,3.4c0,1.2-0.3,2.3-0.9,3.2
		c-0.6,0.9-1.4,1.4-2.5,1.4h-29.4c-1.3,0-2.4-0.3-3.3-0.9C631.2,78.7,630.7,77.9,630.7,76.8z"/>
	<path class="st2" d="M674.4,76.8V23.3c0-1.1,0.5-1.9,1.6-2.5s2.3-0.9,3.8-0.9c2,0,3.5,0.4,4.5,1.1c1,0.7,2.2,2.3,3.5,4.6l15.9,30.8
		V23.2c0-1.1,0.5-1.9,1.6-2.5c1-0.5,2.3-0.8,3.8-0.8c1.5,0,2.7,0.3,3.8,0.8c1,0.6,1.6,1.4,1.6,2.5v53.6c0,1-0.5,1.9-1.6,2.5
		c-1.1,0.6-2.3,0.9-3.8,0.9c-2.9,0-5-1.1-6.2-3.4l-17.7-33.2v33.2c0,1-0.5,1.9-1.6,2.5c-1.1,0.6-2.3,0.9-3.8,0.9
		c-1.5,0-2.8-0.3-3.8-0.9C674.9,78.7,674.4,77.9,674.4,76.8z"/>
	<path class="st2" d="M720.4,24.6c0-1.2,0.3-2.3,0.9-3.3c0.6-0.9,1.4-1.4,2.5-1.4h34.9c1.1,0,1.9,0.5,2.5,1.4c0.6,0.9,0.9,2,0.9,3.3
		c0,1.3-0.3,2.4-0.9,3.3c-0.6,0.9-1.4,1.4-2.5,1.4h-12v47.5c0,1.1-0.5,1.9-1.6,2.5c-1.1,0.6-2.3,0.9-3.8,0.9c-1.5,0-2.8-0.3-3.8-0.9
		c-1-0.6-1.6-1.4-1.6-2.5V29.3h-12.1c-1,0-1.9-0.5-2.5-1.4C720.7,27,720.4,25.9,720.4,24.6z"/>
	<path class="st2" d="M757.6,75.5c0-0.1,0.1-0.4,0.2-0.9l15.9-51.9c0.3-1,1.1-1.8,2.4-2.4c1.3-0.6,2.8-0.9,4.4-0.9
		c1.7,0,3.1,0.3,4.5,0.9c1.3,0.6,2.1,1.5,2.5,2.7l15.9,51.9c0.1,0.4,0.2,0.7,0.2,0.8c0,1.2-0.7,2.3-2.2,3.1c-1.5,0.9-3,1.3-4.5,1.3
		c-2,0-3.2-0.7-3.6-2.1l-3.1-11h-17.7l-3.1,11c-0.4,1.4-1.8,2.1-4.1,2.1c-1.8,0-3.5-0.5-5.1-1.4C758.4,77.9,757.6,76.8,757.6,75.5z
		 M774.7,58.7H789l-7.2-25.3L774.7,58.7z"/>
	<path class="st2" d="M801.7,24.6c0-1.2,0.3-2.3,0.9-3.3c0.6-0.9,1.4-1.4,2.5-1.4H840c1.1,0,1.9,0.5,2.5,1.4c0.6,0.9,0.9,2,0.9,3.3
		c0,1.3-0.3,2.4-0.9,3.3c-0.6,0.9-1.4,1.4-2.5,1.4h-12v47.5c0,1.1-0.5,1.9-1.6,2.5c-1.1,0.6-2.3,0.9-3.8,0.9c-1.5,0-2.8-0.3-3.8-0.9
		c-1-0.6-1.6-1.4-1.6-2.5V29.3h-12.1c-1,0-1.9-0.5-2.5-1.4C802,27,801.7,25.9,801.7,24.6z"/>
	<path class="st2" d="M849.2,76.8V23.2c0-1.1,0.5-1.9,1.6-2.5c1-0.5,2.3-0.8,3.8-0.8c1.5,0,2.8,0.3,3.8,0.8c1,0.6,1.6,1.4,1.6,2.5
		v53.6c0,1-0.5,1.9-1.6,2.5c-1.1,0.6-2.3,0.9-3.8,0.9c-1.5,0-2.8-0.3-3.8-0.9C849.8,78.7,849.2,77.9,849.2,76.8z"/>
	<path class="st2" d="M869.2,61.8v-23c0-6.5,1.7-11.3,5.2-14.4c3.5-3,8.2-4.5,14.1-4.5c5.9,0,10.6,1.5,14.1,4.5
		c3.5,3,5.3,7.8,5.3,14.4v23c0,6.5-1.8,11.3-5.3,14.4c-3.5,3-8.2,4.5-14.1,4.5c-5.9,0-10.6-1.5-14.1-4.5
		C870.9,73.2,869.2,68.4,869.2,61.8z M879.9,61.8c0,6.3,2.9,9.5,8.6,9.5c5.8,0,8.7-3.2,8.7-9.5v-23c0-6.3-2.9-9.5-8.7-9.5
		c-5.7,0-8.6,3.2-8.6,9.5V61.8z"/>
	<path class="st2" d="M917,76.8V23.3c0-1.1,0.5-1.9,1.6-2.5s2.3-0.9,3.8-0.9c2,0,3.5,0.4,4.5,1.1c1,0.7,2.2,2.3,3.5,4.6l15.9,30.8
		V23.2c0-1.1,0.5-1.9,1.6-2.5c1-0.5,2.3-0.8,3.8-0.8c1.5,0,2.7,0.3,3.8,0.8c1,0.6,1.6,1.4,1.6,2.5v53.6c0,1-0.5,1.9-1.6,2.5
		c-1.1,0.6-2.3,0.9-3.8,0.9c-2.9,0-5-1.1-6.2-3.4l-17.7-33.2v33.2c0,1-0.5,1.9-1.6,2.5c-1.1,0.6-2.3,0.9-3.8,0.9
		c-1.5,0-2.8-0.3-3.8-0.9C917.6,78.7,917,77.9,917,76.8z"/>
</g>
<g class="st0">
	<path class="st1" d="M383.6,76.9V23.2c0-0.9,0.4-1.6,1.3-2.3c0.9-0.7,2-1,3.4-1h14.6c5.9,0,10.6,1.5,14.1,4.5
		c3.5,3,5.3,7.8,5.3,14.4v22.5c0,6.5-1.8,11.3-5.3,14.4c-3.5,3-8.2,4.5-14.1,4.5h-14.6c-1.4,0-2.5-0.3-3.4-1
		C384.1,78.6,383.6,77.8,383.6,76.9z M394.4,70.8h8.6c5.8,0,8.7-3.2,8.7-9.5V38.8c0-6.3-2.9-9.5-8.7-9.5h-8.6V70.8z"/>
	<path class="st1" d="M430.8,61.8v-23c0-6.5,1.7-11.3,5.2-14.4c3.5-3,8.2-4.5,14.1-4.5c5.9,0,10.6,1.5,14.1,4.5
		c3.5,3,5.3,7.8,5.3,14.4v23c0,6.5-1.8,11.3-5.3,14.4c-3.5,3-8.2,4.5-14.1,4.5c-5.9,0-10.6-1.5-14.1-4.5
		C432.6,73.2,430.8,68.4,430.8,61.8z M441.5,61.8c0,6.3,2.9,9.5,8.6,9.5c5.8,0,8.7-3.2,8.7-9.5v-23c0-6.3-2.9-9.5-8.7-9.5
		c-5.7,0-8.6,3.2-8.6,9.5V61.8z"/>
	<path class="st1" d="M478.1,61.8v-23c0-6.5,1.8-11.3,5.3-14.3c3.5-3.1,8.1-4.6,13.8-4.6c5.8,0,10.5,1.4,14.1,4.3
		c3.7,2.9,5.5,6.7,5.5,11.4c0,2-0.4,3.4-1.2,4.2c-0.8,0.7-2.2,1.1-4.1,1.1c-3.5,0-5.3-1.1-5.4-3.4c-0.1-0.7-0.1-1.3-0.2-1.9
		c-0.1-0.5-0.3-1.2-0.7-2.1c-0.4-0.9-0.8-1.6-1.4-2.1c-0.5-0.6-1.4-1.1-2.5-1.5c-1.1-0.4-2.4-0.6-3.9-0.6c-5.8,0-8.7,3.2-8.7,9.5v23
		c0,6.3,2.9,9.5,8.8,9.5c1.8,0,3.2-0.3,4.4-0.8c1.2-0.5,2-1.3,2.6-2.4c0.5-1,0.9-1.9,1.1-2.7c0.2-0.8,0.3-1.8,0.4-2.9
		c0.2-2.3,1.9-3.4,5.3-3.4c1.9,0,3.3,0.4,4.2,1.1s1.3,2.1,1.3,4.2c0,4.9-1.8,8.9-5.5,11.9c-3.7,3-8.4,4.5-14.2,4.5
		c-5.7,0-10.2-1.5-13.7-4.6C479.8,73.1,478.1,68.3,478.1,61.8z"/>
	<path class="st1" d="M523.8,61.8V23.2c0-1.1,0.5-1.9,1.6-2.5c1-0.5,2.3-0.8,3.8-0.8c1.5,0,2.7,0.3,3.8,0.8c1,0.6,1.6,1.4,1.6,2.5
		v38.6c0,6.3,3,9.5,9.1,9.5c6,0,9.1-3.2,9.1-9.5V23.2c0-1.1,0.5-1.9,1.6-2.5c1-0.5,2.3-0.8,3.8-0.8s2.7,0.3,3.8,0.8
		c1,0.6,1.6,1.4,1.6,2.5v38.6c0,6.5-1.8,11.3-5.4,14.3c-3.6,3.1-8.4,4.6-14.4,4.6c-6,0-10.8-1.5-14.4-4.5
		C525.6,73.2,523.8,68.4,523.8,61.8z"/>
	<path class="st1" d="M573,76.8V25.3c0-1.8,0.5-3.2,1.5-4c1-0.9,2.3-1.3,3.8-1.3c2,0,3.6,0.4,4.7,1.1c1.1,0.7,2.3,2.3,3.6,4.6
		l10.1,18.5L607,25.6c1.3-2.4,2.5-3.9,3.7-4.6c1.1-0.7,2.7-1.1,4.7-1.1c1.5,0,2.8,0.4,3.8,1.3c1,0.9,1.5,2.2,1.5,4v51.6
		c0,1-0.5,1.9-1.6,2.5c-1.1,0.6-2.3,0.9-3.8,0.9c-1.5,0-2.8-0.3-3.8-0.9c-1-0.6-1.6-1.4-1.6-2.5V41.4l-9.7,17.2
		c-0.8,1.4-2,2.1-3.6,2.1c-1.6,0-2.8-0.7-3.5-2.1l-9.5-17.8v36.1c0,1-0.5,1.9-1.6,2.5c-1.1,0.6-2.3,0.9-3.8,0.9
		c-1.5,0-2.8-0.3-3.8-0.9C573.6,78.7,573,77.9,573,76.8z"/>
	<path class="st1" d="M630.7,76.8V23.3c0-1,0.5-1.9,1.4-2.5c0.9-0.6,2-0.9,3.3-0.9h29.4c1.1,0,1.9,0.5,2.5,1.4
		c0.6,0.9,0.9,2,0.9,3.2c0,1.3-0.3,2.4-0.9,3.4c-0.6,0.9-1.4,1.4-2.5,1.4h-23.3v16.5H654c1,0,1.9,0.4,2.5,1.3c0.6,0.9,0.9,1.9,0.9,3
		c0,1-0.3,2-0.9,2.8c-0.6,0.9-1.4,1.3-2.5,1.3h-12.5v16.6h23.3c1,0,1.9,0.5,2.5,1.4c0.6,0.9,0.9,2.1,0.9,3.4c0,1.2-0.3,2.3-0.9,3.2
		c-0.6,0.9-1.4,1.4-2.5,1.4h-29.4c-1.3,0-2.4-0.3-3.3-0.9C631.2,78.7,630.7,77.9,630.7,76.8z"/>
	<path class="st1" d="M674.4,76.8V23.3c0-1.1,0.5-1.9,1.6-2.5s2.3-0.9,3.8-0.9c2,0,3.5,0.4,4.5,1.1c1,0.7,2.2,2.3,3.5,4.6l15.9,30.8
		V23.2c0-1.1,0.5-1.9,1.6-2.5c1-0.5,2.3-0.8,3.8-0.8c1.5,0,2.7,0.3,3.8,0.8c1,0.6,1.6,1.4,1.6,2.5v53.6c0,1-0.5,1.9-1.6,2.5
		c-1.1,0.6-2.3,0.9-3.8,0.9c-2.9,0-5-1.1-6.2-3.4l-17.7-33.2v33.2c0,1-0.5,1.9-1.6,2.5c-1.1,0.6-2.3,0.9-3.8,0.9
		c-1.5,0-2.8-0.3-3.8-0.9C674.9,78.7,674.4,77.9,674.4,76.8z"/>
	<path class="st1" d="M720.4,24.6c0-1.2,0.3-2.3,0.9-3.3c0.6-0.9,1.4-1.4,2.5-1.4h34.9c1.1,0,1.9,0.5,2.5,1.4c0.6,0.9,0.9,2,0.9,3.3
		c0,1.3-0.3,2.4-0.9,3.3c-0.6,0.9-1.4,1.4-2.5,1.4h-12v47.5c0,1.1-0.5,1.9-1.6,2.5c-1.1,0.6-2.3,0.9-3.8,0.9c-1.5,0-2.8-0.3-3.8-0.9
		c-1-0.6-1.6-1.4-1.6-2.5V29.3h-12.1c-1,0-1.9-0.5-2.5-1.4C720.7,27,720.4,25.9,720.4,24.6z"/>
	<path class="st1" d="M757.6,75.5c0-0.1,0.1-0.4,0.2-0.9l15.9-51.9c0.3-1,1.1-1.8,2.4-2.4c1.3-0.6,2.8-0.9,4.4-0.9
		c1.7,0,3.1,0.3,4.5,0.9c1.3,0.6,2.1,1.5,2.5,2.7l15.9,51.9c0.1,0.4,0.2,0.7,0.2,0.8c0,1.2-0.7,2.3-2.2,3.1c-1.5,0.9-3,1.3-4.5,1.3
		c-2,0-3.2-0.7-3.6-2.1l-3.1-11h-17.7l-3.1,11c-0.4,1.4-1.8,2.1-4.1,2.1c-1.8,0-3.5-0.5-5.1-1.4C758.4,77.9,757.6,76.8,757.6,75.5z
		 M774.7,58.7H789l-7.2-25.3L774.7,58.7z"/>
	<path class="st1" d="M801.7,24.6c0-1.2,0.3-2.3,0.9-3.3c0.6-0.9,1.4-1.4,2.5-1.4H840c1.1,0,1.9,0.5,2.5,1.4c0.6,0.9,0.9,2,0.9,3.3
		c0,1.3-0.3,2.4-0.9,3.3c-0.6,0.9-1.4,1.4-2.5,1.4h-12v47.5c0,1.1-0.5,1.9-1.6,2.5c-1.1,0.6-2.3,0.9-3.8,0.9c-1.5,0-2.8-0.3-3.8-0.9
		c-1-0.6-1.6-1.4-1.6-2.5V29.3h-12.1c-1,0-1.9-0.5-2.5-1.4C802,27,801.7,25.9,801.7,24.6z"/>
	<path class="st1" d="M849.2,76.8V23.2c0-1.1,0.5-1.9,1.6-2.5c1-0.5,2.3-0.8,3.8-0.8c1.5,0,2.8,0.3,3.8,0.8c1,0.6,1.6,1.4,1.6,2.5
		v53.6c0,1-0.5,1.9-1.6,2.5c-1.1,0.6-2.3,0.9-3.8,0.9c-1.5,0-2.8-0.3-3.8-0.9C849.8,78.7,849.2,77.9,849.2,76.8z"/>
	<path class="st1" d="M869.2,61.8v-23c0-6.5,1.7-11.3,5.2-14.4c3.5-3,8.2-4.5,14.1-4.5c5.9,0,10.6,1.5,14.1,4.5
		c3.5,3,5.3,7.8,5.3,14.4v23c0,6.5-1.8,11.3-5.3,14.4c-3.5,3-8.2,4.5-14.1,4.5c-5.9,0-10.6-1.5-14.1-4.5
		C870.9,73.2,869.2,68.4,869.2,61.8z M879.9,61.8c0,6.3,2.9,9.5,8.6,9.5c5.8,0,8.7-3.2,8.7-9.5v-23c0-6.3-2.9-9.5-8.7-9.5
		c-5.7,0-8.6,3.2-8.6,9.5V61.8z"/>
	<path class="st1" d="M917,76.8V23.3c0-1.1,0.5-1.9,1.6-2.5s2.3-0.9,3.8-0.9c2,0,3.5,0.4,4.5,1.1c1,0.7,2.2,2.3,3.5,4.6l15.9,30.8
		V23.2c0-1.1,0.5-1.9,1.6-2.5c1-0.5,2.3-0.8,3.8-0.8c1.5,0,2.7,0.3,3.8,0.8c1,0.6,1.6,1.4,1.6,2.5v53.6c0,1-0.5,1.9-1.6,2.5
		c-1.1,0.6-2.3,0.9-3.8,0.9c-2.9,0-5-1.1-6.2-3.4l-17.7-33.2v33.2c0,1-0.5,1.9-1.6,2.5c-1.1,0.6-2.3,0.9-3.8,0.9
		c-1.5,0-2.8-0.3-3.8-0.9C917.6,78.7,917,77.9,917,76.8z"/>
</g>
</svg>
