<svg id="Layer_1" data-name="Layer 1" xmlns="http://www.w3.org/2000/svg" xmlns:xlink="http://www.w3.org/1999/xlink" viewBox="0 0 127.21 23.88"><defs><style>.cls-1{fill:none;}.cls-2{clip-path:url(#clip-path);}.cls-3{fill:#fff;}.cls-4{opacity:0.38;}.cls-5{clip-path:url(#clip-path-3);}.cls-6{clip-path:url(#clip-path-6);}.cls-7{opacity:0.9;}.cls-8{clip-path:url(#clip-path-7);}.cls-9{clip-path:url(#clip-path-8);}</style><clipPath id="clip-path"><rect class="cls-1" width="127.21" height="23.88"/></clipPath><clipPath id="clip-path-3"><rect class="cls-1" x="6.3" y="-7" width="25.29" height="14.22"/></clipPath><clipPath id="clip-path-6"><rect class="cls-1" x="-9" y="-7" width="31.28" height="31.88"/></clipPath><clipPath id="clip-path-7"><rect class="cls-1" x="-0.42" y="-7" width="35.97" height="31.88"/></clipPath><clipPath id="clip-path-8"><path class="cls-1" d="M125.07,16.79V18.3h.35v-.6h.22v-.25h-.21V17l.19,0h0v-.26a3.51,3.51,0,0,0-.57.05m-1,.72A1.53,1.53,0,0,0,125.64,19v-.32a1.21,1.21,0,0,1,0-2.41V16a1.53,1.53,0,0,0-1.54,1.51"/></clipPath></defs><title>VeritoneLogo_WhiteColorV_RGB</title><g class="cls-2"><path class="cls-3" d="M22.59,0,18.94,6.22Z"/><g class="cls-2"><g class="cls-4"><g class="cls-5"><polygon class="cls-3" points="22.59 0 15.3 0 18.94 6.22 22.59 0"/></g></g></g><polygon class="cls-3" points="8.58 23.88 13.28 15.88 13.28 15.87 8.58 23.88"/><g class="cls-2"><path class="cls-3" d="M127.21,17.51A1.53,1.53,0,0,1,125.66,19a1.52,1.52,0,1,1,0-3,1.52,1.52,0,0,1,1.54,1.51m-2.73,0a1.18,1.18,0,0,0,1.19,1.21,1.16,1.16,0,0,0,1.16-1.2,1.18,1.18,0,1,0-2.35,0m.94.79h-.35V16.79a3.78,3.78,0,0,1,.58-.05.83.83,0,0,1,.52.12.39.39,0,0,1,.16.32.38.38,0,0,1-.32.36v0c.15.05.22.17.27.37a1.52,1.52,0,0,0,.11.37H126a1.3,1.3,0,0,1-.12-.37c0-.16-.12-.23-.31-.23h-.17Zm0-.85h.16c.2,0,.36-.06.36-.22s-.11-.23-.33-.23l-.19,0Z"/><path class="cls-3" d="M114.05,7v4.22h7v1.39h-7v4.25h7.88v1.37h-9.32V5.64h9.32V7Zm-3.61-1.37v12.6h-1.66L101,7.6V18.24H99.52V5.64h1.67L109,16.24V5.64ZM91,17a4.84,4.84,0,0,0,3.65-1.46A5,5,0,0,0,96,11.94a5,5,0,0,0-1.34-3.6,5.28,5.28,0,0,0-7.31,0A5,5,0,0,0,86,11.94a5,5,0,0,0,1.34,3.6A4.84,4.84,0,0,0,91,17M91,5.48a6.16,6.16,0,0,1,4.64,1.89,6.27,6.27,0,0,1,1.78,4.57,6.27,6.27,0,0,1-1.78,4.57,6.68,6.68,0,0,1-9.29,0,6.27,6.27,0,0,1-1.78-4.57,6.27,6.27,0,0,1,1.78-4.57A6.16,6.16,0,0,1,91,5.48M84.18,7H79.77V18.24H78.33V7H73.92V5.64H84.18ZM71.7,18.24H70.26V5.64H71.7Z"/><path class="cls-3" d="M59.71,11.86V6.93h3.5c1.94,0,2.92.83,2.92,2.46s-1,2.47-2.92,2.47ZM64.62,13l.14,0a3.94,3.94,0,0,0,2.09-1.29,3.5,3.5,0,0,0,.76-2.3,3.42,3.42,0,0,0-1.19-2.74,4.79,4.79,0,0,0-3.19-1H58.31V18.24h1.4V13.15h3.34l3.61,5.09h1.67Z"/></g><polygon class="cls-3" points="48.35 7.01 48.35 7.01 48.35 11.23 55.38 11.23 55.38 12.62 48.35 12.62 48.35 16.87 56.23 16.87 56.23 18.24 46.91 18.24 46.91 5.64 56.23 5.64 56.23 7.01 48.35 7.01"/><polygon class="cls-3" points="45.08 5.64 45.08 5.64 39.66 18.24 38.02 18.24 32.6 5.64 34.16 5.64 38.84 16.62 43.51 5.64 45.08 5.64"/><g class="cls-2"><g class="cls-4"><g class="cls-6"><polygon class="cls-3" points="3.97 0 0 9.18 8.58 23.88 13.28 15.87 3.97 0"/></g></g><g class="cls-7"><g class="cls-8"><polygon class="cls-3" points="22.59 0 22.59 0 18.94 6.22 13.28 15.87 13.28 15.88 8.58 23.88 17.97 23.88 26.56 9.18 22.59 0"/></g></g></g><g class="cls-9"><rect class="cls-3" x="122.23" y="15" width="5.08" height="5.01"/></g></g></svg>