<svg id="Layer_1" data-name="Layer 1" xmlns="http://www.w3.org/2000/svg" viewBox="0 0 300 300"><defs><style>.cls-1,.cls-4{fill:none;stroke:#231f20;}.cls-1,.cls-2,.cls-3,.cls-4{stroke-miterlimit:10;}.cls-1,.cls-2,.cls-3{stroke-width:5.52px;}.cls-2,.cls-5{fill:#fff;}.cls-2{stroke:#000;}.cls-3{fill:#9b2c86;stroke:#9b2c86;}.cls-4{stroke-width:5.33px;}</style></defs><title>personas_</title><g id="Group_182" data-name="Group 182"><g id="Group_180" data-name="Group 180"><path id="Path_216" data-name="Path 216" class="cls-1" d="M80.47,86.39c-9.63-8.46-23.89-12.33-22.35,3.86s4.62,25.43,16.19,25.43c1.54,20,16.2,42,54.73,42"/><path id="Path_217" data-name="Path 217" class="cls-1" d="M174.4,86.39c9.64-8.46,23.9-12.33,22.36,3.86s-4.63,25.43-16.2,25.43c-1.54,20-16.2,42-54.73,42"/><path id="Path_218" data-name="Path 218" class="cls-1" d="M87.41,79.07a51.44,51.44,0,0,1,25.44,0c5.86,1.91,12.72,3.85,9.63,14.26s-5,10.4-8.09,13.1-15.52,4.49-23.51,3.09c-4.56-.81-9.25-3.09-10.79-11.57a51.33,51.33,0,0,1-.77-7.32S78.93,80.61,87.41,79.07Z"/><path id="Path_219" data-name="Path 219" class="cls-1" d="M168.32,79.07a51.44,51.44,0,0,0-25.44,0C137,81,130.16,82.92,133.24,93.33s5,10.4,8.1,13.1,15.52,4.49,23.51,3.09c4.55-.81,9.25-3.09,10.79-11.57a52.83,52.83,0,0,0,.78-7.32S176.8,80.61,168.32,79.07Z"/><line id="Line_20" data-name="Line 20" class="cls-1" x1="123.25" y1="87.93" x2="132.49" y2="87.93"/></g><path id="Path_220" data-name="Path 220" class="cls-2" d="M270.21,231.78l-138.94-.59A11.23,11.23,0,0,1,120.13,220l-7.83-75.31a11.21,11.21,0,0,1,11.23-11.14l155.23.66a11.21,11.21,0,0,1,11.14,11.23l-8.46,75.25A11.21,11.21,0,0,1,270.21,231.78Z"/><rect id="Rectangle_51" data-name="Rectangle 51" class="cls-2" x="188.98" y="163.56" width="21.44" height="161.22" rx="7.98" transform="translate(-45.31 442.83) rotate(-89.76)"/><circle id="Ellipse_34" data-name="Ellipse 34" class="cls-3" cx="201.11" cy="231.19" r="59.61"/><path id="Path_221" data-name="Path 221" class="cls-4" d="M84.07,140.26c-65.15,14.8-74.25,91.51-74.25,91.51H135.33"/><path id="Path_222" data-name="Path 222" class="cls-4" d="M53.13,155.5c-6.91-22-8.32-84.56,10.48-114.84C87.31,2.5,141.5,6.48,158,21.89c23.13-9,49.19,58.4,43.84,111.59l-30,.2"/><path id="Path_223" data-name="Path 223" class="cls-1" d="M181.11,78.93c-19.75-22.6-22.75-38.28-22.75-38.28C151.83,58,109,79.07,69.51,79.84"/><g id="Group_181" data-name="Group 181"><path id="Path_224" data-name="Path 224" class="cls-5" d="M163.38,231.84l22.34-11.56,2.32,4.63-21.68,10.54v-3.23L188,242.76l-2.32,4.63-22.34-11.56Z"/><path id="Path_225" data-name="Path 225" class="cls-5" d="M205.19,213.19h5.46l-14.26,46.48h-5.46Z"/><path id="Path_226" data-name="Path 226" class="cls-5" d="M238.18,235.84,215.84,247.4l-2.32-4.63,21.68-10.55v3.23l-21.68-10.54,2.31-4.62,22.34,11.55Z"/></g></g></svg>