<svg id="Layer_1" data-name="Layer 1" xmlns="http://www.w3.org/2000/svg" viewBox="0 0 300 300"><defs><style>.cls-1,.cls-4,.cls-5{fill:none;}.cls-1,.cls-4{stroke:#231f20;}.cls-1,.cls-2,.cls-3,.cls-4{stroke-miterlimit:10;}.cls-1,.cls-2,.cls-3{stroke-width:5.38px;}.cls-2{fill:#fff;stroke:#000;}.cls-3{fill:#478fcc;stroke:#478fcc;}.cls-4{stroke-width:5.19px;}.cls-5{stroke:#fff;stroke-linecap:round;stroke-linejoin:round;stroke-width:2.41px;}</style></defs><title>personas_</title><g id="Group_179" data-name="Group 179"><g id="Group_177" data-name="Group 177"><path id="Path_208" data-name="Path 208" class="cls-1" d="M67.15,74.76v-22c0-10.2,2.35-21.67,16.48-23.79,0,0,3.14-18.32,40.81-18.32,32.95,0,43.15,17.53,54.93,0,0,0,4.57,12.91-7.07,19.62,17.27,1.1,17.27,13.86,17.27,24.06V74.76"/><path id="Path_209" data-name="Path 209" class="cls-1" d="M78.92,82.61C69.11,74,54.6,70.06,56.17,86.54s4.7,25.89,16.48,25.89c1.57,20.41,16.48,42.74,55.71,42.74"/><path id="Path_210" data-name="Path 210" class="cls-1" d="M174.55,82.61c9.81-8.63,24.32-12.55,22.75,3.93s-4.71,25.89-16.48,25.89c-1.56,20.41-16.48,42.74-55.71,42.74"/><path id="Path_211" data-name="Path 211" class="cls-1" d="M86,75.16h25.9c6.28,0,13,3.92,9.81,14.52s-5.1,10.59-8.25,13.34a11.81,11.81,0,0,1-9.21,3.13H89.52c-4.71,0-9.42-3.13-11-11.77a51.71,51.71,0,0,1-.78-7.45S77.35,76.73,86,75.16Z"/><path id="Path_212" data-name="Path 212" class="cls-1" d="M168.39,75.16H142.5c-6.28,0-12.95,3.92-9.81,14.52s5.1,10.59,8.25,13.34a11.82,11.82,0,0,0,9.22,3.13h14.7c4.71,0,9.42-3.13,11-11.77a51.71,51.71,0,0,0,.78-7.45S177,76.73,168.39,75.16Z"/><line id="Line_19" data-name="Line 19" class="cls-1" x1="122.47" y1="84.18" x2="131.87" y2="84.18"/></g><path id="Path_213" data-name="Path 213" class="cls-2" d="M272.07,230.62,130.63,230a11.42,11.42,0,0,1-11.34-11.43l-8-76.67a11.41,11.41,0,0,1,11.43-11.34l158,.68a11.41,11.41,0,0,1,11.34,11.43l-8.61,76.6A11.42,11.42,0,0,1,272.07,230.62Z"/><rect id="Rectangle_50" data-name="Rectangle 50" class="cls-2" x="189.85" y="161.17" width="21.83" height="164.12" rx="7.78" transform="matrix(0, -1, 1, 0, -43.32, 442.96)"/><circle id="Ellipse_32" data-name="Ellipse 32" class="cls-3" cx="200.77" cy="230.01" r="60.68"/><path id="Path_214" data-name="Path 214" class="cls-4" d="M134.76,230.61H7s9.27-78.09,75.58-93.16"/><g id="Group_178" data-name="Group 178"><path id="Path_215" data-name="Path 215" class="cls-5" d="M232,234a29.49,29.49,0,0,0,.3-4,30.23,30.23,0,0,0-.3-4l8.89-6.78a2,2,0,0,0,.48-2.63L233,202.42a2.17,2.17,0,0,0-2.59-.88l-10.46,4.09a31.06,31.06,0,0,0-7.09-4l-1.56-10.82a2.19,2.19,0,0,0-2.11-1.7H192.35a2.16,2.16,0,0,0-2.1,1.76l-1.56,10.82a32.34,32.34,0,0,0-7.1,4l-10.46-4.09a2.13,2.13,0,0,0-2.58.87l-8.42,14.15a2,2,0,0,0,.48,2.63l8.9,6.79a29.23,29.23,0,0,0-.3,4,30.38,30.38,0,0,0,.3,4l-8.9,6.78a2,2,0,0,0-.48,2.63l8.42,14.15a2.15,2.15,0,0,0,2.58.88l10.46-4.1a31.38,31.38,0,0,0,7.1,4l1.56,10.81a2.17,2.17,0,0,0,2.1,1.7h16.83a2.17,2.17,0,0,0,2.11-1.75l1.56-10.82a32.68,32.68,0,0,0,7.09-4l10.46,4.09a2.17,2.17,0,0,0,2.59-.88l8.41-14.15a2,2,0,0,0-.48-2.63Zm-19-4a12.28,12.28,0,1,1-12.28-12.27A12.28,12.28,0,0,1,213.05,230Z"/><circle id="Ellipse_33" data-name="Ellipse 33" class="cls-5" cx="200.77" cy="230.01" r="22.44"/></g></g></svg>