<svg id="Layer_1" data-name="Layer 1" xmlns="http://www.w3.org/2000/svg" xmlns:xlink="http://www.w3.org/1999/xlink" viewBox="0 0 300 300"><defs><style>.cls-1{fill:none;}.cls-2{fill:#231f20;}.cls-3{fill:#fff;}.cls-4{fill:#57c4c7;}.cls-5{clip-path:url(#clip-path);}</style><clipPath id="clip-path"><circle class="cls-1" cx="192.43" cy="219.43" r="31.63"/></clipPath></defs><title>personas_</title><g id="Group_190" data-name="Group 190"><path id="Path_242" data-name="Path 242" class="cls-2" d="M191.72,77.8h-5.15V58c0-12-1-19.93-14.34-20.78l-8.51-.54,7.39-4.26a12.2,12.2,0,0,0,6.46-10.75c-6.64,6.26-13.61,4.16-22.7,1.42A93.33,93.33,0,0,0,126,18.19c-33.58,0-37,15.52-37.07,15.68l-.35,1.77-1.8.31c-9.54,1.42-13.79,7.76-13.79,20.53V77.79H67.78V56.48c0-5.49,0-21.87,16.57-25.34C86.22,26.19,94.18,13,126,13a98.92,98.92,0,0,1,30.41,5.11c10.63,3.21,15,4.54,20.75-4L180,9.92l1.71,4.83A19,19,0,0,1,178.46,33c13.27,3.65,13.27,16.29,13.27,25Z"/><path id="Path_243" data-name="Path 243" class="cls-2" d="M129.75,158.41c-37.87,0-53.86-21.07-56.4-41.6-12.63-1.38-15-14.21-16.22-27.33C56.36,81.34,59.39,78,62,76.63c6-3,15.06,1.26,21.42,6.86l-3.4,3.86c-5.71-5-12.58-7.72-15.67-6.14C62.12,82.37,62,86.07,62.25,89c1.64,17.26,4.91,22.79,13.42,22.79h2.39l.18,2.38c.71,9.17,6.51,39.1,51.5,39.1Z"/><path id="Path_244" data-name="Path 244" class="cls-2" d="M126.6,158.41v-5.15c45,0,50.79-29.92,51.5-39.09l.18-2.39h2.39c8.52,0,11.78-5.53,13.42-22.79.28-2.91.13-6.61-2.13-7.77-3.1-1.59-10,1.12-15.68,6.14l-3.4-3.86c6.36-5.61,15.46-9.91,21.42-6.86C197,78,200,81.35,199.23,89.49c-1.26,13.12-3.58,26-16.22,27.33C180.46,137.34,164.48,158.41,126.6,158.41Z"/><path id="Path_245" data-name="Path 245" class="cls-2" d="M106.34,110.85H92.05c-6.72,0-11.65-5.07-13.19-13.54a53.07,53.07,0,0,1-.8-7.64c-.16-4.15,1.75-12.49,10.11-14l.46,0h25.13a13,13,0,0,1,10.68,4.76A13.62,13.62,0,0,1,125.74,93c-2.6,8.81-4.56,10.83-7.5,13.13-.4.31-.82.64-1.26,1A14,14,0,0,1,106.34,110.85ZM88.88,80.77C83,82,83.2,89.21,83.21,89.52a49.55,49.55,0,0,0,.72,6.87c1.09,6,4,9.31,8.12,9.31h14.29a9,9,0,0,0,7.24-2.41c.53-.46,1-.84,1.49-1.21,2.05-1.61,3.41-2.67,5.74-10.52a9.47,9.47,0,0,0-.49-8.1,8,8,0,0,0-6.56-2.69Z"/><path id="Path_246" data-name="Path 246" class="cls-2" d="M165.16,110.85H150.87a13.88,13.88,0,0,1-10.63-3.68c-.45-.4-.87-.71-1.26-1-2.93-2.3-4.91-4.32-7.51-13.13a13.64,13.64,0,0,1,1.3-12.62,13,13,0,0,1,10.68-4.76l25.6,0c8.37,1.52,10.27,9.86,10.11,14a52.38,52.38,0,0,1-.8,7.6C176.81,105.78,171.88,110.85,165.16,110.85Zm-21.7-30.08a8,8,0,0,0-6.56,2.69,9.45,9.45,0,0,0-.49,8.09c2.33,7.87,3.69,8.93,5.74,10.52.47.35,1,.76,1.48,1.21a8.94,8.94,0,0,0,7.25,2.41h14.28c4.15,0,7-3.3,8.13-9.3a49,49,0,0,0,.72-6.82c0-.35.16-7.57-5.66-8.8Z"/><rect id="Rectangle_53" data-name="Rectangle 53" class="cls-2" x="124.03" y="84.38" width="9.13" height="5.15"/></g><g id="Group_191" data-name="Group 191"><path id="Path_247" data-name="Path 247" class="cls-3" d="M269.21,229.05,132,228.47a11.09,11.09,0,0,1-11-11.1L113.24,143a11.09,11.09,0,0,1,11.1-11l153.35.65a11.09,11.09,0,0,1,11,11.1l-8.36,74.34A11.08,11.08,0,0,1,269.21,229.05Z"/><path id="Path_248" data-name="Path 248" d="M269.26,231.63h-.06L132,231a13.65,13.65,0,0,1-13.57-13.67l-7.72-74.13a13.67,13.67,0,0,1,13.51-13.84h.17l153.34.66a13.66,13.66,0,0,1,13.57,13.68l-8.38,74.61A13.57,13.57,0,0,1,269.26,231.63Zm-145-97.09A8.5,8.5,0,0,0,115.8,143l7.72,74.11a8.68,8.68,0,0,0,2.48,6.28,8.43,8.43,0,0,0,6,2.51l137.25.59a7.74,7.74,0,0,0,6-2.46,8.41,8.41,0,0,0,2.52-6l8.38-74.61a8.45,8.45,0,0,0-8.45-8.23l-153.35-.66Z"/></g><g id="Group_192" data-name="Group 192"><rect id="Rectangle_54" data-name="Rectangle 54" class="cls-3" x="188.97" y="161.66" width="21.18" height="159.27" rx="7.6" transform="matrix(0, -1, 1, 0, -42.58, 439.82)"/><path id="Path_249" data-name="Path 249" d="M271.74,254.76h-.05l-144.37-.61a10.06,10.06,0,0,1-10-10.06l0-6.29a10,10,0,0,1,10-10h0l144.38.61a10.05,10.05,0,0,1,10,10.07l0,6.28A10,10,0,0,1,271.74,254.76Zm0-5.15h0a4.9,4.9,0,0,0,4.87-4.85l0-6.28a4.88,4.88,0,0,0-4.84-4.9L127.41,233h0a4.87,4.87,0,0,0-4.87,4.85l0,6.29a4.9,4.9,0,0,0,4.85,4.89Z"/></g><g id="Group_193" data-name="Group 193"><circle id="Ellipse_37" data-name="Ellipse 37" class="cls-4" cx="200.95" cy="228.46" r="58.88"/><path id="Path_250" data-name="Path 250" class="cls-4" d="M201,289.92h-.27A61.46,61.46,0,0,1,201,167h.26a61.53,61.53,0,0,1,61.19,61.72h0A61.53,61.53,0,0,1,201,289.92Zm0-117.77a56.31,56.31,0,0,0-.25,112.62H201a56.31,56.31,0,0,0,.24-112.62Z"/></g><path id="Path_251" data-name="Path 251" class="cls-2" d="M136,231.53H9.18l.33-2.78c.09-.78,10-77.69,75.27-92.54l1.1,4.85c-54.95,12.49-68.57,71.89-71,85.5H136Z"/><path id="Path_252" data-name="Path 252" class="cls-3" d="M192.2,253.86a34.55,34.55,0,1,1,6.21-.57A36,36,0,0,1,192.2,253.86Zm.08-66.05a32.5,32.5,0,0,0-5.74.52,31.42,31.42,0,1,0,5.74-.52Z"/><path id="Path_253" data-name="Path 253" class="cls-3" d="M235.52,266.36A5.23,5.23,0,0,1,232,265l-20.47-18.16a1.46,1.46,0,0,1,1.94-2.19L234,262.79a2.19,2.19,0,0,0,3.1,0,1.54,1.54,0,0,0,.17-.19,1.69,1.69,0,0,0,.06-2.4l0,0-20.44-18.14a1.46,1.46,0,0,1,1.94-2.19L239.2,258a4.52,4.52,0,0,1,.35,6.39l-.14.16A5.25,5.25,0,0,1,235.52,266.36Z"/><g id="Group_197" data-name="Group 197"><g class="cls-5"><g id="Group_196" data-name="Group 196"><g id="Group_194" data-name="Group 194"><path id="Path_254" data-name="Path 254" class="cls-3" d="M207.33,213.41a1.49,1.49,0,0,1-1.44-1.21l-.54-3.51a9.8,9.8,0,0,1-1-.46c-.31-.17-.61-.36-.91-.56l-3.21,1.43a1.48,1.48,0,0,1-1.87-.61l-3-5a1.55,1.55,0,0,1,.31-1.92l2.74-2.3a12.54,12.54,0,0,1,0-2.21L195.67,195a1.53,1.53,0,0,1-.41-1.93l2.84-5.22a1.56,1.56,0,0,1,1.79-.74l3.25,1.21a12.2,12.2,0,0,1,1.88-1.16l.45-3.53a1.53,1.53,0,0,1,1.42-1.32l5.83-.22h.08a1.49,1.49,0,0,1,1.44,1.21l.54,3.51c.34.14.66.29,1,.46a10.4,10.4,0,0,1,.9.56l3.21-1.43a1.48,1.48,0,0,1,1.88.62l3,5a1.53,1.53,0,0,1-.31,1.92l-2.73,2.3a12.54,12.54,0,0,1,0,2.21l2.75,2.06a1.55,1.55,0,0,1,.41,1.93L222,207.65a1.51,1.51,0,0,1-1.79.73l-3.24-1.2a12.35,12.35,0,0,1-1.89,1.17l-.44,3.5a1.55,1.55,0,0,1-1.43,1.33l-5.82.22ZM203.55,206a.74.74,0,0,1,.45.15,11.38,11.38,0,0,0,1.1.7,10.89,10.89,0,0,0,1.21.54.79.79,0,0,1,.49.6l.6,3.91,5.76-.28.48-3.92a.75.75,0,0,1,.44-.6,10.38,10.38,0,0,0,2.29-1.41.75.75,0,0,1,.75-.12l3.61,1.34,2.79-5.24-3.07-2.28a.77.77,0,0,1-.3-.7,11,11,0,0,0-.05-2.69.72.72,0,0,1,.26-.7l3-2.56-3-5-3.54,1.63a.77.77,0,0,1-.76-.08,9.73,9.73,0,0,0-1.1-.7,11,11,0,0,0-1.21-.55.76.76,0,0,1-.48-.6l-.61-3.9-5.76.27-.48,3.93a.76.76,0,0,1-.44.6,9.92,9.92,0,0,0-2.28,1.4.76.76,0,0,1-.75.12l-3.63-1.34-2.78,5.25,3.07,2.27a.79.79,0,0,1,.3.71,11,11,0,0,0,.05,2.69.78.78,0,0,1-.26.7l-3,2.55,3,5,3.54-1.63a.81.81,0,0,1,.31-.06Z"/><path id="Path_255" data-name="Path 255" class="cls-3" d="M210.06,206.46a8.7,8.7,0,0,1-4.15-1.05h0a8.66,8.66,0,1,1,4.15,1.05Zm-3.42-2.41a7.17,7.17,0,1,0-2.86-9.73h0A7.18,7.18,0,0,0,206.64,204.05Z"/></g><g id="Group_195" data-name="Group 195"><path id="Path_256" data-name="Path 256" class="cls-3" d="M178.82,244.47a2.18,2.18,0,0,1-.72-.13l-7.75-2.71a2.21,2.21,0,0,1-1.43-2.41l.86-5a17.14,17.14,0,0,1-2-2.32l-4.84.27a2.37,2.37,0,0,1-2.23-1.75L159,222.21a2.21,2.21,0,0,1,1.29-2.45l4.61-1.65a16.84,16.84,0,0,1,1-2.94l-2.71-4.2a2.22,2.22,0,0,1,.35-2.78l6.11-5.54a2.14,2.14,0,0,1,2.81-.07l3.76,3.29a14.4,14.4,0,0,1,1.47-.38,12,12,0,0,1,1.46-.22l2.16-4.46a2.19,2.19,0,0,1,2.65-1.05l7.75,2.72a2.21,2.21,0,0,1,1.43,2.41l-.87,5a16.62,16.62,0,0,1,2,2.33l4.84-.27a2.27,2.27,0,0,1,2.23,1.75l1.67,8.26a2.23,2.23,0,0,1-1.29,2.46l-4.6,1.64a16.87,16.87,0,0,1-1,2.94l2.71,4.21a2.23,2.23,0,0,1-.35,2.81l-6.12,5.54a2.13,2.13,0,0,1-2.8.07l-3.76-3.3a14.43,14.43,0,0,1-1.47.39c-.48.09-1,.16-1.47.21l-2.15,4.45A2.2,2.2,0,0,1,178.82,244.47Zm-10.5-14.82a1.15,1.15,0,0,1,.93.49,15.15,15.15,0,0,0,2.49,2.87,1.09,1.09,0,0,1,.35,1.05l-1,5.53,7.71,2.65,2.3-5a1.14,1.14,0,0,1,1-.64,13.91,13.91,0,0,0,1.82-.22,15.46,15.46,0,0,0,1.8-.51,1.12,1.12,0,0,1,1.11.22l4.21,3.69,5.94-5.55-3.06-4.63a1.11,1.11,0,0,1-.07-1.1,14.2,14.2,0,0,0,1.18-3.6,1.11,1.11,0,0,1,.73-.85l5.14-1.84-1.75-8.17-5.36.35a1.14,1.14,0,0,1-1-.49,15,15,0,0,0-2.49-2.86,1.09,1.09,0,0,1-.35-1.05l1-5.54-7.71-2.64-2.3,5a1.13,1.13,0,0,1-.94.63,13.93,13.93,0,0,0-1.82.23,14.32,14.32,0,0,0-1.81.51,1.15,1.15,0,0,1-1.1-.22L171,204.27l-5.94,5.55,3.06,4.63a1.12,1.12,0,0,1,.07,1.09,14.2,14.2,0,0,0-1.18,3.6,1.13,1.13,0,0,1-.73.85l-5.14,1.84,1.77,8.17,5.36-.35Zm11.54-23.33Z"/><path id="Path_257" data-name="Path 257" class="cls-3" d="M181,233a10.94,10.94,0,1,1,2.18-.22A11.43,11.43,0,0,1,181,233Zm0-19.64a8.7,8.7,0,1,0,8.7,8.7,8.4,8.4,0,0,0-.18-1.73,8.72,8.72,0,0,0-8.52-7Z"/></g></g></g></g></svg>