<svg id="Layer_1" data-name="Layer 1" xmlns="http://www.w3.org/2000/svg" xmlns:xlink="http://www.w3.org/1999/xlink" viewBox="0 0 300 300"><defs><style>.cls-1,.cls-2,.cls-5,.cls-6,.cls-8{fill:none;}.cls-2,.cls-5{stroke:#231f20;}.cls-2,.cls-3,.cls-4,.cls-5{stroke-miterlimit:10;}.cls-2,.cls-3,.cls-4{stroke-width:5.48px;}.cls-3,.cls-9{fill:#fff;}.cls-3{stroke:#000;}.cls-4{fill:#8a43c5;stroke:#8a43c5;}.cls-5{stroke-width:5.29px;}.cls-6,.cls-8{stroke:#fff;stroke-linecap:round;stroke-linejoin:round;}.cls-6{stroke-width:2.92px;}.cls-7{clip-path:url(#clip-path);}.cls-8{stroke-width:2.01px;}</style><clipPath id="clip-path"><path class="cls-1" d="M181.72,242.37A29,29,0,0,1,212.09,216a26.45,26.45,0,1,0-30.39,27C181.71,242.75,181.7,242.56,181.72,242.37Z"/></clipPath></defs><title>personas_</title><g id="Group_189" data-name="Group 189"><g id="Group_183" data-name="Group 183"><path id="Path_227" data-name="Path 227" class="cls-2" d="M80.76,86.68c-9.63-8.48-23.88-12.33-22.34,3.85S63,116,74.6,116c1.54,20,16.18,42,54.71,42"/><path id="Path_228" data-name="Path 228" class="cls-2" d="M174.66,86.68c9.63-8.48,23.89-12.33,22.35,3.85S192.39,116,180.83,116c-1.54,20-16.18,42-54.71,42"/><path id="Path_229" data-name="Path 229" class="cls-2" d="M87.7,79.36a51.4,51.4,0,0,1,25.43,0c5.85,1.91,12.72,3.85,9.63,14.25s-5,10.4-8.09,13.1-15.51,4.49-23.5,3.09c-4.56-.81-9.25-3.09-10.79-11.56a51.34,51.34,0,0,1-.77-7.31S79.22,80.9,87.7,79.36Z"/><path id="Path_230" data-name="Path 230" class="cls-2" d="M168.59,79.36a51.4,51.4,0,0,0-25.43,0c-5.85,1.91-12.72,3.85-9.63,14.25s5,10.4,8.09,13.1,15.51,4.49,23.5,3.09c4.55-.81,9.25-3.09,10.79-11.56a52.84,52.84,0,0,0,.77-7.31S177.07,80.9,168.59,79.36Z"/><line id="Line_21" data-name="Line 21" class="cls-2" x1="123.53" y1="88.22" x2="132.76" y2="88.22"/></g><path id="Path_231" data-name="Path 231" class="cls-3" d="M270.44,232l-138.89-.59a11.22,11.22,0,0,1-11.14-11.23l-7.82-75.29a11.21,11.21,0,0,1,11.23-11.13l155.18.66a11.21,11.21,0,0,1,11.13,11.23l-8.46,75.22A11.22,11.22,0,0,1,270.44,232Z"/><rect id="Rectangle_52" data-name="Rectangle 52" class="cls-3" x="189.24" y="163.82" width="21.43" height="161.17" rx="7.92" transform="translate(-45.29 443.32) rotate(-89.76)"/><circle id="Ellipse_35" data-name="Ellipse 35" class="cls-4" cx="201.36" cy="231.42" r="59.59"/><path id="Path_232" data-name="Path 232" class="cls-5" d="M84.36,140.53C19.24,155.33,10.13,232,10.13,232H135.59"/><path id="Path_233" data-name="Path 233" class="cls-5" d="M53.44,155.76c-6.91-22-8.32-84.52,10.47-114.79,23.7-38.14,77.87-34.16,94.34-18.75,23.12-9,49.18,58.39,43.85,111.56l-30,.21"/><path id="Path_234" data-name="Path 234" class="cls-2" d="M181.37,79.22C161.64,56.62,158.62,41,158.62,41c-6.52,17.34-49.3,38.41-88.82,39.18"/><g id="Group_184" data-name="Group 184"><path id="Path_235" data-name="Path 235" class="cls-6" d="M227.4,222.3a30.55,30.55,0,1,1-18.88-2.36"/><path id="Path_236" data-name="Path 236" class="cls-6" d="M171.12,241.69A30.55,30.55,0,1,1,190,244.12"/></g><g id="Group_187" data-name="Group 187"><g class="cls-7"><g id="Group_186" data-name="Group 186"><g id="Group_185" data-name="Group 185"><path id="Path_237" data-name="Path 237" class="cls-8" d="M198.45,216a13.78,13.78,0,0,0,.1-1.82,12.73,12.73,0,0,0-.17-1.86l4.06-3.2a.93.93,0,0,0,.2-1.22l-4-6.48a1,1,0,0,0-1.2-.38l-4.81,2a13.89,13.89,0,0,0-3.31-1.83l-.8-5a1,1,0,0,0-1-.77l-7.78.13a1,1,0,0,0-1,.82l-.64,5a15.15,15.15,0,0,0-3.25,1.91l-4.86-1.83a1,1,0,0,0-1.19.43l-3.78,6.6a.93.93,0,0,0,.24,1.21l4.17,3.07a12.49,12.49,0,0,0-.11,1.83,12.86,12.86,0,0,0,.17,1.86l-4.06,3.2a.94.94,0,0,0-.2,1.22l4,6.47a1,1,0,0,0,1.2.39l4.81-2a14.46,14.46,0,0,0,3.29,1.82l.8,5a1,1,0,0,0,1,.76l7.77-.12a1,1,0,0,0,1-.83l.63-5a15.15,15.15,0,0,0,3.25-1.91l4.87,1.82a1,1,0,0,0,1.18-.42l3.78-6.6a.93.93,0,0,0-.24-1.22Z"/><circle id="Ellipse_36" data-name="Ellipse 36" class="cls-8" cx="183.97" cy="214.42" r="9.08"/></g></g></g></g><g id="Group_188" data-name="Group 188"><path id="Path_239" data-name="Path 239" class="cls-9" d="M197.27,250l10.94-5.66,1.14,2.27-10.6,5.16v-1.58l10.6,5.15-1.14,2.27L197.27,252Z"/><path id="Path_240" data-name="Path 240" class="cls-9" d="M217.73,240.89h2.68l-7,22.75h-2.67Z"/><path id="Path_241" data-name="Path 241" class="cls-9" d="M233.88,252,223,257.63l-1.14-2.27,10.6-5.16v1.59l-10.6-5.17,1.14-2.26L233.88,250Z"/></g></g></svg>