<?xml version="1.0" encoding="UTF-8"?>
<svg width="90px" height="89px" viewBox="0 0 90 89" version="1.1" xmlns="http://www.w3.org/2000/svg" xmlns:xlink="http://www.w3.org/1999/xlink">
    <!-- Generator: Sketch 55.2 (78181) - https://sketchapp.com -->
    <title>developer-guyDMH 2</title>
    <desc>Created with Sketch.</desc>
    <g id="Developer-Quiz" stroke="none" stroke-width="1" fill="none" fill-rule="evenodd">
        <g id="Developer-Docs" transform="translate(-302.000000, -911.000000)">
            <g id="developer-quiz-card" transform="translate(270.000000, 891.000000)">
                <g id="developer-guyDMH-2" transform="translate(32.000000, 20.000000)">
                    <g id="developer-guyDMH" transform="translate(0.000000, 0.000000)" fill="#231F20" fill-rule="nonzero">
                        <path d="M86.4,65.786747 L89.0457831,42.2891566 C89.0457831,39.8937047 87.1038857,37.9518072 84.7084337,37.9518072 L53.7831325,37.7891566 C54.3308745,36.4979383 54.6958365,35.13663 54.8674699,33.7445783 C58.8578313,33.3 59.5843373,29.2554217 59.9855422,25.0698795 C60.2240964,22.5 59.2698795,21.4481928 58.4240964,21.0144578 C58.1695792,20.882586 57.8946356,20.7946041 57.6108434,20.7542169 L57.6108434,15.1807229 C57.6108434,12.426506 57.6108434,8.44698795 53.4253012,7.28674699 C54.743213,5.67530769 55.1292068,3.49485362 54.4445783,1.52891566 L53.913253,0 L53.013253,1.34457831 C51.213253,4.03373494 49.760241,3.61084337 46.5072289,2.60240964 C43.3986524,1.5614004 40.1455917,1.01617425 36.8674699,0.986746988 C26.8481928,0.986746988 24.3325301,5.13975904 23.7361446,6.70120482 C18.5096386,7.78554217 18.5096386,12.9686747 18.5096386,14.6927711 L18.5096386,20.7650602 C17.8905675,20.6934541 17.2637622,20.7947939 16.6987952,21.0578313 C15.8638554,21.4915663 14.8987952,22.5433735 15.1481928,25.113253 C15.5385542,29.2554217 16.2325301,33.3 20.2662651,33.7879518 C20.5312415,36.0991629 21.3576792,38.3104422 22.673494,40.2289157 C3.13373494,45.5421687 0.130120482,68.8337349 0.108433735,69.0831325 L0,69.9506024 L34.8831325,69.9506024 C34.4169343,70.5070671 34.159941,71.209004 34.1566265,71.9349398 L34.1566265,73.9192771 C34.1623828,75.6589098 35.5617234,77.0727265 37.3012048,77.0963855 L82.8433735,77.2915663 L82.8433735,77.2915663 C84.5853775,77.2856613 85.9977577,75.8781181 86.0096386,74.1361446 L86.0096386,72.1518072 C85.9964298,70.9980497 85.3566446,69.9428195 84.339759,69.3975904 C85.6147331,68.6410376 86.3974138,67.2692868 86.4,65.786747 L86.4,65.786747 Z M20.1253012,14.6927711 C20.1253012,10.6590361 21.4698795,8.66385542 24.4626506,8.18674699 L25.026506,8.08915663 L25.1566265,7.59036145 C25.1566265,7.59036145 26.2409639,2.64578313 36.8566265,2.64578313 C39.9619728,2.67641859 43.0431097,3.19604025 45.986747,4.18554217 C48.860241,5.05301205 51.0614458,5.71445783 53.1542169,3.74096386 C53.1555579,5.16248154 52.3712008,6.46835271 51.1156627,7.13493976 L48.7951807,8.44698795 L51.473494,8.6746988 C55.6807229,8.94578313 55.9951807,11.439759 55.9951807,15.2349398 L55.9951807,20.9060241 C54.8641425,21.1915573 53.7972371,21.6882202 52.8506024,22.3698795 C52.3111015,21.5344324 51.445548,20.9639539 50.4650602,20.7975904 L42.386747,20.7975904 C41.1063312,20.7308341 39.8678062,21.263921 39.0361446,22.239759 C38.7623781,22.6163781 38.5669555,23.0440954 38.4614458,23.4975904 L36.9650602,23.4975904 C36.8595505,23.0440954 36.6641279,22.6163781 36.3903614,22.239759 C35.5670299,21.2334233 34.3170127,20.6747339 33.0180723,20.7325301 L24.939759,20.7325301 C23.9059749,20.9102091 23.0022119,21.5325372 22.4674699,22.4349398 C21.7457312,21.9055027 20.9584597,21.4717744 20.1253012,21.1445783 L20.1253012,14.6927711 Z M52.0481928,25.1349398 C52.0243734,25.8623552 51.9482735,26.5871161 51.8204819,27.3036145 C51.473494,29.2012048 50.5626506,30.2421687 49.2506024,30.2421687 L44.7289157,30.2421687 C43.891251,30.3428372 43.052351,30.0645292 42.4409639,29.4831325 C42.2941973,29.3463498 42.1384264,29.2195595 41.9746988,29.1036145 C41.3240964,28.5939759 40.8903614,28.2578313 40.1638554,25.7746988 C39.8326891,24.9413455 39.8882933,24.0040181 40.3156627,23.2156627 C40.8397063,22.6309253 41.6031879,22.319137 42.386747,22.3698795 L50.2481928,22.3698795 C52.0481928,22.7710843 52.0481928,25.026506 52.0481928,25.1349398 Z M25.1566265,22.3590361 L33.0180723,22.3590361 C33.8018987,22.3066475 34.5660743,22.6187192 35.0891566,23.2048193 C35.516526,23.9931747 35.5721302,24.9305021 35.2409639,25.7638554 C34.5036145,28.246988 34.0807229,28.5831325 33.4301205,29.0927711 C33.2663929,29.2087161 33.110622,29.3355064 32.9638554,29.4722892 C32.3524683,30.0536858 31.5135683,30.3319939 30.6759036,30.2313253 L26.1650602,30.2313253 C24.853012,30.2313253 23.9421687,29.146988 23.5951807,27.2927711 C23.4734484,26.5754283 23.3973917,25.8510792 23.3674699,25.1240964 C23.3674699,25.026506 23.3024096,22.7710843 25.1566265,22.3590361 Z M21.7518072,32.1180723 L20.9927711,32.1180723 C18.3036145,32.1180723 17.273494,30.3722892 16.753012,24.9289157 C16.6662651,24.0072289 16.753012,22.8361446 17.4361446,22.4674699 C18.3144578,22.0228916 20.1686747,22.6843373 21.8493976,23.9746988 C21.7697545,24.3561402 21.7333801,24.7453463 21.7409639,25.1349398 C21.7715689,25.9460208 21.8585256,26.7539928 22.0012048,27.553012 C22.4891566,30.2313253 24.039759,31.8253012 26.1650602,31.8253012 L30.6759036,31.8253012 C31.907065,31.9335897 33.1259518,31.5115157 34.026506,30.6650602 C34.1674699,30.5349398 34.3084337,30.4373494 34.4277108,30.339759 C35.3493976,29.613253 35.9783133,28.973494 36.8024096,26.1975904 C36.9081154,25.84305 36.9842793,25.4803649 37.0301205,25.113253 L38.3746988,25.113253 C38.42054,25.4803649 38.4967039,25.84305 38.6024096,26.1975904 C39.426506,28.973494 40.0554217,29.613253 40.9771084,30.339759 C41.0963855,30.4373494 41.2373494,30.5349398 41.3783133,30.6650602 C42.2788675,31.5115157 43.4977543,31.9335897 44.7289157,31.8253012 L49.239759,31.8253012 C51.4084337,31.8253012 52.9156627,30.2313253 53.4036145,27.553012 C53.5447269,26.7610602 53.6316756,25.9604081 53.6638554,25.1566265 C53.6669006,24.7183021 53.6159139,24.2812731 53.5120482,23.8554217 C55.1277108,22.673494 56.8518072,22.0987952 57.6975904,22.5216867 C58.5433735,22.9445783 58.4674699,24.0614458 58.3698795,24.9831325 C57.860241,30.4048193 56.8301205,32.1722892 54.1409639,32.1722892 L53.3819277,32.1722892 L53.3819277,32.9204819 C53.252112,34.619721 52.7916869,36.2772513 52.026506,37.8 L36.4120482,37.7349398 L36.4120482,37.7349398 C34.0165963,37.7349398 32.0746988,39.6768372 32.0746988,42.0722892 L32.3457831,44.5879518 C26.1975904,43.0698795 22.3048193,38.7650602 21.8493976,32.8879518 L21.7518072,32.1180723 Z M23.7361446,41.486747 C26.0874113,43.9774891 29.1649835,45.6623744 32.5301205,46.3012048 L34.5253012,65.4831325 C34.5236685,66.5609335 34.9304983,67.5993181 35.6638554,68.3891566 L1.8,68.3891566 C2.55903614,64.1277108 6.78795181,45.6939759 23.7361446,41.5192771 L23.7361446,41.486747 Z M84.4590361,74.1036145 C84.456686,74.5110822 84.2929185,74.9010047 84.0036145,75.1879518 C83.7129678,75.470346 83.3245097,75.6296139 82.9192771,75.6325301 L82.9192771,75.6325301 L37.3771084,75.4373494 C36.9650137,75.4519555 36.5642798,75.3006594 36.264663,75.0173483 C35.9650462,74.7340372 35.7915855,74.3423873 35.7831325,73.9301205 L35.7831325,71.9349398 C35.7890915,71.088792 36.4767228,70.4060241 37.3228916,70.4060241 L37.3228916,70.4060241 L82.8650602,70.6012048 C83.7171967,70.607164 84.4048401,71.29965 84.4048193,72.1518072 L84.4590361,74.1036145 Z M84.0144578,67.5975904 C83.5262873,68.1147234 82.8383122,68.3954489 82.1277108,68.3674699 L38.7542169,68.1831325 C38.0430165,68.18012 37.3629764,67.8909075 36.8674699,67.3807229 C36.3498354,66.8563344 36.0679641,66.1438265 36.086747,65.4072289 L33.6144578,42.0072289 C33.6204294,40.5322737 34.8178038,39.339759 36.2927711,39.339759 L36.2927711,39.339759 L84.7084337,39.5457831 C86.1565986,39.5453523 87.3405826,40.7004587 87.3759036,42.1481928 L84.7843373,65.7 C84.7730355,66.4094674 84.485114,67.0864718 83.9819277,67.586747 L84.0144578,67.5975904 Z" id="Shape"></path>
                    </g>
                    <g id="Group-3" transform="translate(41.000000, 50.000000)">
                        <circle id="Oval" fill="#78909C" cx="19.5" cy="19.5" r="19.5"></circle>
                        <text id="?" font-family="Dosis-ExtraBold, Dosis" font-size="24" font-weight="600" fill="#FFFFFF">
                            <tspan x="14" y="29">?</tspan>
                        </text>
                    </g>
                </g>
            </g>
        </g>
    </g>
</svg>