<svg id="Layer_1" data-name="Layer 1" xmlns="http://www.w3.org/2000/svg" viewBox="0 0 100 100"><defs><style>.cls-1{fill:#fff;}</style></defs><title>icons_fornavigation</title><g id="Group_11" data-name="Group 11"><circle id="Ellipse_2" data-name="Ellipse 2" cx="50.1" cy="50" r="45.2"/><path id="Path_19" data-name="Path 19" d="M50.1,97.26h-.21a47.51,47.51,0,1,1,.21,0Zm0-90.55a43.3,43.3,0,1,0-.19,86.59h.19A43.34,43.34,0,0,0,93.39,50.19h0A43.3,43.3,0,0,0,50.28,6.71Z"/></g><g id="Group_13" data-name="Group 13"><path id="Path_21" data-name="Path 21" class="cls-1" d="M56.89,84.58H43.08a2.75,2.75,0,0,1-2.69-2.18L39.18,74a26,26,0,0,1-5.08-2.89L26,74.29a2.76,2.76,0,0,1-3.31-1.11L15.79,61.55a2.61,2.61,0,0,1,.61-3.41l6.88-5.25A23.2,23.2,0,0,1,23.1,50a22.25,22.25,0,0,1,.18-2.82L16.45,42a2.63,2.63,0,0,1-.64-3.45l6.9-11.61A2.75,2.75,0,0,1,26,25.78L34.12,29a27.32,27.32,0,0,1,5.07-2.89l1.21-8.34a2.78,2.78,0,0,1,2.7-2.28H56.91a2.75,2.75,0,0,1,2.69,2.18L60.81,26A26.39,26.39,0,0,1,65.9,28.9L74,25.73a2.77,2.77,0,0,1,3.31,1.12l6.92,11.64a2.63,2.63,0,0,1-.61,3.41l-6.89,5.25A25,25,0,0,1,76.9,50a24,24,0,0,1-.19,2.82l6.84,5.23a2.63,2.63,0,0,1,.63,3.45l-6.9,11.6A2.74,2.74,0,0,1,74,74.26l-8.11-3.17A27.4,27.4,0,0,1,60.8,74l-1.21,8.34A2.76,2.76,0,0,1,56.89,84.58ZM34.24,69a1,1,0,0,1,.59.2,24.13,24.13,0,0,0,5.61,3.19,1,1,0,0,1,.59.76l1.29,8.88a.8.8,0,0,0,.76.56H56.89a.8.8,0,0,0,.77-.64l1.28-8.84a1,1,0,0,1,.59-.77,25.22,25.22,0,0,0,5.63-3.19,1,1,0,0,1,1-.13l8.59,3.36a.79.79,0,0,0,.93-.32l6.91-11.61a.71.71,0,0,0-.18-.9L75.08,54a1,1,0,0,1-.37-.91A23.43,23.43,0,0,0,75,50a24.05,24.05,0,0,0-.24-3.18,1,1,0,0,1,.37-.91l7.31-5.57a.68.68,0,0,0,.15-.87L75.63,27.84a.8.8,0,0,0-.95-.3l-8.57,3.35a1,1,0,0,1-1-.13,24.43,24.43,0,0,0-5.6-3.19,1,1,0,0,1-.6-.76l-1.28-8.88a.8.8,0,0,0-.76-.56H43.1a.8.8,0,0,0-.76.64l-1.28,8.84a1,1,0,0,1-.59.77,25.22,25.22,0,0,0-5.63,3.19,1,1,0,0,1-1,.13L25.3,27.58a.75.75,0,0,0-.93.32L17.46,39.51a.7.7,0,0,0,.18.91L24.92,46a1,1,0,0,1,.37.92A23.16,23.16,0,0,0,25.05,50a24.05,24.05,0,0,0,.24,3.18,1,1,0,0,1-.37.91l-7.31,5.57a.68.68,0,0,0-.15.87l6.91,11.63a.81.81,0,0,0,.95.31l8.57-3.36a.84.84,0,0,1,.35-.07Zm15.74-8A11.06,11.06,0,1,1,61.05,50,11.06,11.06,0,0,1,50,61.06ZM50,40.9A9.11,9.11,0,1,0,59.09,50,9.09,9.09,0,0,0,50,40.9Z"/><path id="Path_22" data-name="Path 22" class="cls-1" d="M50,70.29A20.29,20.29,0,1,1,70.27,50,20.28,20.28,0,0,1,50,70.29Zm0-38.53A18.25,18.25,0,1,0,68.23,50h0A18.26,18.26,0,0,0,50,31.76Z"/></g></svg>