<svg id="Layer_1" data-name="Layer 1" xmlns="http://www.w3.org/2000/svg" xmlns:xlink="http://www.w3.org/1999/xlink" viewBox="0 0 100 100"><defs><style>.cls-1{fill:none;}.cls-2{fill:#8a43c5;}.cls-3{fill:#fff;}.cls-4{clip-path:url(#clip-path);}.cls-5{isolation:isolate;}</style><clipPath id="clip-path"><path class="cls-1" d="M36.31,57.84A22.06,22.06,0,0,1,59.4,37.78,20.12,20.12,0,1,0,36.29,58.27C36.3,58.11,36.29,58,36.31,57.84Z"/></clipPath></defs><title>icons_fornavigation</title><g id="Group_88" data-name="Group 88"><ellipse id="Ellipse_10" data-name="Ellipse 10" class="cls-2" cx="50.58" cy="50.01" rx="45.27" ry="45.27"/><path id="Path_86" data-name="Path 86" class="cls-2" d="M50.59,97.26h-.21a47.51,47.51,0,1,1,.21,0Zm0-90.55a43.3,43.3,0,0,0-.18,86.59h.19A43.34,43.34,0,0,0,93.89,50.19h0A43.28,43.28,0,0,0,50.78,6.71h-.19Z"/></g><g id="Group_93" data-name="Group 93"><g id="Group_90" data-name="Group 90"><path id="Path_87" data-name="Path 87" class="cls-3" d="M61.12,87.86c-.54,0-1.09,0-1.64,0a24.28,24.28,0,0,1-3.06-48,1.05,1.05,0,1,1,.67,2,.75.75,0,0,1-.26,0,22.19,22.19,0,1,0,19.66,5.83,1.07,1.07,0,0,1-.09-1.49,1,1,0,0,1,1.49-.09.23.23,0,0,1,.07.07A24.27,24.27,0,0,1,61.12,87.86Z"/><g id="Group_89" data-name="Group 89"><path id="Path_88" data-name="Path 88" class="cls-3" d="M75.19,52.23,71,42.57l10.48,1.19Z"/></g></g><g id="Group_92" data-name="Group 92"><path id="Path_89" data-name="Path 89" class="cls-3" d="M42.61,60.23a1.07,1.07,0,0,1-1-.86,1,1,0,0,1,.83-1.22h0a22.18,22.18,0,1,0-19.65-5.91,1,1,0,0,1-.07,1.49,1.06,1.06,0,0,1-1.4,0,24.29,24.29,0,1,1,21.52,6.47Z"/><g id="Group_91" data-name="Group 91"><path id="Path_90" data-name="Path 90" class="cls-3" d="M24.11,47.65l4.16,9.68L17.8,56.1Z"/></g></g></g><g id="Group_96" data-name="Group 96"><g class="cls-4"><g id="Group_95" data-name="Group 95"><g id="Group_94" data-name="Group 94"><path id="Path_91" data-name="Path 91" class="cls-3" d="M35.28,51.75a1.51,1.51,0,0,1-1.45-1.16l-.55-3.42a12,12,0,0,1-2-1.08L28,47.44a1.5,1.5,0,0,1-1.81-.58l-3-4.92a1.45,1.45,0,0,1,.31-1.87l2.77-2.19a9.79,9.79,0,0,1-.07-1.08,7.8,7.8,0,0,1,0-1.08l-2.83-2.08A1.44,1.44,0,0,1,23,31.76l2.88-5a1.47,1.47,0,0,1,1.77-.64L31,27.34a12.45,12.45,0,0,1,1.92-1.14l.44-3.4a1.51,1.51,0,0,1,1.44-1.26l5.91-.1h0a1.52,1.52,0,0,1,1.46,1.17L42.73,26a10.93,10.93,0,0,1,2,1.07L48,25.75a1.49,1.49,0,0,1,1.8.58l3,4.92a1.45,1.45,0,0,1-.31,1.87l-2.78,2.19a10,10,0,0,1,.09,1.09c0,.36,0,.72,0,1.07l2.82,2.08A1.44,1.44,0,0,1,53,41.43l-2.87,5a1.51,1.51,0,0,1-1.78.65L45,45.86A12.62,12.62,0,0,1,43.08,47l-.43,3.41a1.51,1.51,0,0,1-1.44,1.26l-5.92.09Zm-3.87-7.21a.77.77,0,0,1,.44.14A10,10,0,0,0,34.2,46a.72.72,0,0,1,.46.56l.61,3.79,5.92-.12.51-3.8a.69.69,0,0,1,.41-.57,11,11,0,0,0,2.31-1.37.77.77,0,0,1,.7-.11l3.7,1.39,2.87-5-3.14-2.3a.71.71,0,0,1-.29-.68,9.3,9.3,0,0,0,.07-1.29,10,10,0,0,0-.12-1.33.71.71,0,0,1,.28-.67L51.58,32l-3.06-4.9-3.67,1.5a.73.73,0,0,1-.7-.09,9.92,9.92,0,0,0-2.35-1.28.75.75,0,0,1-.46-.56l-.61-3.8L34.8,23l-.51,3.79a.72.72,0,0,1-.44.58,10.88,10.88,0,0,0-2.3,1.36.73.73,0,0,1-.71.11l-3.69-1.37-2.88,5,3.16,2.31a.75.75,0,0,1,.28.67,11.17,11.17,0,0,0-.08,1.29,9.81,9.81,0,0,0,.12,1.33.7.7,0,0,1-.27.67L24.4,41.2l3.05,4.89,3.67-1.49A.72.72,0,0,1,31.41,44.54Z"/><path id="Path_92" data-name="Path 92" class="cls-3" d="M38,44.23a7.57,7.57,0,1,1,.13,0Zm0-13.81h-.1A6.17,6.17,0,0,0,33.71,41a5.8,5.8,0,0,0,4.4,1.74A6.18,6.18,0,1,0,38,30.42Z"/></g></g></g></g><g id="_" data-name=" " class="cls-5"><g class="cls-5"><path class="cls-3" d="M57.79,71.63a.68.68,0,0,1-.24.53.84.84,0,0,1-.6.21,1.1,1.1,0,0,1-.49-.1l-10-4.51a1.2,1.2,0,0,1-.54-.45,1.3,1.3,0,0,1-.2-.7,1.2,1.2,0,0,1,.2-.67,1.12,1.12,0,0,1,.54-.44l10-4.51a1.33,1.33,0,0,1,.49-.12.89.89,0,0,1,.6.2.71.71,0,0,1,.24.56.7.7,0,0,1-.42.64l-9.71,4.36L57.37,71A.73.73,0,0,1,57.79,71.63Z"/><path class="cls-3" d="M60.22,75a.79.79,0,0,1-.49.17.85.85,0,0,1-.61-.25.8.8,0,0,1-.28-.61,1,1,0,0,1,.08-.35l5.81-18.18a1,1,0,0,1,.32-.49.76.76,0,0,1,.5-.17.89.89,0,0,1,.61.24.84.84,0,0,1,.27.64,1.45,1.45,0,0,1-.05.32L60.54,74.51A.93.93,0,0,1,60.22,75Z"/><path class="cls-3" d="M79.34,65.94a1.2,1.2,0,0,1,.2.67,1.3,1.3,0,0,1-.2.7,1.2,1.2,0,0,1-.54.45l-10,4.51a1.18,1.18,0,0,1-.5.1.89.89,0,0,1-.59-.21.68.68,0,0,1-.24-.53A.72.72,0,0,1,68,71l9.68-4.34L68,62.27a.65.65,0,0,1-.44-.64.7.7,0,0,1,.23-.56.92.92,0,0,1,.6-.2,1.38,1.38,0,0,1,.5.12l10,4.51A1.12,1.12,0,0,1,79.34,65.94Z"/></g></g></svg>