<svg id="Layer_1" data-name="Layer 1" xmlns="http://www.w3.org/2000/svg" viewBox="0 0 100 100"><defs><style>.cls-1{fill:#2196f3;}.cls-2{fill:#fff;}</style></defs><title>icons_fornavigation</title><g id="Group_205" data-name="Group 205"><g id="Group_111" data-name="Group 111"><g id="Group_110" data-name="Group 110"><g id="Group_11" data-name="Group 11"><circle id="Ellipse_2" data-name="Ellipse 2" class="cls-1" cx="50.33" cy="50" r="45.2"/><path id="Path_19" data-name="Path 19" class="cls-1" d="M50.33,97.26h-.2a47.5,47.5,0,1,1,.2,0Zm0-90.55a43.3,43.3,0,0,0-.18,86.59h.18a43.36,43.36,0,0,0,43.3-43.11h0A43.3,43.3,0,0,0,50.52,6.71Z"/></g><g id="Group_13" data-name="Group 13"><path id="Path_21" data-name="Path 21" class="cls-2" d="M56.66,84.58H42.85a2.77,2.77,0,0,1-2.7-2.18L39,74a26.09,26.09,0,0,1-5.09-2.89l-8.08,3.16a2.76,2.76,0,0,1-3.31-1.11L15.55,61.55a2.63,2.63,0,0,1,.61-3.41l6.89-5.25A23.2,23.2,0,0,1,22.87,50a22.25,22.25,0,0,1,.18-2.82L16.21,42a2.63,2.63,0,0,1-.63-3.45l6.9-11.61a2.75,2.75,0,0,1,3.3-1.13L33.88,29A27.73,27.73,0,0,1,39,26.06l1.21-8.34a2.78,2.78,0,0,1,2.69-2.28H56.68a2.75,2.75,0,0,1,2.69,2.18L60.58,26a26.31,26.31,0,0,1,5.08,2.89l8.09-3.17a2.77,2.77,0,0,1,3.31,1.12L84,38.49a2.62,2.62,0,0,1-.62,3.41l-6.88,5.25A22.92,22.92,0,0,1,76.66,50a22,22,0,0,1-.18,2.82l6.84,5.23A2.64,2.64,0,0,1,84,61.52l-6.9,11.6a2.75,2.75,0,0,1-3.29,1.14l-8.11-3.17A27.48,27.48,0,0,1,60.56,74l-1.2,8.34A2.76,2.76,0,0,1,56.66,84.58ZM34,69a1,1,0,0,1,.59.2,24.27,24.27,0,0,0,5.6,3.19,1,1,0,0,1,.6.76l1.28,8.88a.82.82,0,0,0,.77.56H56.66a.81.81,0,0,0,.77-.64l1.28-8.84a1,1,0,0,1,.59-.77,25.68,25.68,0,0,0,5.63-3.19,1,1,0,0,1,.95-.13l8.58,3.36a.81.81,0,0,0,.94-.32l6.9-11.61a.69.69,0,0,0-.18-.9L74.85,54a1,1,0,0,1-.38-.91A23.43,23.43,0,0,0,74.71,50a22.47,22.47,0,0,0-.24-3.18,1,1,0,0,1,.38-.91l7.3-5.57a.68.68,0,0,0,.16-.87L75.4,27.84a.81.81,0,0,0-1-.3l-8.57,3.35a1,1,0,0,1-.95-.13,24.64,24.64,0,0,0-5.6-3.19,1,1,0,0,1-.6-.76l-1.28-8.88a.81.81,0,0,0-.76-.56H42.87a.82.82,0,0,0-.77.64l-1.28,8.84a1,1,0,0,1-.59.77,25.38,25.38,0,0,0-5.62,3.19,1,1,0,0,1-1,.13l-8.59-3.36a.77.77,0,0,0-.94.32l-6.9,11.61a.7.7,0,0,0,.18.91L24.68,46a1,1,0,0,1,.38.92A23.16,23.16,0,0,0,24.82,50a24.05,24.05,0,0,0,.24,3.18,1,1,0,0,1-.38.91l-7.3,5.57a.68.68,0,0,0-.16.87l6.92,11.63a.8.8,0,0,0,.95.31l8.56-3.36A.92.92,0,0,1,34,69Zm15.74-8A11.06,11.06,0,1,1,60.81,50,11.06,11.06,0,0,1,49.75,61.06Zm0-20.16A9.11,9.11,0,1,0,58.86,50a9.1,9.1,0,0,0-9.11-9.1Z"/><path id="Path_22" data-name="Path 22" class="cls-2" d="M49.75,70.29A20.29,20.29,0,1,1,70,50,20.28,20.28,0,0,1,49.75,70.29Zm0-38.53A18.25,18.25,0,1,0,68,50h0A18.27,18.27,0,0,0,49.75,31.76Z"/></g></g></g></g></svg>