<svg id="Layer_1" data-name="Layer 1" xmlns="http://www.w3.org/2000/svg" viewBox="0 0 100 100"><defs><style>.cls-1{isolation:isolate;}.cls-2{fill:#fff;}</style></defs><title>icons_fornavigation</title><g id="Group_86" data-name="Group 86"><circle id="Ellipse_9" data-name="Ellipse 9" cx="49.77" cy="49.75" r="44.32"/><path id="Path_85" data-name="Path 85" d="M49.77,97.26h-.22a47.5,47.5,0,1,1,.2-95H50a47.5,47.5,0,0,1-.2,95Zm0-91a43.52,43.52,0,0,0-.19,87h.19A43.57,43.57,0,0,0,93.29,49.94h0A43.51,43.51,0,0,0,50,6.24h-.21Z"/></g><g id="_" data-name=" " class="cls-1"><g class="cls-1"><path class="cls-2" d="M41,61.45a1.26,1.26,0,0,1-.42,1,1.58,1.58,0,0,1-1.09.37,2.31,2.31,0,0,1-.89-.17l-18-8.14a2.18,2.18,0,0,1-1-.82,2.35,2.35,0,0,1-.35-1.27,2.19,2.19,0,0,1,.35-1.2,2.27,2.27,0,0,1,1-.8l18-8.13a2.38,2.38,0,0,1,.89-.22,1.58,1.58,0,0,1,1.09.37,1.3,1.3,0,0,1,.42,1,1.25,1.25,0,0,1-.76,1.16L22.7,52.43l17.51,7.82A1.35,1.35,0,0,1,41,61.45Z"/><path class="cls-2" d="M45.37,67.54a1.4,1.4,0,0,1-.89.31,1.64,1.64,0,0,1-1.11-.44,1.44,1.44,0,0,1-.49-1.12,2.08,2.08,0,0,1,.13-.62L53.5,32.87a1.78,1.78,0,0,1,.58-.89,1.4,1.4,0,0,1,.89-.31,1.61,1.61,0,0,1,1.11.44,1.48,1.48,0,0,1,.49,1.16,3.92,3.92,0,0,1-.09.58L46,66.65A1.76,1.76,0,0,1,45.37,67.54Z"/><path class="cls-2" d="M79.86,51.18a2.12,2.12,0,0,1,.36,1.2,2.27,2.27,0,0,1-.36,1.27,2.13,2.13,0,0,1-1,.82L60.93,62.61a2.35,2.35,0,0,1-.89.17A1.6,1.6,0,0,1,59,62.41a1.21,1.21,0,0,1-.44-1,1.34,1.34,0,0,1,.8-1.2L76.8,52.43,59.33,44.56a1.19,1.19,0,0,1-.8-1.16,1.3,1.3,0,0,1,.42-1A1.57,1.57,0,0,1,60,42a2.38,2.38,0,0,1,.89.22l17.95,8.13A2.22,2.22,0,0,1,79.86,51.18Z"/></g></g></svg>