<svg id="Layer_1" data-name="Layer 1" xmlns="http://www.w3.org/2000/svg" xmlns:xlink="http://www.w3.org/1999/xlink" viewBox="0 0 100 100"><defs><style>.cls-1{fill:none;}.cls-2{fill:#fff;}.cls-3{clip-path:url(#clip-path);}</style><clipPath id="clip-path"><circle class="cls-1" cx="44.17" cy="43.03" r="25.32"/></clipPath></defs><title>icons_fornavigation</title><g id="Group_106" data-name="Group 106"><g id="Group_101" data-name="Group 101"><circle id="Ellipse_12" data-name="Ellipse 12" cx="50.51" cy="49.75" r="45.44"/><path id="Path_97" data-name="Path 97" d="M50.52,97.26h-.21a47.5,47.5,0,0,1,.2-95h.2A47.56,47.56,0,0,1,98,50h0A47.56,47.56,0,0,1,50.52,97.26Zm0-91a43.52,43.52,0,0,0-.19,87h.2a43.52,43.52,0,1,0,.18-87Z"/></g><path id="Path_98" data-name="Path 98" class="cls-2" d="M45.19,71.77a27.59,27.59,0,1,1,5-.45A27.6,27.6,0,0,1,45.19,71.77Zm.07-52.86A25.27,25.27,0,1,0,59.55,23.4a25.27,25.27,0,0,0-14.29-4.49Z"/><g id="Group_105" data-name="Group 105"><g class="cls-3"><g id="Group_104" data-name="Group 104"><g id="Group_102" data-name="Group 102"><path id="Path_99" data-name="Path 99" class="cls-2" d="M56.1,38.22a1.19,1.19,0,0,1-1.15-1l-.43-2.81c-.27-.11-.53-.23-.79-.36a6.34,6.34,0,0,1-.72-.46l-2.58,1.16a1.21,1.21,0,0,1-1.5-.49l-2.37-4a1.21,1.21,0,0,1,.25-1.54L49,26.9a8.72,8.72,0,0,1,0-1.77L46.76,23.5A1.22,1.22,0,0,1,46.44,22l2.27-4.18a1.24,1.24,0,0,1,1.43-.59l2.6,1a11.13,11.13,0,0,1,1.51-.93l.36-2.82a1.23,1.23,0,0,1,1.14-1.06l4.67-.17h0a1.18,1.18,0,0,1,1.16,1l.44,2.8a7,7,0,0,1,.78.38,6.73,6.73,0,0,1,.73.44l2.57-1.15a1.2,1.2,0,0,1,1.51.5l2.37,4a1.24,1.24,0,0,1-.25,1.54l-2.19,1.84a10.35,10.35,0,0,1,0,1.76l2.21,1.64a1.22,1.22,0,0,1,.31,1.54l-2.26,4.19a1.23,1.23,0,0,1-1.44.58l-2.6-1a9.66,9.66,0,0,1-1.51.92L62,37A1.22,1.22,0,0,1,60.83,38l-4.66.18Zm-3-5.92a.67.67,0,0,1,.36.12,7.36,7.36,0,0,0,.88.57,6.5,6.5,0,0,0,1,.43.61.61,0,0,1,.38.48L56.16,37l4.62-.22.37-3.14a.65.65,0,0,1,.36-.49,8.59,8.59,0,0,0,1.83-1.13.62.62,0,0,1,.6-.1L66.84,33l2.23-4.19L66.62,27a.59.59,0,0,1-.25-.55,8.16,8.16,0,0,0,0-2.15.63.63,0,0,1,.21-.56L69,21.68l-2.37-4L63.78,19a.59.59,0,0,1-.61-.07,8.76,8.76,0,0,0-.88-.56,10.63,10.63,0,0,0-1-.44.59.59,0,0,1-.38-.48l-.49-3.13-4.62.23-.38,3.13a.61.61,0,0,1-.35.49,7.86,7.86,0,0,0-1.83,1.13.59.59,0,0,1-.6.1l-2.9-1.07-2.23,4.2L50,24.36a.62.62,0,0,1,.24.55,8.6,8.6,0,0,0,0,2.15.63.63,0,0,1-.21.56l-2.45,2,2.38,4,2.83-1.31A.75.75,0,0,1,53.08,32.3Z"/><path id="Path_100" data-name="Path 100" class="cls-2" d="M58.28,32.65A7.08,7.08,0,0,1,55,31.8h0a7,7,0,1,1,3.31.85Zm-2.73-1.93a5.74,5.74,0,1,0-2.3-7.79h0A5.75,5.75,0,0,0,55.55,30.72Z"/></g><g id="Group_103" data-name="Group 103"><path id="Path_101" data-name="Path 101" class="cls-2" d="M33.28,63.08a1.91,1.91,0,0,1-.58-.1L26.5,60.8a1.76,1.76,0,0,1-1.14-1.92l.69-4A13.83,13.83,0,0,1,24.42,53l-3.87.22a1.89,1.89,0,0,1-1.79-1.41l-1.34-6.6a1.78,1.78,0,0,1,1-2L22.13,42a14.45,14.45,0,0,1,.77-2.36l-2.17-3.36A1.78,1.78,0,0,1,21,34l4.9-4.45a1.7,1.7,0,0,1,2.24,0l3,2.63a11.91,11.91,0,0,1,2.36-.48l1.73-3.57a1.74,1.74,0,0,1,2.11-.85l6.21,2.18a1.75,1.75,0,0,1,1.14,1.92l-.69,4a14.47,14.47,0,0,1,1.63,1.87L49.51,37a1.83,1.83,0,0,1,1.79,1.41L52.64,45a1.76,1.76,0,0,1-1,2l-3.67,1.32a13.88,13.88,0,0,1-.78,2.36L49.33,54A1.79,1.79,0,0,1,49,56.22l-4.9,4.44a1.7,1.7,0,0,1-2.24.05l-3-2.63a11.8,11.8,0,0,1-1.17.3,11.58,11.58,0,0,1-1.18.18l-1.72,3.56A1.79,1.79,0,0,1,33.28,63.08Zm-8.4-11.84a.91.91,0,0,1,.75.4,11.45,11.45,0,0,0,2,2.29.94.94,0,0,1,.29.81l-.78,4.43,6.19,2.12,1.84-4a.89.89,0,0,1,.76-.51,11.88,11.88,0,0,0,1.46-.18,14,14,0,0,0,1.44-.41.88.88,0,0,1,.88.16l3.37,3,4.75-4.45-2.45-3.7a.91.91,0,0,1,0-.89,11.58,11.58,0,0,0,1-2.86.85.85,0,0,1,.57-.67L51,45.31l-1.42-6.54-4.3.29a.94.94,0,0,1-.79-.41,12,12,0,0,0-2-2.32.89.89,0,0,1-.29-.81l.77-4.44L36.75,29l-1.84,4a.93.93,0,0,1-.75.51,10.16,10.16,0,0,0-2.91.58.93.93,0,0,1-.89-.17L27,30.91l-4.75,4.44,2.45,3.71a.9.9,0,0,1,.05.87,11.58,11.58,0,0,0-.95,2.86.89.89,0,0,1-.57.69L19.1,45l1.42,6.53,4.29-.29Zm9.24-18.68Z"/><path id="Path_102" data-name="Path 102" class="cls-2" d="M35,53.89a8.79,8.79,0,1,1,1.74-.18A9.26,9.26,0,0,1,35,53.89Zm0-15.73a7.12,7.12,0,0,0-1.39.14A7,7,0,1,0,35,38.16Z"/></g></g></g></g></g><path id="Path_103" data-name="Path 103" class="cls-2" d="M62.06,64,76,76.37a1.75,1.75,0,0,0,2.47,0,1.07,1.07,0,0,0,.14-.16,1.35,1.35,0,0,0,.06-1.91l0,0L64.56,61.77l-.56.36c2.7,1.35.55-1.54,1-2a1.8,1.8,0,0,1,2,0l-.55.19L80.22,72.54a3.64,3.64,0,0,1,.28,5.13l-.12.12a4.21,4.21,0,0,1-3.11,1.44,4.27,4.27,0,0,1-2.79-1.11l-14-12.4"/></svg>